<svg xmlns="http://www.w3.org/2000/svg" viewBox="0 0 942 1080"><g id="Layer_3" data-name="Layer 3"><rect width="942" height="1080" style="fill:#d9eef6"/></g><g id="Layer_2" data-name="Layer 2"><g id="icon-grid"><rect x="279.80973" y="348.71413" width="382.38054" height="382.38054" style="fill:none;stroke:#0090c5;stroke-miterlimit:10;stroke-width:2px;opacity:0.30000000000000004"/><rect x="236.79192" y="305.69632" width="468.41616" height="468.41616" style="fill:none;stroke:#0090c5;stroke-miterlimit:10;stroke-width:2px;opacity:0.30000000000000004"/><circle cx="471" cy="539.9044" r="270.38387" style="fill:none;stroke:#0090c5;stroke-miterlimit:10;stroke-width:2px;opacity:0.30000000000000004"/><circle cx="471" cy="539.9044" r="234.20812" style="fill:none;stroke:#0090c5;stroke-miterlimit:10;stroke-width:2px;opacity:0.30000000000000004"/><circle cx="471" cy="539.9044" r="191.1903" style="fill:none;stroke:#0090c5;stroke-miterlimit:10;stroke-width:2px;opacity:0.30000000000000004"/><line x1="236.79196" y1="305.69628" x2="705.20804" y2="774.11252" style="fill:none;stroke:#0090c5;stroke-miterlimit:10;stroke-width:2px;opacity:0.30000000000000004"/><line x1="236.79188" y1="774.11244" x2="705.20812" y2="305.69636" style="fill:none;stroke:#0090c5;stroke-miterlimit:10;stroke-width:2px;opacity:0.30000000000000004"/><circle cx="471" cy="539.9044" r="331.22024" style="fill:none;stroke:#0090c5;stroke-miterlimit:10;stroke-width:4px;opacity:0.5"/></g></g><g id="Layer_5" data-name="Layer 5"><path d="M605.40677,415.15274c-5.35334-5.3533-14.96066-5.3533-20.26619,0a14.33928,14.33928,0,1,0,20.26619,0Z" transform="translate(0 -0.0956)" style="fill:#0090c5;fill-rule:evenodd"/><path d="M555.74364,454.91937a14.33935,14.33935,0,1,0-2.86784,20.075A14.284,14.284,0,0,0,555.74364,454.91937Z" transform="translate(0 -0.0956)" style="fill:#0090c5;fill-rule:evenodd"/><path d="M504.74365,493.15742A14.32018,14.32018,0,1,0,493.32,516.10027a14.31067,14.31067,0,0,0,11.42362-22.94285Z" transform="translate(0 -0.0956)" style="fill:#0090c5;fill-rule:evenodd"/><path d="M452.45456,529.8669a14.79456,14.79456,0,0,0-20.26618,0,14.33927,14.33927,0,1,0,20.26618,0Z" transform="translate(0 -0.0956)" style="fill:#0090c5;fill-rule:evenodd"/><path d="M501.92551,566.76616a14.34124,14.34124,0,1,0,2.86307,20.075A14.296,14.296,0,0,0,501.92551,566.76616Z" transform="translate(0 -0.0956)" style="fill:#0090c5;fill-rule:evenodd"/><path d="M552.87769,605.00421a14.34117,14.34117,0,1,0,2.86311,20.075A14.30115,14.30115,0,0,0,552.87769,605.00421Z" transform="translate(0 -0.0956)" style="fill:#0090c5;fill-rule:evenodd"/><ellipse cx="669.3599" cy="539.9044" rx="35.84818" ry="95.59513" style="fill:#0090c5"/><path d="M605.40677,644.58108c-5.35334-5.35334-14.96066-5.35334-20.26619,0a14.33928,14.33928,0,1,0,20.26619,0Z" transform="translate(0 -0.0956)" style="fill:#0090c5;fill-rule:evenodd"/><path d="M471,305.79192c-129.34978,0-234.20808,104.85832-234.20808,234.20808S341.65022,774.20808,471,774.20808a233.75613,233.75613,0,0,0,185.60274-91.43675l-15.22351-11.71041A214.81642,214.81642,0,0,1,471,755.08905c-118.6001,0-215.089-96.489-215.089-215.08905S352.3999,324.911,471,324.911a214.81645,214.81645,0,0,1,170.37923,84.02813l15.22351-11.71043A233.75617,233.75617,0,0,0,471,305.79192Z" transform="translate(0 -0.0956)" style="fill:#0090c5;fill-rule:evenodd"/></g></svg>