<svg xmlns="http://www.w3.org/2000/svg" viewBox="0 0 1920 1080"><g id="Layer_4" data-name="Layer 4"><rect width="1920" height="1080" style="fill:#d9eef6"/></g><g id="Layer_1" data-name="Layer 1"><circle cx="960" cy="397.77778" r="369.77778" style="fill:none;stroke:#0090c5;stroke-miterlimit:10;stroke-width:2px;opacity:0.30000000000000004"/><circle cx="960" cy="388.2963" r="75.85185" style="fill:none;stroke:#0090c5;stroke-miterlimit:10;stroke-width:2px;opacity:0.30000000000000004"/><circle cx="1225.48148" cy="540" r="75.85185" style="fill:none;stroke:#0090c5;stroke-miterlimit:10;stroke-width:2px;opacity:0.30000000000000004"/><circle cx="694.51852" cy="540" r="75.85185" style="fill:none;stroke:#0090c5;stroke-miterlimit:10;stroke-width:2px;opacity:0.30000000000000004"/><circle cx="960" cy="691.7037" r="75.85185" style="fill:none;stroke:#0090c5;stroke-miterlimit:10;stroke-width:2px;opacity:0.30000000000000004"/><circle cx="960" cy="748.59259" r="151.7037" style="fill:none;stroke:#0090c5;stroke-miterlimit:10;stroke-width:2px;opacity:0.30000000000000004"/><circle cx="960" cy="682.22222" r="369.77778" style="fill:none;stroke:#0090c5;stroke-miterlimit:10;stroke-width:2px;opacity:0.30000000000000004"/><circle cx="960" cy="540" r="189.62963" style="fill:none;stroke:#0090c5;stroke-miterlimit:10;stroke-width:2px;opacity:0.30000000000000004"/><circle cx="960" cy="540" r="75.85185" style="fill:none;stroke:#0090c5;stroke-miterlimit:10;stroke-width:2px;opacity:0.30000000000000004"/></g><g id="Layer_2" data-name="Layer 2"><path d="M978.75847,767.06661c.58967-.02958,1.17919-.05173,1.766-.08434q4.45326-.24667,8.87846-.6c.60439-.049,1.20741-.10528,1.8118-.15717q3.70005-.31311,7.37932-.6992c.67554-.07115,1.35107-.13926,2.02509-.21329q8.98686-.99329,17.84157-2.42074.85766-.1379,1.71547-.28156,4.2512-.70224,8.47265-1.49777c.10225-.01927.20449-.037.30523-.05628q4.6-.8777,9.1541-1.87264c.28733-.06219.57329-.12879.85925-.191q4.20887-.92684,8.3836-1.9497c.25486-.06219.51109-.12288.76747-.18659q9.09768-2.24893,18.01633-4.95116c.191-.05779.38063-.11559.57026-.17339,105.35412-32.05469,191.10965-110.33623,234.62828-211.72877C1243.85174,406.08143,1112.6963,312.44444,960,312.44444c-152.68159,0-283.85189,93.637-341.33333,227.55859,37.22809,86.73478,105.37172,156.5555,190.243,194.99994h0a.15215.15215,0,0,1,.02215.01032,365.1695,365.1695,0,0,0,44.34815,16.71259c.20147.06083.40293.123.60439.18371q8.90676,2.69335,17.99858,4.94676c.25623.0622.51413.12288.77036.18659q4.17108,1.02219,8.3792,1.94818c.28748.06372.5748.129.86228.19251q4.55771.99125,9.15562,1.87264c.09618.01926.194.03565.29036.0534q4.22662.80212,8.48737,1.50065.85562.14222,1.71258.28156,8.85329,1.42222,17.84294,2.42074c.67265.074,1.34819.14214,2.02373.21329q3.68231.38663,7.3866.6992c.60151.05189,1.20013.10817,1.80148.15565q4.42687.3534,8.883.60151c.58376.03261,1.17191.05476,1.757.08434q3.65772.18456,7.33032.2978c.81495.02518,1.62975.05036,2.44743.06963,2.98675.07267,5.98229.12152,8.98678.12152,3.00586,0,5.99988-.04885,8.98814-.12152.81617-.01927,1.63112-.046,2.44592-.06963Q975.105,767.25109,978.75847,767.06661ZM770.37037,540c0-104.73335,84.89628-189.62963,189.62963-189.62963,104.7332,0,189.62963,84.89628,189.62963,189.62963a189.04129,189.04129,0,0,1-56.78816,135.30817,152.05075,152.05075,0,0,0-90.43558-72.40893,75.84922,75.84922,0,1,0-84.81481.00151,152.05645,152.05645,0,0,0-90.4327,72.40742A189.04116,189.04116,0,0,1,770.37037,540Z" style="fill:#0090c5;opacity:0.2"/></g><g id="Layer_3" data-name="Layer 3"><path d="M978.75847,767.06661c.58967-.02958,1.17919-.05173,1.766-.08434q4.45326-.24667,8.87846-.6c.60439-.049,1.20741-.10528,1.8118-.15717q3.70005-.31311,7.37932-.6992c.67554-.07115,1.35107-.13926,2.02509-.21329q8.98686-.99329,17.84157-2.42074.85766-.1379,1.71547-.28156,4.2512-.70224,8.47265-1.49777c.10225-.01927.20449-.037.30523-.05628q4.6-.8777,9.1541-1.87264c.28733-.06219.57329-.12879.85925-.191q4.20887-.92684,8.3836-1.9497c.25486-.06219.51109-.12288.76747-.18659q9.09768-2.24893,18.01633-4.95116c.191-.05779.38063-.11559.57026-.17339,105.35412-32.05469,191.10965-110.33623,234.62828-211.72877C1243.85174,406.08143,1112.6963,312.44444,960,312.44444c-152.68159,0-283.85189,93.637-341.33333,227.55859,37.22809,86.73478,105.37172,156.5555,190.243,194.99994h0a.15215.15215,0,0,1,.02215.01032,365.1695,365.1695,0,0,0,44.34815,16.71259c.20147.06083.40293.123.60439.18371q8.90676,2.69335,17.99858,4.94676c.25623.0622.51413.12288.77036.18659q4.17108,1.02219,8.3792,1.94818c.28748.06372.5748.129.86228.19251q4.55771.99125,9.15562,1.87264c.09618.01926.194.03565.29036.0534q4.22662.80212,8.48737,1.50065.85562.14222,1.71258.28156,8.85329,1.42222,17.84294,2.42074c.67265.074,1.34819.14214,2.02373.21329q3.68231.38663,7.3866.6992c.60151.05189,1.20013.10817,1.80148.15565q4.42687.3534,8.883.60151c.58376.03261,1.17191.05476,1.757.08434q3.65772.18456,7.33032.2978c.81495.02518,1.62975.05036,2.44743.06963,2.98675.07267,5.98229.12152,8.98678.12152,3.00586,0,5.99988-.04885,8.98814-.12152.81617-.01927,1.63112-.046,2.44592-.06963Q975.105,767.25109,978.75847,767.06661ZM770.37037,540c0-104.73335,84.89628-189.62963,189.62963-189.62963,104.7332,0,189.62963,84.89628,189.62963,189.62963a189.04129,189.04129,0,0,1-56.78816,135.30817,152.05075,152.05075,0,0,0-90.43558-72.40893,75.84922,75.84922,0,1,0-84.81481.00151,152.05645,152.05645,0,0,0-90.4327,72.40742A189.04116,189.04116,0,0,1,770.37037,540Z" style="fill:none;stroke:#0090c5;stroke-miterlimit:10;stroke-width:5px"/></g></svg>