<?xml version="1.0" encoding="UTF-8"?>
<svg width="942px" height="1080px" viewBox="0 0 942 1080" version="1.1" xmlns="http://www.w3.org/2000/svg" xmlns:xlink="http://www.w3.org/1999/xlink">
    <title>col-6-browser-mask</title>
    <defs>
        <path d="M942,0 L942,1080 L0,1080 L0,0 L942,0 Z M845.180574,84 L96.819426,84 C92.3618323,84 90.7454011,84.4641281 89.1157715,85.3356635 C87.4861419,86.207199 86.207199,87.4861419 85.3356635,89.1157715 C84.4641281,90.7454011 84,92.3618323 84,96.819426 L84,96.819426 L84,983.180574 C84,987.638168 84.4641281,989.254599 85.3356635,990.884229 C86.207199,992.513858 87.4861419,993.792801 89.1157715,994.664336 C90.7454011,995.535872 92.3618323,996 96.819426,996 L96.819426,996 L845.180574,996 C849.638168,996 851.254599,995.535872 852.884229,994.664336 C854.513858,993.792801 855.792801,992.513858 856.664336,990.884229 C857.535872,989.254599 858,987.638168 858,983.180574 L858,983.180574 L858,96.819426 C858,92.3618323 857.535872,90.7454011 856.664336,89.1157715 C855.792801,87.4861419 854.513858,86.207199 852.884229,85.3356635 C851.254599,84.4641281 849.638168,84 845.180574,84 L845.180574,84 Z" id="path-1"></path>
        <path d="M12.819426,9.45725538e-15 L761.180574,5.17920154e-16 C765.638168,-3.00926524e-16 767.254599,0.464128056 768.884229,1.33566352 C770.513858,2.20719898 771.792801,3.48614185 772.664336,5.11577148 C773.535872,6.74540111 774,8.3618323 774,12.819426 L774,899.180574 C774,903.638168 773.535872,905.254599 772.664336,906.884229 C771.792801,908.513858 770.513858,909.792801 768.884229,910.664336 C767.254599,911.535872 765.638168,912 761.180574,912 L12.819426,912 C8.3618323,912 6.74540111,911.535872 5.11577148,910.664336 C3.48614185,909.792801 2.20719898,908.513858 1.33566352,906.884229 C0.464128056,905.254599 1.25441118e-15,903.638168 -2.15894838e-15,899.180574 L3.45280103e-16,12.819426 C-2.00617683e-16,8.3618323 0.464128056,6.74540111 1.33566352,5.11577148 C2.20719898,3.48614185 3.48614185,2.20719898 5.11577148,1.33566352 C6.74540111,0.464128056 8.3618323,-5.49493772e-15 12.819426,9.45725538e-15 Z" id="path-3"></path>
        <filter x="-10.1%" y="-7.2%" width="120.2%" height="117.1%" filterUnits="objectBoundingBox" id="filter-4">
            <feOffset dx="0" dy="12" in="SourceAlpha" result="shadowOffsetOuter1"></feOffset>
            <feGaussianBlur stdDeviation="24" in="shadowOffsetOuter1" result="shadowBlurOuter1"></feGaussianBlur>
            <feColorMatrix values="0 0 0 0 0   0 0 0 0 0   0 0 0 0 0  0 0 0 0.323508523 0" type="matrix" in="shadowBlurOuter1"></feColorMatrix>
        </filter>
    </defs>
    <g id="col-6-browser-mask" stroke="none" stroke-width="1" fill="none" fill-rule="evenodd">
        <g id="window">
            <mask id="mask-2" fill="white">
                <use xlink:href="#path-1"></use>
            </mask>
            <use id="background" fill="#005698" xlink:href="#path-1"></use>
            <g id="browser" mask="url(#mask-2)">
                <g transform="translate(84.000000, 84.000000)" id="window-shape">
                    <use fill="black" fill-opacity="1" filter="url(#filter-4)" xlink:href="#path-3"></use>
                    <use fill="#D8D8D8" fill-rule="evenodd" xlink:href="#path-3"></use>
                </g>
            </g>
        </g>
        <g id="address-bar" transform="translate(84.000000, 84.000000)">
            <path d="M9.38923805,0.00127701135 L764.610762,0.00127701135 L764.610762,0.00127701135 L765.177597,0.0114646921 L765.177597,0.0114646921 L765.701427,0.0317674502 C765.785308,0.0359899574 765.867517,0.0406307695 765.948115,0.0456883082 L766.412839,0.081021632 C767.082354,0.141484816 767.631039,0.235447159 768.10266,0.361758056 L768.406137,0.450745072 C768.747995,0.560124903 769.049117,0.688918936 769.330096,0.8365858 L769.566483,0.967766689 C769.605219,0.990396281 769.643663,1.01340788 769.681877,1.0367999 L769.908867,1.18170449 L769.908867,1.18170449 L770.133196,1.33566352 L770.133196,1.33566352 C771.364967,2.20719898 772.331668,3.48614185 772.990426,5.11577148 L773.106798,5.41255776 L773.106798,5.41255776 L773.216325,5.71286564 C773.234006,5.76342223 773.2514,5.8142844 773.268504,5.86553159 L773.367659,6.1782703 C773.479274,6.55000497 773.576624,6.94838916 773.6593,7.40066627 L773.726562,7.80216604 C773.822035,8.42611934 773.893057,9.15202807 773.938759,10.0377944 L773.965466,10.6526232 C773.969289,10.7592536 773.972797,10.8680164 773.975988,10.978991 L773.991334,11.6720161 L773.991334,11.6720161 L774,12.4219377 C774,12.5518778 774,12.6843474 774,12.819426 L774,40 L0,40 L0,12.4219377 L0,12.4219377 L0.00866569501,11.6720161 L0.00866569501,11.6720161 L0.024011725,10.978991 C0.0272033467,10.8680164 0.030711148,10.7592536 0.0345339361,10.6526232 L0.0612409601,10.0377944 C0.106942624,9.15202807 0.177964943,8.42611934 0.273438218,7.80216604 L0.340699889,7.40066627 C0.423375659,6.94838916 0.520725836,6.55000497 0.63234122,6.1782703 L0.731495525,5.86553159 C0.748600314,5.8142844 0.765993844,5.76342223 0.783674922,5.71286564 L0.893202417,5.41255776 L0.893202417,5.41255776 L1.00957379,5.11577148 L1.00957379,5.11577148 C1.66833204,3.48614185 2.635033,2.20719898 3.86680384,1.33566352 L4.09113252,1.18170449 L4.09113252,1.18170449 L4.31812305,1.0367999 C4.35633672,1.01340788 4.39478137,0.990396281 4.43351704,0.967766689 L4.66990353,0.8365858 C4.95088266,0.688918936 5.25200509,0.560124903 5.59386298,0.450745072 L5.89734035,0.361758056 C6.36896129,0.235447159 6.91764621,0.141484816 7.58716097,0.081021632 L8.05188515,0.0456883082 C8.13248273,0.0406307695 8.2146921,0.0359899574 8.29857331,0.0317674502 L8.82240283,0.0114646921 L8.82240283,0.0114646921 L9.38923805,0.00127701135 L9.38923805,0.00127701135 Z" id="title-bar" fill="#FFFFFF"></path>
            <g id="window-address" transform="translate(150.408947, 8.000000)">
                <rect id="input-shape" fill-opacity="0.64" fill="#E6E6E6" x="0" y="0" width="475" height="24" rx="6"></rect>
                <g id="􀎡" transform="translate(171.000000, 4.000000)" fill="#6E6E6E">
                    <path d="M10.2095703,14.4282227 C10.6200521,14.4282227 10.9257975,14.3234863 11.1268066,14.1140137 C11.3278158,13.904541 11.4283203,13.5776367 11.4283203,13.1333008 L11.4283203,8.47412109 C11.4283203,8.03401693 11.3278158,7.70922852 11.1268066,7.49975586 C10.9832287,7.35013253 10.7862139,7.25394611 10.5357621,7.21119659 L10.419,7.197 L10.419043,5.59228516 C10.419043,4.99560547 10.3301758,4.47509766 10.1524414,4.03076172 C9.97470703,3.58642578 9.73349609,3.21720378 9.42880859,2.9230957 C9.12412109,2.62898763 8.77817383,2.40893555 8.3909668,2.26293945 C8.00375977,2.11694336 7.60279948,2.04394531 7.18808594,2.04394531 C6.7733724,2.04394531 6.37347005,2.11694336 5.98837891,2.26293945 C5.60328776,2.40893555 5.25839844,2.62898763 4.95371094,2.9230957 C4.64902344,3.21720378 4.40675456,3.58642578 4.2269043,4.03076172 C4.04705404,4.47509766 3.95712891,4.99560547 3.95712891,5.59228516 L3.957,7.226 L3.81553731,7.25537109 C3.62277583,7.30615234 3.4562686,7.39078776 3.31601563,7.50927734 C3.07057292,7.71663411 2.94785156,8.0382487 2.94785156,8.47412109 L2.94785156,13.1333008 C2.94785156,13.5776367 3.04941406,13.904541 3.25253906,14.1140137 C3.45566406,14.3234863 3.76035156,14.4282227 4.16660156,14.4282227 L10.2095703,14.4282227 Z M4.979,7.197 L4.97910156,5.45898438 C4.97910156,4.92578125 5.08066406,4.47827148 5.28378906,4.11645508 C5.48691406,3.75463867 5.75668945,3.48168945 6.09311523,3.29760742 C6.42954102,3.11352539 6.79453125,3.02148438 7.18808594,3.02148438 C7.5858724,3.02148438 7.95192057,3.11352539 8.28623047,3.29760742 C8.62054036,3.48168945 8.88925781,3.75463867 9.09238281,4.11645508 C9.29550781,4.47827148 9.39707031,4.92578125 9.39707031,5.45898438 L9.397,7.188 L4.979,7.197 Z" fill-rule="nonzero"></path>
                    <text id="domain" font-family="SFProDisplay-Semibold, SF Pro Display" font-size="13" font-weight="500" line-spacing="16">
                        <tspan x="18.5" y="12">visioncoach.care</tspan>
                    </text>
                </g>
            </g>
            <g id="Group">
                <rect id="Rectangle" x="0" y="0" width="96" height="40"></rect>
                <path d="M68,14 C71.3137085,14 74,16.6862915 74,20 C74,23.3137085 71.3137085,26 68,26 C64.6862915,26 62,23.3137085 62,20 C62,16.6862915 64.6862915,14 68,14 Z M48,14 C51.3137085,14 54,16.6862915 54,20 C54,23.3137085 51.3137085,26 48,26 C44.6862915,26 42,23.3137085 42,20 C42,16.6862915 44.6862915,14 48,14 Z M28,14 C31.3137085,14 34,16.6862915 34,20 C34,23.3137085 31.3137085,26 28,26 C24.6862915,26 22,23.3137085 22,20 C22,16.6862915 24.6862915,14 28,14 Z" id="buttons" fill="#909091"></path>
            </g>
        </g>
    </g>
</svg>