<svg xmlns="http://www.w3.org/2000/svg" viewBox="0 0 1920 1080"><defs><style>.cls-1{fill:#f4f4f4;}.cls-2,.cls-3,.cls-5{fill:none;stroke:#009639;stroke-miterlimit:10;}.cls-2,.cls-3{stroke-width:2px;}.cls-2{opacity:0.3;}.cls-3{opacity:0.6;}.cls-4{fill:#009639;opacity:0.2;}.cls-5{stroke-width:5px;}</style></defs><g id="Layer_4" data-name="Layer 4"><rect class="cls-1" width="1920" height="1080"/></g><g id="Layer_2" data-name="Layer 2"><line class="cls-2" x1="928.57" y1="208.12" x2="1291.88" y2="571.43"/><line class="cls-2" x1="855.26" y1="220.65" x2="1279.35" y2="644.74"/><line class="cls-2" x1="795.64" y1="246.88" x2="1253.12" y2="704.36"/><line class="cls-2" x1="744.79" y1="281.86" x2="1218.08" y2="755.16"/><line class="cls-2" x1="701.92" y1="324.84" x2="1174.6" y2="797.53"/><line class="cls-2" x1="666.88" y1="375.64" x2="1124.36" y2="833.12"/><line class="cls-2" x1="640.65" y1="435.26" x2="1064.74" y2="859.35"/><line class="cls-2" x1="628.12" y1="508.57" x2="991.43" y2="871.88"/><line class="cls-2" x1="1291.88" y1="508.57" x2="928.57" y2="871.88"/><line class="cls-2" x1="1279.35" y1="435.26" x2="855.26" y2="859.35"/><line class="cls-2" x1="1253.12" y1="375.64" x2="795.64" y2="833.12"/><line class="cls-2" x1="1217.52" y1="325.4" x2="745.4" y2="797.52"/><line class="cls-2" x1="1174.6" y1="282.48" x2="702.19" y2="754.89"/><line class="cls-2" x1="1124.36" y1="246.88" x2="666.88" y2="704.36"/><line class="cls-2" x1="1064.74" y1="220.65" x2="640.65" y2="644.74"/><line class="cls-2" x1="991.43" y1="208.12" x2="628.12" y2="571.43"/><line class="cls-2" x1="659.55" y1="625.84" x2="874.16" y2="840.45"/><line class="cls-2" x1="874.16" y1="239.56" x2="659.55" y2="454.16"/><line class="cls-2" x1="1260.45" y1="454.16" x2="1045.84" y2="239.56"/><line class="cls-2" x1="1044.71" y1="841.57" x2="1260.45" y2="625.84"/></g><g id="Layer_5" data-name="Layer 5"><path class="cls-3" d="M1045.84,840.45a121.4,121.4,0,1,1,0-171.69A121.41,121.41,0,0,1,1045.84,840.45Z"/><path class="cls-3" d="M1045.84,411.24a121.4,121.4,0,1,1,0-171.68A121.4,121.4,0,0,1,1045.84,411.24Z"/><circle class="cls-3" cx="1174.6" cy="540" r="121.4"/><circle class="cls-3" cx="745.4" cy="540" r="121.4"/><circle class="cls-3" cx="960" cy="540" r="336"/></g><g id="Layer_1_copy" data-name="Layer 1 copy"><path class="cls-4" d="M659.55,454.16a121.41,121.41,0,0,0,0,171.68l85.85,85.84L917.08,540l-85.84-85.84A121.4,121.4,0,0,0,659.55,454.16Z"/><path class="cls-4" d="M1260.45,454.16a121.4,121.4,0,0,0-171.69,0L1002.92,540,1174.6,711.68l85.85-85.84A121.41,121.41,0,0,0,1260.45,454.16Z"/><path class="cls-4" d="M1045.84,239.56a121.4,121.4,0,1,0,0,171.68A121.39,121.39,0,0,0,1045.84,239.56Z"/><path class="cls-4" d="M960,582.92,788.32,754.6l85.84,85.85a121.41,121.41,0,0,0,171.68,0l85.84-85.85-85.84-85.84Z"/></g><g id="Layer_1" data-name="Layer 1"><path class="cls-5" d="M659.55,454.16a121.41,121.41,0,0,0,0,171.68l85.85,85.84L917.08,540l-85.84-85.84A121.4,121.4,0,0,0,659.55,454.16Z"/><path class="cls-5" d="M1260.45,454.16a121.4,121.4,0,0,0-171.69,0L1002.92,540,1174.6,711.68l85.85-85.84A121.41,121.41,0,0,0,1260.45,454.16Z"/><path class="cls-5" d="M1045.84,239.56a121.4,121.4,0,1,0,0,171.68A121.39,121.39,0,0,0,1045.84,239.56Z"/><path class="cls-5" d="M960,582.92,788.32,754.6l85.84,85.85a121.41,121.41,0,0,0,171.68,0l85.84-85.85-85.84-85.84Z"/></g></svg>