<?xml version="1.0" encoding="UTF-8"?>
<svg width="1600px" height="900px" viewBox="0 0 1600 900" version="1.1" xmlns="http://www.w3.org/2000/svg" xmlns:xlink="http://www.w3.org/1999/xlink">
    <title>browser-mask</title>
    <defs>
        <path d="M1600,0 L1600,900 L0,900 L0,0 L1600,0 Z M1312,105 L288,105 L288,821.560999 L288.011465,822.311951 L288.031767,823.005928 C288.03599,823.117055 288.040631,823.225967 288.045688,823.332744 L288.045688,823.332744 L288.081022,823.948417 C288.141485,824.8354 288.235447,825.562306 288.361758,826.187117 L288.361758,826.187117 L288.450745,826.589168 C288.560125,827.042066 288.688919,827.440998 288.836586,827.813243 L288.836586,827.813243 L288.967767,828.126411 C288.990396,828.177729 289.013408,828.228661 289.0368,828.279287 L289.0368,828.279287 L289.181704,828.580007 L289.335664,828.877201 C290.207199,830.509069 291.486142,831.789769 293.115771,832.662502 L293.115771,832.662502 L293.412558,832.816672 L293.712866,832.961776 C293.763422,832.9852 293.814284,833.008243 293.865532,833.030904 L293.865532,833.030904 L294.17827,833.162265 C294.550005,833.310135 294.948389,833.439106 295.400666,833.548636 L295.400666,833.548636 L295.802166,833.637745 C296.426119,833.764229 297.152028,833.858321 298.037794,833.918867 L298.037794,833.918867 L298.652623,833.954249 C298.759254,833.959313 298.868016,833.963961 298.978991,833.968189 L298.978991,833.968189 L299.672016,833.98852 C299.792156,833.991066 299.914666,834 300.039627,834 L300.039627,834 L1299.57806,834 L1300.32798,833.98852 L1301.02101,833.968189 C1301.13198,833.963961 1301.24075,833.959313 1301.34738,833.954249 L1301.34738,833.954249 L1301.96221,833.918867 C1302.84797,833.858321 1303.57388,833.764229 1304.19783,833.637745 L1304.19783,833.637745 L1304.59933,833.548636 C1305.05161,833.439106 1305.45,833.310135 1305.82173,833.162265 L1305.82173,833.162265 L1306.13447,833.030904 C1306.18572,833.008243 1306.23658,832.9852 1306.28713,832.961776 L1306.28713,832.961776 L1306.58744,832.816672 L1306.88423,832.662502 C1308.51386,831.789769 1309.7928,830.509069 1310.66434,828.877201 L1310.66434,828.877201 L1310.8183,828.580007 L1310.9632,828.279287 C1310.98659,828.228661 1311.0096,828.177729 1311.03223,828.126411 L1311.03223,828.126411 L1311.16341,827.813243 C1311.31108,827.440998 1311.43988,827.042066 1311.54925,826.589168 L1311.54925,826.589168 L1311.63824,826.187117 C1311.76455,825.562306 1311.85852,824.8354 1311.91898,823.948417 L1311.91898,823.948417 L1311.95431,823.332744 C1311.95937,823.225967 1311.96401,823.117055 1311.96823,823.005928 L1311.96823,823.005928 L1311.98854,822.311951 C1312,822.191646 1312,822.068968 1312,821.943835 L1312,821.943835 L1312,105 Z" id="path-1"></path>
        <path d="M12.819426,6.73675296e-15 L1011.18057,5.17920154e-16 C1015.63817,-3.00926524e-16 1017.2546,0.464128056 1018.88423,1.33566352 C1020.51386,2.20719898 1021.7928,3.48614185 1022.66434,5.11577148 C1023.53587,6.74540111 1024,8.3618323 1024,12.819426 L1024,755.180574 C1024,759.638168 1023.53587,761.254599 1022.66434,762.884229 C1021.7928,764.513858 1020.51386,765.792801 1018.88423,766.664336 C1017.2546,767.535872 1015.63817,768 1011.18057,768 L12.819426,768 C8.3618323,768 6.74540111,767.535872 5.11577148,766.664336 C3.48614185,765.792801 2.20719898,764.513858 1.33566352,762.884229 C0.464128056,761.254599 2.00617683e-16,759.638168 -3.45280103e-16,755.180574 L3.45280103e-16,12.819426 C-2.00617683e-16,8.3618323 0.464128056,6.74540111 1.33566352,5.11577148 C2.20719898,3.48614185 3.48614185,2.20719898 5.11577148,1.33566352 C6.74540111,0.464128056 8.3618323,-3.91424747e-15 12.819426,6.73675296e-15 Z" id="path-3"></path>
        <filter x="-7.6%" y="-8.6%" width="115.2%" height="120.3%" filterUnits="objectBoundingBox" id="filter-5">
            <feOffset dx="0" dy="12" in="SourceAlpha" result="shadowOffsetOuter1"></feOffset>
            <feGaussianBlur stdDeviation="24" in="shadowOffsetOuter1" result="shadowBlurOuter1"></feGaussianBlur>
            <feColorMatrix values="0 0 0 0 0   0 0 0 0 0   0 0 0 0 0  0 0 0 0.323508523 0" type="matrix" in="shadowBlurOuter1"></feColorMatrix>
        </filter>
    </defs>
    <g id="browser-mask" stroke="none" stroke-width="1" fill="none" fill-rule="evenodd">
        <g id="window">
            <mask id="mask-2" fill="white">
                <use xlink:href="#path-1"></use>
            </mask>
            <use id="background" fill="#009639" xlink:href="#path-1"></use>
            <g id="browser" mask="url(#mask-2)">
                <g transform="translate(288.000000, 66.000000)">
                    <mask id="mask-4" fill="white">
                        <use xlink:href="#path-3"></use>
                    </mask>
                    <g id="window-shape" stroke="none" fill="none" fill-opacity="1">
                        <use fill="black" filter="url(#filter-5)" xlink:href="#path-3"></use>
                    </g>
                </g>
            </g>
        </g>
        <g id="Group" transform="translate(288.000000, 66.000000)">
            <path d="M12.4219377,0.00127701135 L1011.57806,0.00127701135 L1011.57806,0.00127701135 L1012.32798,0.0114646921 L1012.32798,0.0114646921 L1013.02101,0.0317674502 C1013.13198,0.0359899574 1013.24075,0.0406307695 1013.34738,0.0456883082 L1013.96221,0.081021632 C1014.84797,0.141484816 1015.57388,0.235447159 1016.19783,0.361758056 L1016.59933,0.450745072 C1017.05161,0.560124903 1017.45,0.688918936 1017.82173,0.8365858 L1018.13447,0.967766689 C1018.18572,0.990396281 1018.23658,1.01340788 1018.28713,1.0367999 L1018.58744,1.18170449 L1018.58744,1.18170449 L1018.88423,1.33566352 L1018.88423,1.33566352 C1020.51386,2.20719898 1021.7928,3.48614185 1022.66434,5.11577148 L1022.8183,5.41255776 L1022.8183,5.41255776 L1022.9632,5.71286564 C1022.98659,5.76342223 1023.0096,5.8142844 1023.03223,5.86553159 L1023.16341,6.1782703 C1023.31108,6.55000497 1023.43988,6.94838916 1023.54925,7.40066627 L1023.63824,7.80216604 C1023.76455,8.42611934 1023.85852,9.15202807 1023.91898,10.0377944 L1023.95431,10.6526232 C1023.95937,10.7592536 1023.96401,10.8680164 1023.96823,10.978991 L1023.98854,11.6720161 L1023.98854,11.6720161 L1024,12.4219377 C1024,12.5518778 1024,12.6843474 1024,12.819426 L1024,40 L0,40 L0,12.4219377 L0,12.4219377 L0.0114646921,11.6720161 L0.0114646921,11.6720161 L0.0317674502,10.978991 C0.0359899574,10.8680164 0.0406307695,10.7592536 0.0456883082,10.6526232 L0.081021632,10.0377944 C0.141484816,9.15202807 0.235447159,8.42611934 0.361758056,7.80216604 L0.450745072,7.40066627 C0.560124903,6.94838916 0.688918936,6.55000497 0.8365858,6.1782703 L0.967766689,5.86553159 C0.990396281,5.8142844 1.01340788,5.76342223 1.0367999,5.71286564 L1.18170449,5.41255776 L1.18170449,5.41255776 L1.33566352,5.11577148 L1.33566352,5.11577148 C2.20719898,3.48614185 3.48614185,2.20719898 5.11577148,1.33566352 L5.41255776,1.18170449 L5.41255776,1.18170449 L5.71286564,1.0367999 C5.76342223,1.01340788 5.8142844,0.990396281 5.86553159,0.967766689 L6.1782703,0.8365858 C6.55000497,0.688918936 6.94838916,0.560124903 7.40066627,0.450745072 L7.80216604,0.361758056 C8.42611934,0.235447159 9.15202807,0.141484816 10.0377944,0.081021632 L10.6526232,0.0456883082 C10.7592536,0.0406307695 10.8680164,0.0359899574 10.978991,0.0317674502 L11.6720161,0.0114646921 L11.6720161,0.0114646921 L12.4219377,0.00127701135 L12.4219377,0.00127701135 Z" id="title-bar" fill="#FFFFFF"></path>
            <g transform="translate(293.243636, 8.000000)">
                <rect id="input-shape" fill-opacity="0.64" fill="#E6E6E6" x="0" y="0" width="440" height="24" rx="6"></rect>
                <g transform="translate(171.000000, 4.000000)" fill="#6E6E6E">
                    <path d="M10.2095703,14.4282227 C10.6200521,14.4282227 10.9257975,14.3234863 11.1268066,14.1140137 C11.3278158,13.904541 11.4283203,13.5776367 11.4283203,13.1333008 L11.4283203,8.47412109 C11.4283203,8.03401693 11.3278158,7.70922852 11.1268066,7.49975586 C10.9832287,7.35013253 10.7862139,7.25394611 10.5357621,7.21119659 L10.419,7.197 L10.419043,5.59228516 C10.419043,4.99560547 10.3301758,4.47509766 10.1524414,4.03076172 C9.97470703,3.58642578 9.73349609,3.21720378 9.42880859,2.9230957 C9.12412109,2.62898763 8.77817383,2.40893555 8.3909668,2.26293945 C8.00375977,2.11694336 7.60279948,2.04394531 7.18808594,2.04394531 C6.7733724,2.04394531 6.37347005,2.11694336 5.98837891,2.26293945 C5.60328776,2.40893555 5.25839844,2.62898763 4.95371094,2.9230957 C4.64902344,3.21720378 4.40675456,3.58642578 4.2269043,4.03076172 C4.04705404,4.47509766 3.95712891,4.99560547 3.95712891,5.59228516 L3.957,7.226 L3.81553731,7.25537109 C3.62277583,7.30615234 3.4562686,7.39078776 3.31601562,7.50927734 C3.07057292,7.71663411 2.94785156,8.0382487 2.94785156,8.47412109 L2.94785156,13.1333008 C2.94785156,13.5776367 3.04941406,13.904541 3.25253906,14.1140137 C3.45566406,14.3234863 3.76035156,14.4282227 4.16660156,14.4282227 L10.2095703,14.4282227 Z M4.979,7.197 L4.97910156,5.45898438 C4.97910156,4.92578125 5.08066406,4.47827148 5.28378906,4.11645508 C5.48691406,3.75463867 5.75668945,3.48168945 6.09311523,3.29760742 C6.42954102,3.11352539 6.79453125,3.02148438 7.18808594,3.02148438 C7.5858724,3.02148438 7.95192057,3.11352539 8.28623047,3.29760742 C8.62054036,3.48168945 8.88925781,3.75463867 9.09238281,4.11645508 C9.29550781,4.47827148 9.39707031,4.92578125 9.39707031,5.45898438 L9.397,7.188 L4.979,7.197 Z" id="􀎡" fill-rule="nonzero"></path>
                    <text id="domain" font-family="SFProDisplay-Semibold, SF Pro Display" font-size="13" font-weight="500" line-spacing="16">
                        <tspan x="18.5" y="12">sps.nhs.uk</tspan>
                    </text>
                </g>
            </g>
            <g>
                <rect id="Rectangle" x="0" y="0" width="96" height="40"></rect>
                <path d="M68,14 C71.3137085,14 74,16.6862915 74,20 C74,23.3137085 71.3137085,26 68,26 C64.6862915,26 62,23.3137085 62,20 C62,16.6862915 64.6862915,14 68,14 Z M48,14 C51.3137085,14 54,16.6862915 54,20 C54,23.3137085 51.3137085,26 48,26 C44.6862915,26 42,23.3137085 42,20 C42,16.6862915 44.6862915,14 48,14 Z M28,14 C31.3137085,14 34,16.6862915 34,20 C34,23.3137085 31.3137085,26 28,26 C24.6862915,26 22,23.3137085 22,20 C22,16.6862915 24.6862915,14 28,14 Z" id="buttons" fill="#909091"></path>
            </g>
        </g>
    </g>
</svg>