<?xml version="1.0" encoding="UTF-8"?>
<svg width="942px" height="1080px" viewBox="0 0 942 1080" version="1.1" xmlns="http://www.w3.org/2000/svg" xmlns:xlink="http://www.w3.org/1999/xlink">
    <title>sps-col-6-icons</title>
    <g id="sps-col-6-icons" stroke="none" stroke-width="1" fill="none" fill-rule="evenodd">
        <rect fill="#F4F4F4" x="0" y="0" width="942" height="1080"></rect>
        <g id="icons" transform="translate(135.000000, 204.497450)">
            <g id="Group-2" transform="translate(-0.000000, 537.600000)">
                <path d="M134.40168,67.2 C134.40168,104.31456 104.31624,134.39664 67.20168,134.39664 C30.08712,134.39496 0.00168,104.31456 0,67.2 C0,30.08544 30.08544,0 67.20168,0 C104.31792,0 134.40168,30.08712 134.40168,67.2" id="Fill-1" fill="#005EB8"></path>
                <path d="M105.164304,38.351712 L60.0239325,83.4934714 L43.3912082,66.8623198 C40.766987,64.237236 36.5121121,64.2374881 33.888204,66.863076 C31.264044,69.485556 31.264044,73.740996 33.8877,76.365828 L56.5389384,99.0156104 L60.023124,102.500412 L105.165166,57.3597579 L112.292964,64.487556 L60.023124,116.755716 L26.8601389,83.5927309 C26.8267558,83.5598989 26.7934758,83.5268993 26.7603,83.493732 C20.1999,76.933332 20.1999,66.295572 26.7603,59.733492 L64.77366,21.720132 L64.773744,21.720216 C71.3358308,15.1599 81.973528,15.159928 88.5339,21.7203 L105.164304,38.351712 Z" id="Combined-Shape" fill="#FFFFFF"></path>
            </g>
            <g id="Group-3" transform="translate(537.600000, 0.000000)">
                <path d="M134.4,67.2 C134.4,104.31456 104.31372,134.4 67.2,134.4 C30.08628,134.4 0,104.31456 0,67.2 C0,30.08628 30.08628,0 67.2,0 C104.31372,0 134.4,30.08628 134.4,67.2" id="Fill-1" fill="#005EB8"></path>
                <path d="M127.68,67.2 C127.68,100.6026 100.6026,127.68 67.2,127.68 C33.7974,127.68 6.72,100.6026 6.72,67.2 C6.72,33.7974 33.7974,6.72 67.2,6.72 C100.6026,6.72 127.68,33.7974 127.68,67.2" id="Fill-4" fill="#FFFFFF"></path>
                <polygon id="Stroke-6" fill="#005EB8" fill-rule="nonzero" points="106.128242 18.7682424 115.631758 28.2717576 28.2717576 115.631758 18.7682424 106.128242"></polygon>
                <path d="M43.85556,22.963836 C41.15076,20.701716 37.1238,21.057876 34.86084,23.761836 L21.74676,39.428676 C19.48296,42.130116 19.83996,46.157916 22.54308,48.423396 C23.89548,49.554036 25.57884,50.030316 27.20676,49.886676 C28.83384,49.742196 30.40632,48.976956 31.53864,47.624556 L44.65272,31.958556 C46.91652,29.256276 46.55868,25.228476 43.85556,22.963836" id="Fill-8" fill="#005EB8"></path>
                <path d="M89.692176,24.740604 C90.486816,21.305004 88.347336,17.875284 84.912576,17.079804 L65.008776,12.468204 C61.574856,11.670204 58.143456,13.810524 57.346296,17.245284 C56.949816,18.963084 57.285816,20.680044 58.151016,22.066884 C59.015376,23.453724 60.408936,24.510444 62.126736,24.906924 L82.029696,29.519364 C85.463616,30.316524 88.894176,28.176204 89.692176,24.740604" id="Fill-10" fill="#005EB8"></path>
                <path d="M76.252176,117.560604 C77.046816,114.125004 74.907336,110.695284 71.472576,109.899804 L51.568776,105.288204 C48.134856,104.490204 44.703456,106.630524 43.906296,110.065284 C43.509816,111.783084 43.845816,113.500044 44.711016,114.886884 C45.575376,116.273724 46.968936,117.330444 48.686736,117.726924 L68.589696,122.339364 C72.023616,123.136524 75.454176,120.996204 76.252176,117.560604" id="Fill-12" fill="#005EB8"></path>
                <path d="M70.819224,39.906552 C69.382824,36.685992 65.608704,35.238672 62.388144,36.674232 L43.726704,44.991912 C40.506144,46.426632 39.058824,50.201592 40.492704,53.422992 C41.211744,55.033272 42.514584,56.200032 44.040864,56.785512 C45.567144,57.370152 47.316024,57.373512 48.925464,56.654472 L67.586064,48.338472 C70.805784,46.903752 72.253944,43.127952 70.819224,39.906552" id="Fill-14" fill="#005EB8"></path>
                <path d="M121.924656,58.576812 C121.242576,55.116852 117.884256,52.864812 114.425136,53.546892 L94.380216,57.494892 C90.921096,58.174452 88.668216,61.533612 89.347776,64.992732 C89.689656,66.722292 90.699336,68.150292 92.056776,69.060852 C93.414216,69.971412 95.117736,70.364532 96.847296,70.023492 L116.893056,66.075492 C120.351336,65.395092 122.605056,62.036772 121.924656,58.576812" id="Fill-16" fill="#005EB8"></path>
                <path d="M92.659224,83.166552 C91.222824,79.945992 87.448704,78.498672 84.228144,79.934232 L65.566704,88.251912 C62.346144,89.686632 60.898824,93.461592 62.332704,96.682992 C63.051744,98.293272 64.354584,99.460032 65.880864,100.045512 C67.407144,100.630152 69.156024,100.633512 70.765464,99.914472 L89.426064,91.598472 C92.645784,90.163752 94.093944,86.387952 92.659224,83.166552" id="Fill-18" fill="#005EB8"></path>
                <path d="M20.805624,89.448492 C24.163104,90.525372 27.758304,88.677372 28.836864,85.320732 L35.080584,65.867172 C36.158304,62.511372 34.310304,58.914492 30.953664,57.835092 C29.274504,57.297492 27.535704,57.490692 26.081664,58.238292 C24.629304,58.984212 23.460024,60.285372 22.922424,61.964532 L16.677024,81.417252 C15.600144,84.773892 17.448144,88.369932 20.805624,89.448492" id="Fill-20" fill="#005EB8"></path>
                <path d="M99.345624,107.088492 C102.703104,108.165372 106.298304,106.317372 107.376864,102.960732 L113.620584,83.507172 C114.698304,80.151372 112.850304,76.554492 109.493664,75.475092 C107.814504,74.937492 106.075704,75.130692 104.621664,75.877452 C103.169304,76.624212 102.000024,77.925372 101.462424,79.604532 L95.217024,99.057252 C94.140144,102.413892 95.988144,106.009932 99.345624,107.088492" id="Fill-22" fill="#005EB8"></path>
            </g>
            <g id="Group" transform="translate(267.120000, 268.800000)">
                <path d="M134.40168,67.2 C134.40168,104.31456 104.31624,134.39664 67.20168,134.39664 C30.08712,134.39496 0.00168,104.31456 -1.79056769e-14,67.2 C-1.79056769e-14,30.08544 30.08544,0 67.20168,0 C104.31792,0 134.40168,30.08712 134.40168,67.2" id="Fill-1" fill="#005EB8"></path>
                <path d="M67.2,21.28 C77.5229128,21.28 85.9293092,29.4987071 86.2315838,39.7485159 L86.24,40.32 L86.24,94.08 C86.24,104.594078 77.7140778,113.12 67.2,113.12 C56.8770872,113.12 48.4706908,104.901293 48.1684162,94.6514841 L48.16,94.08 L48.16,40.32 C48.16,29.8059222 56.6859222,21.28 67.2,21.28 Z M73.92,91.84 L67.2,91.84 L66.9387687,91.8550701 C65.82473,91.984464 64.96,92.9312477 64.96,94.08 C64.96,95.2287523 65.82473,96.175536 66.9387687,96.3049299 L67.2,96.32 L73.92,96.32 L74.1812313,96.3049299 C75.29527,96.175536 76.16,95.2287523 76.16,94.08 C76.16,92.8428822 75.1571178,91.84 73.92,91.84 Z M67.2,25.76 C59.334937,25.76 52.9242033,31.9997541 52.6491927,39.7978684 L52.64,40.32 L52.64,87.36 L81.76,87.36 L81.76,40.32 C81.76,32.454937 75.5202459,26.0442033 67.7221316,25.7691927 L67.2,25.76 Z M73.92,78.4 C75.1571178,78.4 76.16,79.4028822 76.16,80.64 C76.16,81.7887523 75.29527,82.735536 74.1812313,82.8649299 L73.92,82.88 L67.2,82.88 C65.9628822,82.88 64.96,81.8771178 64.96,80.64 C64.96,79.4912477 65.82473,78.544464 66.9387687,78.4150701 L67.2,78.4 L73.92,78.4 Z M73.92,64.96 C75.1571178,64.96 76.16,65.9628822 76.16,67.2 C76.16,68.3487523 75.29527,69.295536 74.1812313,69.4249299 L73.92,69.44 L67.2,69.44 C65.9628822,69.44 64.96,68.4371178 64.96,67.2 C64.96,66.0512477 65.82473,65.104464 66.9387687,64.9750701 L67.2,64.96 L73.92,64.96 Z M73.92,51.52 C75.1571178,51.52 76.16,52.5228822 76.16,53.76 C76.16,54.9087523 75.29527,55.855536 74.1812313,55.9849299 L73.92,56 L67.2,56 C65.9628822,56 64.96,54.9971178 64.96,53.76 C64.96,52.6112477 65.82473,51.664464 66.9387687,51.5350701 L67.2,51.52 L73.92,51.52 Z M73.92,38.08 C75.1571178,38.08 76.16,39.0828822 76.16,40.32 C76.16,41.4687523 75.29527,42.415536 74.1812313,42.5449299 L73.92,42.56 L67.2,42.56 C65.9628822,42.56 64.96,41.5571178 64.96,40.32 C64.96,39.1712477 65.82473,38.224464 66.9387687,38.0950701 L67.2,38.08 L73.92,38.08 Z" id="Shape" fill="#FFFFFF" fill-rule="nonzero"></path>
            </g>
            <g id="Group" transform="translate(535.920000, 268.800000)">
                <path d="M134.40168,67.2 C134.40168,104.31456 104.31624,134.39664 67.20168,134.39664 C30.08712,134.39496 0.00168,104.31456 0,67.2 C0,30.08544 30.08544,0 67.20168,0 C104.31792,0 134.40168,30.08712 134.40168,67.2" id="Fill-1" fill="#005EB8"></path>
                <path d="M30.24,67.2 C30.24,87.612 46.788,104.16 67.2,104.16 C87.612,104.16 104.16,87.612 104.16,67.2 C104.16,46.788 87.612,30.24 67.2,30.24 C46.788,30.24 30.24,46.788 30.24,67.2" id="Fill-5" fill="#FFFFFF"></path>
                <path d="M77.28,67.2 C77.28,72.76584 72.76584,77.28 67.2,77.28 C61.63416,77.28 57.12,72.76584 57.12,67.2 C57.12,61.63416 61.63416,57.12 67.2,57.12 C72.76584,57.12 77.28,61.63416 77.28,67.2" id="Fill-7" fill="#005EB8"></path>
                <path d="M55.561464,77.28 C61.127304,77.28 65.641464,81.79416 65.641464,87.36 C65.641464,92.92584 61.127304,97.44 55.561464,97.44 C49.993944,97.44 45.481464,92.92584 45.481464,87.36 C45.481464,81.79416 49.993944,77.28 55.561464,77.28 Z M78.838536,77.28 C84.406056,77.28 88.918536,81.79416 88.918536,87.36 C88.918536,92.92584 84.406056,97.44 78.838536,97.44 C73.272696,97.44 68.758536,92.92584 68.758536,87.36 C68.758536,81.79416 73.272696,77.28 78.838536,77.28 Z M90.478752,57.12 C96.044592,57.12 100.558752,61.63416 100.558752,67.2 C100.558752,72.76584 96.044592,77.28 90.478752,77.28 C84.912912,77.28 80.398752,72.76584 80.398752,67.2 C80.398752,61.63416 84.912912,57.12 90.478752,57.12 Z M43.921248,57.12 C49.487088,57.12 54.001248,61.63416 54.001248,67.2 C54.001248,72.76584 49.487088,77.28 43.921248,77.28 C38.355408,77.28 33.841248,72.76584 33.841248,67.2 C33.841248,61.63416 38.355408,57.12 43.921248,57.12 Z M55.561464,36.96 C61.127304,36.96 65.641464,41.47416 65.641464,47.04 C65.641464,52.60584 61.127304,57.12 55.561464,57.12 C49.993944,57.12 45.481464,52.60584 45.481464,47.04 C45.481464,41.47416 49.993944,36.96 55.561464,36.96 Z M78.838536,36.96 C84.406056,36.96 88.918536,41.47416 88.918536,47.04 C88.918536,52.60584 84.406056,57.12 78.838536,57.12 C73.272696,57.12 68.758536,52.60584 68.758536,47.04 C68.758536,41.47416 73.272696,36.96 78.838536,36.96 Z" id="Combined-Shape" fill="#005EB8"></path>
                <path d="M67.2,55.44 C60.7063216,55.44 55.44,60.7063216 55.44,67.2 C55.44,73.6936784 60.7063216,78.96 67.2,78.96 C73.6936784,78.96 78.96,73.6936784 78.96,67.2 C78.96,60.7063216 73.6936784,55.44 67.2,55.44 Z M67.2,58.8 C71.8380016,58.8 75.6,62.5619984 75.6,67.2 C75.6,71.8380016 71.8380016,75.6 67.2,75.6 C62.5619984,75.6 58.8,71.8380016 58.8,67.2 C58.8,62.5619984 62.5619984,58.8 67.2,58.8 Z" id="Stroke-9" fill="#FFFFFF" fill-rule="nonzero"></path>
                <path d="M90.478752,55.44 C83.9850736,55.44 78.718752,60.7063216 78.718752,67.2 C78.718752,73.6936784 83.9850736,78.96 90.478752,78.96 C96.9724304,78.96 102.238752,73.6936784 102.238752,67.2 C102.238752,60.7063216 96.9724304,55.44 90.478752,55.44 Z M90.478752,58.8 C95.1167536,58.8 98.878752,62.5619984 98.878752,67.2 C98.878752,71.8380016 95.1167536,75.6 90.478752,75.6 C85.8407504,75.6 82.078752,71.8380016 82.078752,67.2 C82.078752,62.5619984 85.8407504,58.8 90.478752,58.8 Z" id="Stroke-13" fill="#FFFFFF" fill-rule="nonzero"></path>
                <path d="M43.921248,55.44 C37.4275696,55.44 32.161248,60.7063216 32.161248,67.2 C32.161248,73.6936784 37.4275696,78.96 43.921248,78.96 C50.4149264,78.96 55.681248,73.6936784 55.681248,67.2 C55.681248,60.7063216 50.4149264,55.44 43.921248,55.44 Z M43.921248,58.8 C48.5592496,58.8 52.321248,62.5619984 52.321248,67.2 C52.321248,71.8380016 48.5592496,75.6 43.921248,75.6 C39.2832464,75.6 35.521248,71.8380016 35.521248,67.2 C35.521248,62.5619984 39.2832464,58.8 43.921248,58.8 Z" id="Stroke-17" fill="#FFFFFF" fill-rule="nonzero"></path>
                <path d="M55.561464,35.28 C49.0666425,35.28 43.801464,40.5457847 43.801464,47.04 C43.801464,53.5342153 49.0666425,58.8 55.561464,58.8 C62.0551424,58.8 67.321464,53.5336784 67.321464,47.04 C67.321464,40.5463216 62.0551424,35.28 55.561464,35.28 Z M55.561464,38.64 C60.1994656,38.64 63.961464,42.4019984 63.961464,47.04 C63.961464,51.6780016 60.1994656,55.44 55.561464,55.44 C50.9224059,55.44 47.161464,51.6786252 47.161464,47.04 C47.161464,42.4013748 50.9224059,38.64 55.561464,38.64 Z" id="Stroke-21" fill="#FFFFFF" fill-rule="nonzero"></path>
                <path d="M78.838536,35.28 C72.3448576,35.28 67.078536,40.5463216 67.078536,47.04 C67.078536,53.5336784 72.3448576,58.8 78.838536,58.8 C85.3333575,58.8 90.598536,53.5342153 90.598536,47.04 C90.598536,40.5457847 85.3333575,35.28 78.838536,35.28 Z M78.838536,38.64 C83.4775941,38.64 87.238536,42.4013748 87.238536,47.04 C87.238536,51.6786252 83.4775941,55.44 78.838536,55.44 C74.2005344,55.44 70.438536,51.6780016 70.438536,47.04 C70.438536,42.4019984 74.2005344,38.64 78.838536,38.64 Z" id="Stroke-25" fill="#FFFFFF" fill-rule="nonzero"></path>
                <path d="M55.561464,75.6 C49.0666425,75.6 43.801464,80.8657847 43.801464,87.36 C43.801464,93.8542153 49.0666425,99.12 55.561464,99.12 C62.0551424,99.12 67.321464,93.8536784 67.321464,87.36 C67.321464,80.8663216 62.0551424,75.6 55.561464,75.6 Z M55.561464,78.96 C60.1994656,78.96 63.961464,82.7219984 63.961464,87.36 C63.961464,91.9980016 60.1994656,95.76 55.561464,95.76 C50.9224059,95.76 47.161464,91.9986252 47.161464,87.36 C47.161464,82.7213748 50.9224059,78.96 55.561464,78.96 Z" id="Stroke-29" fill="#FFFFFF" fill-rule="nonzero"></path>
                <path d="M78.838536,75.6 C72.3448576,75.6 67.078536,80.8663216 67.078536,87.36 C67.078536,93.8536784 72.3448576,99.12 78.838536,99.12 C85.3333575,99.12 90.598536,93.8542153 90.598536,87.36 C90.598536,80.8657847 85.3333575,75.6 78.838536,75.6 Z M78.838536,78.96 C83.4775941,78.96 87.238536,82.7213748 87.238536,87.36 C87.238536,91.9986252 83.4775941,95.76 78.838536,95.76 C74.2005344,95.76 70.438536,91.9980016 70.438536,87.36 C70.438536,82.7219984 74.2005344,78.96 78.838536,78.96 Z" id="Stroke-33" fill="#FFFFFF" fill-rule="nonzero"></path>
                <path d="M70.56,99.12 L70.559,114.239 L77.28,114.24 C79.1356768,114.24 80.64,115.744323 80.64,117.6 C80.64,119.371328 79.2693253,120.822517 77.5307607,120.950784 L77.28,120.96 L57.12,120.96 C55.2643232,120.96 53.76,119.455677 53.76,117.6 C53.76,115.828672 55.1306747,114.377483 56.8692393,114.249216 L57.12,114.24 L63.839,114.239 L63.84,99.12 L70.56,99.12 Z M42.2534892,87.3947532 L47.0052468,92.1465108 L36.313,102.838 L41.0651028,107.590369 C42.3772644,108.902531 42.3772644,111.029965 41.0651028,112.342127 C39.8220023,113.585227 37.8471889,113.650654 36.527066,112.538406 L36.3133452,112.342127 L22.0585452,98.0873268 C20.7463836,96.7751652 20.7463836,94.6477308 22.0585452,93.3355692 C23.3016457,92.0924687 25.2764591,92.0270424 26.596582,93.1392902 L26.8103028,93.3355692 L31.561,98.086 L42.2534892,87.3947532 Z M92.1465108,87.3947532 L102.838,98.086 L107.590369,93.3348972 C108.902531,92.0227356 111.029965,92.0227356 112.342127,93.3348972 C113.585227,94.5779977 113.650654,96.5528111 112.538406,97.872934 L112.342127,98.0866548 L98.0873268,112.341455 C96.7751652,113.653616 94.6477308,113.653616 93.3355692,112.341455 C92.0924687,111.098354 92.0270424,109.123541 93.1392902,107.803418 L93.3355692,107.589697 L98.086,102.838 L87.3947532,92.1465108 L92.1465108,87.3947532 Z M117.6,53.76 C119.371328,53.76 120.822517,55.1306747 120.950784,56.8692393 L120.96,57.12 L120.96,77.28 C120.96,79.1356768 119.455677,80.64 117.6,80.64 C115.828672,80.64 114.377483,79.2693253 114.249216,77.5307607 L114.24,77.28 L114.239,70.559 L99.12,70.56 L99.12,63.84 L114.239,63.839 L114.24,57.12 C114.24,55.2643232 115.744323,53.76 117.6,53.76 Z M16.8,53.76 C18.5713278,53.76 20.0225174,55.1306747 20.150784,56.8692393 L20.16,57.12 L20.159,63.839 L35.28,63.84 L35.28,70.56 L20.159,70.559 L20.16,77.28 C20.16,79.1356768 18.6556768,80.64 16.8,80.64 C15.0286722,80.64 13.5774826,79.2693253 13.449216,77.5307607 L13.44,77.28 L13.44,57.12 C13.44,55.2643232 14.9443232,53.76 16.8,53.76 Z M41.0644308,22.0585452 C42.3075313,23.3016457 42.3729576,25.2764591 41.2607098,26.596582 L41.0644308,26.8103028 L36.313,31.561 L47.0052468,42.2534892 L42.2534892,47.0052468 L31.561,36.313 L26.8096308,41.0651028 C25.4974692,42.3772644 23.3700348,42.3772644 22.0578732,41.0651028 C20.8147727,39.8220023 20.7493464,37.8471889 21.8615942,36.527066 L22.0578732,36.3133452 L36.3126732,22.0585452 C37.6248348,20.7463836 39.7522692,20.7463836 41.0644308,22.0585452 Z M97.872934,21.8615942 L98.0866548,22.0578732 L112.341455,36.3126732 C113.653616,37.6248348 113.653616,39.7522692 112.341455,41.0644308 C111.098354,42.3075313 109.123541,42.3729576 107.803418,41.2607098 L107.589697,41.0644308 L102.838,36.313 L92.1465108,47.0052468 L87.3947532,42.2534892 L98.086,31.561 L93.3348972,26.8096308 C92.0227356,25.4974692 92.0227356,23.3700348 93.3348972,22.0578732 C94.5779977,20.8147727 96.5528111,20.7493464 97.872934,21.8615942 Z M77.28,13.44 C79.1356768,13.44 80.64,14.9443232 80.64,16.8 C80.64,18.5713278 79.2693253,20.0225174 77.5307607,20.150784 L77.28,20.16 L70.559,20.159 L70.56,35.28 L63.84,35.28 L63.839,20.159 L57.12,20.16 C55.2643232,20.16 53.76,18.6556768 53.76,16.8 C53.76,15.0286722 55.1306747,13.5774826 56.8692393,13.449216 L57.12,13.44 L77.28,13.44 Z" id="Combined-Shape" fill="#FFFFFF" fill-rule="nonzero"></path>
            </g>
            <g id="Group">
                <path d="M0,67.2 C0,104.312188 30.0878118,134.4 67.2,134.4 C104.312188,134.4 134.4,104.312188 134.4,67.2 C134.4,30.0878118 104.312188,0 67.2,0 C30.0878118,0 0,30.0878118 0,67.2" id="Fill-1" fill="#005EB8"></path>
                <path d="M106.729412,43.6226824 L106.729412,102.776471 C91.5620458,102.776471 77.8063994,110.065903 67.73595,121.902726 L67.2,122.541176 C57.0844235,110.328565 43.1088,102.776471 27.6705882,102.776471 L27.6705882,43.6226824 C42.8379542,43.6226824 56.5936006,50.9140229 66.66405,62.7490386 L67.2,63.3873882 C77.1381102,51.3909746 90.8020153,43.8891707 105.918238,43.6296418 L106.729412,43.6226824 Z M82.4563765,85.5436235 L82.7514556,85.2353351 C86.1986571,81.4722122 86.1001656,75.627692 82.4559812,71.9854306 C78.7105694,68.2400188 72.6388518,68.2400188 68.8954165,71.9854306 C68.2015577,72.6789232 67.6362402,73.4522539 67.2013267,74.2758543 C66.7645504,73.4522539 66.1992329,72.6789232 65.5053741,71.9854306 C61.7599624,68.2400188 55.6882447,68.2400188 51.9448094,71.9854306 C48.300625,75.627692 48.2021335,81.4722122 51.649335,85.2353351 L51.9448094,85.5444141 L67.2,100.8 L82.4563765,85.5436235 Z" id="Shape" fill="#FFFFFF"></path>
                <path d="M51.3882353,27.6705882 C51.3882353,36.4026353 58.4679529,43.4823529 67.2,43.4823529 C75.9320471,43.4823529 83.0117647,36.4026353 83.0117647,27.6705882 C83.0117647,18.9385412 75.9320471,11.8588235 67.2,11.8588235 C58.4679529,11.8588235 51.3882353,18.9385412 51.3882353,27.6705882" id="Fill-7" fill="#FFFFFF"></path>
            </g>
            <g id="Group-4" transform="translate(537.599080, 537.600000)">
                <path d="M134.4026,67.2 C134.4026,104.31456 104.31716,134.39664 67.2025999,134.39664 C30.0880399,134.39496 0.00259991433,104.31456 0.000919914334,67.2 C0.000919914334,30.08544 30.0863599,0 67.2025999,0 C104.31884,0 134.4026,30.08712 134.4026,67.2" id="Fill-1" fill="#FFFFFF"></path>
                <path d="M19.6718646,19.6853939 C45.9173763,-6.56179795 88.4686744,-6.56179795 114.715866,19.6853939 C140.963058,45.9325857 140.959698,88.4838838 114.715866,114.727715 C92.4886346,136.958274 58.5747162,140.342259 32.7668663,124.918796 L31.9873118,124.445662 L39.0489523,115.028461 C49.465838,118.321541 61.309165,115.858451 69.5687474,107.598869 C76.8184518,100.350808 79.6122813,90.3383044 77.9628007,80.9554349 L77.843451,80.3167093 L69.5687474,88.5914129 C63.0077895,95.1523708 52.370805,95.1523708 45.808167,88.5914129 C39.3664993,82.1480956 39.249378,71.7756234 45.4568033,65.1910179 L45.808167,64.8291524 L54.0828706,56.5544488 C44.5178173,54.662608 34.2135011,57.4163621 26.8007108,64.8291524 C18.6983188,72.9315445 16.1748535,84.4779379 19.1875184,94.7480133 L19.371119,95.3506277 L9.95559844,102.410588 C-6.00575876,76.5095056 -2.77988446,42.1371429 19.6718646,19.6853939 Z M81.4487015,29.1887859 L62.4412453,48.1962421 L86.2018257,71.9585026 L105.210962,52.9510464 C111.77192,46.3884084 111.77192,35.7497438 105.210962,29.1887859 C98.6500041,22.627828 88.0113395,22.627828 81.4487015,29.1887859 Z" id="Shape" fill="#005EB8"></path>
            </g>
            <g id="Page-1" transform="translate(270.480126, 0.000966)">
                <path d="M114.71565,114.71817 C88.47237,140.96145 45.92805,140.95977 19.68477,114.71649 C-6.56018995,88.47153 -6.56186995,45.92721 19.68141,19.68225 C45.92469,-6.56102999 88.47237,-6.56102999 114.71733,19.68393 C140.96061,45.92889 140.95893,88.47489 114.71565,114.71817" id="Fill-1" fill="#005EB8"></path>
                <path d="M94.078194,110.877354 L40.321554,110.877354 C31.044594,110.877354 23.523234,103.354314 23.519874,94.077354 C23.5231771,84.9576306 30.7917924,77.5344997 39.8481933,77.285488 L40.318194,77.2790337 L94.078194,77.2790337 C103.353474,77.277354 110.876514,84.800394 110.879874,94.077354 C110.876571,103.198729 103.606332,110.623511 94.5482803,110.870983 L94.078194,110.877354 Z M67.199874,82.3173537 L40.321554,82.319034 C33.836754,82.319034 28.561554,87.594234 28.559874,94.079034 C28.561519,100.425444 33.6208536,105.616961 39.9148121,105.83052 L40.318194,105.837354 L67.199874,105.839034 L67.199874,82.3173537 Z" id="Shape" fill="#FFFFFF"></path>
                <path d="M84.660114,20.156682 C88.3370576,26.528349 88.1427113,34.0716677 84.8075064,40.0625365 L67.200546,70.559034 L49.740306,40.317354 C44.175474,30.676842 47.480034,18.345642 57.119874,12.778122 C66.761394,7.21228201 79.092594,10.516842 84.660114,20.156682 Z M78.840594,23.51853 C75.127794,17.09421 66.907554,14.89173 60.483234,18.59949 C54.055554,22.31229 51.854754,30.53085 55.559154,36.95517 C59.275314,43.38453 67.495554,45.58533 73.919874,41.87757 C80.344194,38.16477 82.548354,29.94285 78.840594,23.51853 Z" id="Shape" fill="#FFFFFF"></path>
            </g>
            <g id="Group-19" transform="translate(0.000000, 268.800000)">
                <path d="M114.71796,19.681368 C88.473,-6.561912 45.92868,-6.558552 19.6854,19.681368 C-6.55788,45.928008 -6.56292,88.472328 19.68036,114.715608 C45.927,140.962248 88.473,140.958888 114.71796,114.715608 C140.96124,88.472328 140.95956,45.924648 114.71796,19.681368" id="Fill-1" fill="#005EB8"></path>
                <path d="M61.980072,84.6846 C51.228072,87.56412 44.844072,98.61684 47.725272,109.37388 C50.606472,120.12756 61.662552,126.50988 72.416232,123.62868 C83.168232,120.74916 89.550552,109.6914 86.671032,98.93772 C83.786472,88.18572 72.732072,81.80172 61.980072,84.6846" id="Fill-3" fill="#FFFFFF"></path>
                <polygon id="Fill-5" fill="#FFFFFF" points="47.7246 109.374216 38.6862 75.644856 72.41556 84.684936"></polygon>
                <path d="M63.71904,91.174776 C56.55384,93.095016 52.2984,100.463496 54.21528,107.638776 C56.13888,114.800616 63.50736,119.056056 70.67928,117.135816 C77.8428,115.213896 82.09656,107.843736 80.178,100.675176 C78.25776,93.513336 70.8876,89.256216 63.71904,91.174776" id="Fill-7" fill="#005EB8"></path>
                <path d="M57.118824,23.520336 C57.118824,17.954496 61.632984,13.442016 67.198824,13.440336 C72.766344,13.442016 77.278824,17.954496 77.278824,23.520336 L77.278824,36.960336 L57.118824,36.960336 L57.118824,23.520336 Z" id="Fill-9" fill="#FFFFFF"></path>
                <path d="M77.278824,33.600336 L57.118824,33.600336 L57.118824,50.398656 C57.118824,55.964496 61.632984,60.478656 67.198824,60.480336 C72.766344,60.478656 77.278824,55.964496 77.278824,50.398656 L77.278824,33.600336 Z M73.918824,36.960336 L73.918824,50.398656 C73.918824,54.103056 70.903224,57.118656 67.200504,57.120336 C63.494424,57.118656 60.478824,54.103056 60.478824,50.398656 L60.478824,36.960336 L73.918824,36.960336 L73.918824,36.960336 Z" id="Fill-11" fill="#FFFFFF"></path>
                <path d="M117.600504,70.560336 C117.382104,70.560336 117.145224,70.543536 116.943624,70.493136 C116.725224,70.457856 116.508504,70.390656 116.305224,70.308336 C116.103624,70.224336 115.920504,70.123536 115.735704,69.989136 C115.550904,69.871536 115.382904,69.737136 115.231704,69.569136 C114.910824,69.265056 114.660504,68.897136 114.490824,68.493936 C114.324504,68.073936 114.240504,67.653936 114.240504,67.200336 C114.240504,66.309936 114.593304,65.453136 115.231704,64.831536 C116.474904,63.571536 118.726104,63.571536 119.969304,64.831536 C120.607704,65.453136 120.960504,66.309936 120.960504,67.200336 C120.960504,67.653936 120.876504,68.073936 120.708504,68.493936 C120.540504,68.897136 120.288504,69.265056 119.969304,69.569136 C119.816424,69.737136 119.650104,69.871536 119.463624,69.989136 C119.280504,70.123536 119.078904,70.224336 118.894104,70.308336 C118.690824,70.390656 118.474104,70.457856 118.255704,70.493136 C118.037304,70.543536 117.818904,70.560336 117.600504,70.560336" id="Fill-13" fill="#FFFFFF"></path>
                <path d="M63.856968,16.800336 C63.856968,14.935536 65.368968,13.440336 67.216968,13.440336 C69.081768,13.440336 70.576968,14.950656 70.576968,16.800336 C70.576968,18.663456 69.064968,20.160336 67.216968,20.160336 C65.368968,20.160336 63.856968,18.648336 63.856968,16.800336 L63.856968,16.800336 Z M39.112248,25.200336 C38.186568,23.604336 38.740968,21.554736 40.336968,20.613936 C41.949768,19.689936 43.999368,20.244336 44.940168,21.857136 C45.864168,23.453136 45.309768,25.502736 43.696968,26.443536 C43.176168,26.745936 42.604968,26.897136 42.033768,26.897136 C40.857768,26.897136 39.732168,26.290656 39.112248,25.200336 L39.112248,25.200336 Z M90.720168,26.460336 L90.720168,26.460336 C89.124168,25.517856 88.569768,23.469936 89.493768,21.873936 C90.434568,20.261136 92.484168,19.705056 94.096968,20.630736 C95.709768,21.571536 96.247368,23.621136 95.323368,25.233936 C94.701768,26.309136 93.559368,26.913936 92.400168,26.913936 C91.828968,26.913936 91.257768,26.762736 90.720168,26.460336 L90.720168,26.460336 Z M21.873768,44.873136 C20.277768,43.930656 19.723368,41.882736 20.664168,40.269936 C21.588168,38.657136 23.637768,38.117856 25.252248,39.060336 C26.863368,39.984336 27.400968,42.033936 26.476968,43.646736 C25.855368,44.721936 24.712968,45.326736 23.553768,45.326736 C22.982568,45.326736 22.411368,45.175536 21.873768,44.873136 L21.873768,44.873136 Z M107.940168,43.680336 L107.940168,43.680336 C107.016168,42.067536 107.572248,40.016256 109.166568,39.093936 C110.779368,38.153136 112.828968,38.707536 113.769768,40.303536 L113.769768,40.320336 C114.693768,41.916336 114.139368,43.965936 112.543368,44.906736 C112.005768,45.209136 111.434568,45.360336 110.863368,45.360336 C109.704168,45.360336 108.561768,44.755536 107.940168,43.680336 L107.940168,43.680336 Z" id="Fill-15" fill="#FFFFFF"></path>
                <path d="M16.800504,70.560336 C16.345224,70.560336 15.925224,70.476336 15.505224,70.308336 C15.103704,70.140336 14.734104,69.888336 14.431704,69.569136 C13.793304,68.930736 13.440504,68.090736 13.440504,67.200336 C13.440504,66.981936 13.457304,66.763536 13.507704,66.543456 C13.541304,66.325056 13.608504,66.123456 13.690824,65.905056 C13.776504,65.703456 13.877304,65.520336 14.011704,65.335536 C14.129304,65.150736 14.263704,64.982736 14.431704,64.831536 C15.674904,63.571536 17.926104,63.571536 19.169304,64.831536 C19.320504,64.982736 19.471704,65.150736 19.589304,65.335536 C19.705224,65.520336 19.824504,65.703456 19.908504,65.905056 C19.990824,66.123456 20.058024,66.325056 20.093304,66.543456 C20.143704,66.763536 20.160504,66.981936 20.160504,67.200336 C20.160504,68.090736 19.807704,68.930736 19.169304,69.569136 C18.547704,70.207536 17.707704,70.560336 16.800504,70.560336" id="Fill-17" fill="#FFFFFF"></path>
            </g>
            <g id="Group-18" transform="translate(270.480000, 537.600000)">
                <path d="M0,67.2 C0,104.313506 30.086494,134.4 67.2,134.4 C104.313506,134.4 134.4,104.313506 134.4,67.2 C134.4,30.086494 104.313506,0 67.2,0 C30.086494,0 0,30.086494 0,67.2" id="Fill-1" fill="#005EB8"></path>
                <g id="Group-17" transform="translate(8.189132, 8.090099)" fill="#FFFFFF">
                    <path d="M58.9774444,0 C60.3685737,0 61.49623,1.12765631 61.49623,2.51878559 L61.49623,12.593728 C61.49623,13.9848573 60.3685737,15.1125136 58.9774444,15.1125136 C57.5863152,15.1125136 56.4586589,13.9848573 56.4586589,12.593728 L56.4586589,2.51878559 C56.4586589,1.12765631 57.5863152,0 58.9774444,0" id="Fill-3"></path>
                    <path d="M115.495535,56.591135 C116.886664,56.591135 118.01432,57.7187913 118.01432,59.1099206 C118.01432,60.5010499 116.886664,61.6287062 115.495535,61.6287062 L105.420592,61.6287062 C104.029463,61.6287062 102.901807,60.5010499 102.901807,59.1099206 C102.901807,57.7187913 104.029463,56.591135 105.420592,56.591135 L115.495535,56.591135 Z" id="Fill-5"></path>
                    <path d="M12.593728,56.591135 C13.9848573,56.591135 15.1125136,57.7187913 15.1125136,59.1099206 C15.1125136,60.5010499 13.9848573,61.6287062 12.593728,61.6287062 L2.51878559,61.6287062 C1.12765631,61.6287062 4.26120191e-15,60.5010499 4.26120191e-15,59.1099206 C4.26120191e-15,57.7187913 1.12765631,56.591135 2.51878559,56.591135 L12.593728,56.591135 Z" id="Fill-7"></path>
                    <path d="M58.9774444,103.082599 C60.3685737,103.082599 61.49623,104.210256 61.49623,105.601385 L61.49623,115.676327 C61.49623,117.067457 60.3685737,118.195113 58.9774444,118.195113 C57.5863152,118.195113 56.4586589,117.067457 56.4586589,115.676327 L56.4586589,105.601385 C56.4586589,104.210256 57.5863152,103.082599 58.9774444,103.082599" id="Fill-9"></path>
                    <polygon id="Fill-11" points="29.4594563 38.2200125 16.6224456 16.7373702 38.0709044 29.6711343"></polygon>
                    <polygon id="Fill-13" points="88.4969318 80.0971018 101.333943 101.579744 79.8854838 88.64598"></polygon>
                    <path d="M67.2919557,67.4228925 L50.1508201,84.5640281 L50.1955986,84.6088065 C45.5930177,89.2113874 38.1306156,89.2113874 33.5278348,84.6088065 C28.9252539,80.0062256 28.9252539,72.5438235 33.5278348,67.9412426 L50.6691702,50.7999072 L67.2919557,67.4228925 Z M63.2900851,29.1067664 L46.1329573,46.2638942 L28.9918218,63.4050297 C21.8838489,70.5128028 21.8838489,82.0370464 28.9918218,89.1450194 C36.0995948,96.2529923 47.6238385,96.2529923 54.7318114,89.1450194 L54.687033,89.100241 L71.8281686,71.9591054 L71.872947,72.0038838 L89.0300748,54.846756 C96.1378478,47.7387831 96.1378478,36.2147393 89.0300748,29.1067664 C81.9221018,21.9987934 70.3978582,21.9987934 63.2900851,29.1067664 L63.2900851,29.1067664 Z" id="Fill-15"></path>
                </g>
            </g>
        </g>
    </g>
</svg>