<svg xmlns="http://www.w3.org/2000/svg" viewBox="0 0 942 1080"><defs><style>.a{fill:#f4f4f4;}.b,.d{fill:none;stroke:#005eb8;stroke-miterlimit:10;}.b{stroke-width:2px;opacity:0.6;}.c{fill:#005eb8;opacity:0.2;}.d{stroke-width:5px;}</style></defs><rect class="a" width="942" height="1080"/><path class="b" d="M556.84,840.45a121.4,121.4,0,1,1,0-171.69A121.41,121.41,0,0,1,556.84,840.45Z"/><line class="b" x1="439.57" y1="208.12" x2="802.88" y2="571.43"/><line class="b" x1="366.26" y1="220.65" x2="790.35" y2="644.74"/><line class="b" x1="306.64" y1="246.88" x2="764.12" y2="704.36"/><line class="b" x1="255.79" y1="281.86" x2="729.08" y2="755.16"/><line class="b" x1="212.92" y1="324.84" x2="685.6" y2="797.53"/><line class="b" x1="177.88" y1="375.64" x2="635.36" y2="833.12"/><line class="b" x1="151.65" y1="435.26" x2="575.74" y2="859.35"/><line class="b" x1="139.12" y1="508.57" x2="502.43" y2="871.88"/><line class="b" x1="802.88" y1="508.57" x2="439.57" y2="871.88"/><line class="b" x1="790.35" y1="435.26" x2="366.26" y2="859.35"/><line class="b" x1="764.12" y1="375.64" x2="306.64" y2="833.12"/><line class="b" x1="728.52" y1="325.4" x2="256.4" y2="797.52"/><line class="b" x1="685.6" y1="282.48" x2="213.19" y2="754.89"/><line class="b" x1="635.36" y1="246.88" x2="177.88" y2="704.36"/><line class="b" x1="575.74" y1="220.65" x2="151.65" y2="644.74"/><line class="b" x1="502.43" y1="208.12" x2="139.12" y2="571.43"/><line class="b" x1="170.55" y1="625.84" x2="385.16" y2="840.45"/><line class="b" x1="385.16" y1="239.56" x2="170.55" y2="454.16"/><line class="b" x1="771.45" y1="454.16" x2="556.84" y2="239.56"/><line class="b" x1="555.71" y1="841.57" x2="771.45" y2="625.84"/><path class="b" d="M556.84,411.24a121.4,121.4,0,1,1,0-171.68A121.4,121.4,0,0,1,556.84,411.24Z"/><circle class="b" cx="685.6" cy="540" r="121.4"/><circle class="b" cx="256.4" cy="540" r="121.4"/><circle class="b" cx="471" cy="540" r="336"/><path class="c" d="M170.55,454.16a121.41,121.41,0,0,0,0,171.68l85.85,85.84L428.08,540l-85.84-85.84A121.4,121.4,0,0,0,170.55,454.16Z"/><path class="c" d="M771.45,454.16a121.4,121.4,0,0,0-171.69,0L513.92,540,685.6,711.68l85.85-85.84A121.41,121.41,0,0,0,771.45,454.16Z"/><path class="c" d="M556.84,239.56a121.4,121.4,0,1,0,0,171.68A121.39,121.39,0,0,0,556.84,239.56Z"/><path class="c" d="M471,582.92,299.32,754.6l85.84,85.85a121.41,121.41,0,0,0,171.68,0l85.84-85.85-85.84-85.84Z"/><path class="d" d="M170.55,454.16a121.41,121.41,0,0,0,0,171.68l85.85,85.84L428.08,540l-85.84-85.84A121.4,121.4,0,0,0,170.55,454.16Z"/><path class="d" d="M771.45,454.16a121.4,121.4,0,0,0-171.69,0L513.92,540,685.6,711.68l85.85-85.84A121.41,121.41,0,0,0,771.45,454.16Z"/><path class="d" d="M556.84,239.56a121.4,121.4,0,1,0,0,171.68A121.39,121.39,0,0,0,556.84,239.56Z"/><path class="d" d="M471,582.92,299.32,754.6l85.84,85.85a121.41,121.41,0,0,0,171.68,0l85.84-85.85-85.84-85.84Z"/></svg>