<svg xmlns="http://www.w3.org/2000/svg" xmlns:xlink="http://www.w3.org/1999/xlink" viewBox="0 0 1920 1080"><defs><linearGradient id="linear-gradient" x1="960" y1="124.86486" x2="960" y2="955.13118" gradientUnits="userSpaceOnUse"><stop offset="0" stop-color="#00b4ff"/><stop offset="1" stop-color="#004892"/></linearGradient></defs><g id="Layer_5" data-name="Layer 5"><rect x="544.86486" y="124.86486" width="830.27027" height="830.27027" style="fill:#55bceb"/><rect x="544.86486" y="124.86486" width="830.27027" height="830.26631" style="fill:url(#linear-gradient)"/><rect width="1920" height="1080" style="fill:#0072c6"/></g><g id="grid"><path d="M739.84151,540a220.15878,220.15878,0,1,1,64.48281,155.67568A219.46811,219.46811,0,0,1,739.84151,540Z" style="fill:none;stroke:#4caff9;stroke-miterlimit:10;stroke-width:3px;opacity:0.30000000000000004"/><path d="M516.07955,539.99978A443.92086,443.92086,0,1,1,646.10055,853.899,442.52811,442.52811,0,0,1,516.07955,539.99978Z" style="fill:none;stroke:#4caff9;stroke-miterlimit:10;stroke-width:3px;opacity:0.30000000000000004"/><circle cx="960" cy="540" r="360" style="fill:none;stroke:#4caff9;stroke-miterlimit:10;stroke-width:3px;opacity:0.30000000000000004"/><line x1="448" y1="384.32432" x2="1472" y2="384.32432" style="fill:none;stroke:#4caff9;stroke-miterlimit:10;stroke-width:3px;opacity:0.30000000000000004"/><line x1="464.10597" y1="180" x2="1455.89403" y2="180" style="fill:none;stroke:#4caff9;stroke-miterlimit:10;stroke-width:3px;opacity:0.30000000000000004"/><line x1="464.10459" y1="900" x2="1455.89541" y2="900" style="fill:none;stroke:#4caff9;stroke-miterlimit:10;stroke-width:3px;opacity:0.30000000000000004"/><line x1="448" y1="695.67568" x2="1472" y2="695.67568" style="fill:none;stroke:#4caff9;stroke-miterlimit:10;stroke-width:3px;opacity:0.30000000000000004"/><line x1="448" y1="540" x2="1472" y2="540" style="fill:none;stroke:#4caff9;stroke-miterlimit:10;stroke-width:3px;opacity:0.30000000000000004"/><line x1="804.32426" y1="1051.99998" x2="804.32426" y2="28.00015" style="fill:none;stroke:#4caff9;stroke-miterlimit:10;stroke-width:3px;opacity:0.30000000000000004"/><line x1="599.99996" y1="1035.89216" x2="599.99996" y2="44.10792" style="fill:none;stroke:#4caff9;stroke-miterlimit:10;stroke-width:3px;opacity:0.30000000000000004"/><rect x="516.07955" y="96.07955" width="887.84091" height="887.84091" style="fill:none;stroke:#4caff9;stroke-miterlimit:10;stroke-width:3px;opacity:0.30000000000000004"/><line x1="1319.99996" y1="1034.50498" x2="1319.99996" y2="45.49509" style="fill:none;stroke:#4caff9;stroke-miterlimit:10;stroke-width:3px;opacity:0.30000000000000004"/><line x1="1115.67561" y1="1051.99998" x2="1115.67561" y2="28.00015" style="fill:none;stroke:#4caff9;stroke-miterlimit:10;stroke-width:3px;opacity:0.30000000000000004"/><line x1="959.99993" y1="1051.99998" x2="959.99993" y2="28.00015" style="fill:none;stroke:#4caff9;stroke-miterlimit:10;stroke-width:3px;opacity:0.30000000000000004"/><line x1="516.07955" y1="96.07955" x2="1403.92045" y2="983.92045" style="fill:none;stroke:#4caff9;stroke-miterlimit:10;stroke-width:3px;opacity:0.30000000000000004"/><line x1="1403.92045" y1="96.07955" x2="516.07955" y2="983.92045" style="fill:none;stroke:#4caff9;stroke-miterlimit:10;stroke-width:3px;opacity:0.30000000000000004"/></g><g id="Layer_9" data-name="Layer 9"><path d="M805.00979,28h309.97949c102.80072,0,154.1972,0,209.5302,17.4951A217.49761,217.49761,0,0,1,1454.5068,175.48142C1472,230.812,1472,282.21,1472,385.01032V694.99021c0,102.79979,0,154.1963-17.4932,209.53029a217.49105,217.49105,0,0,1-129.98732,129.9824C1269.18648,1052,1217.79,1052,1114.98928,1052H805.00979c-102.79979,0-154.19779,0-209.52839-17.4971A217.48091,217.48091,0,0,1,465.4951,904.5205C448,849.18651,448,797.79,448,694.99021V385.01032c0-102.80032,0-154.19832,17.4951-209.5289A217.48747,217.48747,0,0,1,595.4814,45.4951C650.812,28,702.21,28,805.00979,28h0" style="fill:none;stroke:#4caff9;stroke-miterlimit:10;stroke-width:3px;opacity:0.6000000000000001"/></g><g id="Layer_7" data-name="Layer 7"><path d="M1319.928,532.87183c-3.56531-180.23609-139.00537-326.89716-312.41882-349.766l-.138-.01812q-11.26153-1.48068-22.72839-2.25806c-.18365-.01245-.36706-.02576-.55078-.0379q-3.584-.23639-7.18628-.40174c-.29657-.01373-.59344-.02594-.89026-.03894q-3.593-.15655-7.20221-.24694c-.16473-.004-.33-.00556-.49481-.00928q-3.50922-.07865-7.03424-.08911c-.233-.00074-.46539-.00409-.69843-.0044-.15112-.00018-.30163-.0028-.45275-.0028q-3.624,0-7.26.07189-3.86764.07655-7.71265.24024c-.30042.01227-.60138.02191-.90155.035q-3.69268.15985-7.3642.39685c-.361.023-.722.04547-1.0827.06952q-3.68581.24527-7.35053.56348c-.28564.02484-.5708.05127-.85626.07678q-3.82077.34122-7.61871.75787c-.05274.0058-.10523.01227-.1579.01819q-8.04766.8941-15.98273,2.13922l-.07867.01209q-3.93677.61734-7.84369,1.32074l-.21234.03815c-171.02869,30.81927-299.1853,182.0877-295.63928,361.3869C603.63763,727.335,739.0506,873.99219,912.434,896.88348l.25183.03321q3.74991.49236,7.52258.90918l.03846.00409q7.46694.82012,15.02136,1.33081c.23126.01568.46222.03253.6936.04779q3.52076.23163,7.05933.39459c.34875.01617.69781.03064,1.04687.04584q3.52185.15261,7.05927.24194c.22876.00549.45825.00781.68713.01288q3.37473.07434,6.7641.08569c.29492.001.58917.00525.88422.00556.13177.00012.26306.00244.39489.00244,2.132,0,4.26764-.02613,6.40729-.06348.28528-.005.56885-.002.85425-.00763.0542-.0011.10791-.004.16211-.00506q3.728-.07536,7.43518-.23145c.359-.01453.71881-.02624,1.07758-.04181q3.61652-.15711,7.2127-.38861c.41779-.02649.83564-.05255,1.25306-.08044q3.612-.24116,7.20391-.55225c.34089-.0296.68122-.061,1.02179-.09161q3.74516-.33555,7.46851-.743c.11389-.01264.22729-.02662.34106-.03931q7.93113-.88395,15.75293-2.1087c.0821-.01288.16449-.025.24652-.03791q3.86353-.60654,7.69831-1.29626.18924-.034.37842-.068,3.85052-.69478,7.67211-1.46966l.06684-.01282.00018-.001C1199.213,858.8006,1323.421,709.42444,1319.928,532.87183ZM1090.356,832.34442a317.30723,317.30723,0,0,1-50.07117,17.49725l.1842-.9671c3.39289-17.837,14.24463-44.89862,24.11292-60.14489l54.90869-84.85486c9.85883-15.24622,16.03168-42.45038,13.70618-60.44812l-24.55707-190.34223c-2.32556-18.00769-15.36981-32.7337-28.981-32.7337-13.61194,0-24.7558,14.85-24.7558,33.00732v206.299a33.00806,33.00806,0,0,1-66.01611,0V601.89325c0-18.149-13.00635-33.00732-28.88678-33.00732-15.87891,0-29.94495,14.82025-31.23047,32.9226l-3.55408,49.682a516.70005,516.70005,0,0,0,.39759,65.81659l2.7594,33.23456c1.51233,18.09191-.6612,47.35559-4.82007,65.024l-9.67932,41.14612a320.14811,320.14811,0,0,1-84.23169-609.05957,317.3056,317.3056,0,0,1,50.07837-17.49988l-.18677.98066c-3.39368,17.83581-14.24536,44.89862-24.11292,60.13458l-54.90948,84.86474c-9.85919,15.23713-16.03131,42.44043-13.70618,60.44812L811.36108,626.923c2.32557,17.99775,15.36066,32.73407,28.98212,32.73407,13.62116,0,24.75549-14.84948,24.75549-33.0072V420.35077a33.00748,33.00748,0,1,1,66.015,0v57.75281c0,18.15857,13.00744,33.00854,28.88635,33.00854,15.88043,0,29.94617-14.81158,31.23126-32.91308l3.55365-49.68152a516.55676,516.55676,0,0,0-.39593-65.82617l-2.76026-33.2353c-1.51233-18.09124.662-47.34729,4.82056-65.02325l9.67926-41.14752A320.14681,320.14681,0,0,1,1090.356,832.34442Z" style="fill:#4caff9;opacity:0.30000000000000004"/></g><g id="Layer_7_copy" data-name="Layer 7 copy"><path d="M1319.928,532.87183c-3.56531-180.23609-139.00537-326.89716-312.41882-349.766l-.138-.01812q-11.26153-1.48068-22.72839-2.25806c-.18365-.01245-.36706-.02576-.55078-.0379q-3.584-.23639-7.18628-.40174c-.29657-.01373-.59344-.02594-.89026-.03894q-3.593-.15655-7.20221-.24694c-.16473-.004-.33-.00556-.49481-.00928q-3.50922-.07865-7.03424-.08911c-.233-.00074-.46539-.00409-.69843-.0044-.15112-.00018-.30163-.0028-.45275-.0028q-3.624,0-7.26.07189-3.86764.07655-7.71265.24024c-.30042.01227-.60138.02191-.90155.035q-3.69268.15985-7.3642.39685c-.361.023-.722.04547-1.0827.06952q-3.68581.24527-7.35053.56348c-.28564.02484-.5708.05127-.85626.07678q-3.82077.34122-7.61871.75787c-.05274.0058-.10523.01227-.1579.01819q-8.04766.8941-15.98273,2.13922l-.07867.01209q-3.93677.61734-7.84369,1.32074l-.21234.03815c-171.02869,30.81927-299.1853,182.0877-295.63928,361.3869C603.63763,727.335,739.0506,873.99219,912.434,896.88348l.25183.03321q3.74991.49236,7.52258.90918l.03846.00409q7.46694.82012,15.02136,1.33081c.23126.01568.46222.03253.6936.04779q3.52076.23163,7.05933.39459c.34875.01617.69781.03064,1.04687.04584q3.52185.15261,7.05927.24194c.22876.00549.45825.00781.68713.01288q3.37473.07434,6.7641.08569c.29492.001.58917.00525.88422.00556.13177.00012.26306.00244.39489.00244,2.132,0,4.26764-.02613,6.40729-.06348.28528-.005.56885-.002.85425-.00763.0542-.0011.10791-.004.16211-.00506q3.728-.07536,7.43518-.23145c.359-.01453.71881-.02624,1.07758-.04181q3.61652-.15711,7.2127-.38861c.41779-.02649.83564-.05255,1.25306-.08044q3.612-.24116,7.20391-.55225c.34089-.0296.68122-.061,1.02179-.09161q3.74516-.33555,7.46851-.743c.11389-.01264.22729-.02662.34106-.03931q7.93113-.88395,15.75293-2.1087c.0821-.01288.16449-.025.24652-.03791q3.86353-.60654,7.69831-1.29626.18924-.034.37842-.068,3.85052-.69478,7.67211-1.46966l.06684-.01282.00018-.001C1199.213,858.8006,1323.421,709.42444,1319.928,532.87183ZM1090.356,832.34442a317.30723,317.30723,0,0,1-50.07117,17.49725l.1842-.9671c3.39289-17.837,14.24463-44.89862,24.11292-60.14489l54.90869-84.85486c9.85883-15.24622,16.03168-42.45038,13.70618-60.44812l-24.55707-190.34223c-2.32556-18.00769-15.36981-32.7337-28.981-32.7337-13.61194,0-24.7558,14.85-24.7558,33.00732v206.299a33.00806,33.00806,0,0,1-66.01611,0V601.89325c0-18.149-13.00635-33.00732-28.88678-33.00732-15.87891,0-29.94495,14.82025-31.23047,32.9226l-3.55408,49.682a516.70005,516.70005,0,0,0,.39759,65.81659l2.7594,33.23456c1.51233,18.09191-.6612,47.35559-4.82007,65.024l-9.67932,41.14612a320.14811,320.14811,0,0,1-84.23169-609.05957,317.3056,317.3056,0,0,1,50.07837-17.49988l-.18677.98066c-3.39368,17.83581-14.24536,44.89862-24.11292,60.13458l-54.90948,84.86474c-9.85919,15.23713-16.03131,42.44043-13.70618,60.44812L811.36108,626.923c2.32557,17.99775,15.36066,32.73407,28.98212,32.73407,13.62116,0,24.75549-14.84948,24.75549-33.0072V420.35077a33.00748,33.00748,0,1,1,66.015,0v57.75281c0,18.15857,13.00744,33.00854,28.88635,33.00854,15.88043,0,29.94617-14.81158,31.23126-32.91308l3.55365-49.68152a516.55676,516.55676,0,0,0-.39593-65.82617l-2.76026-33.2353c-1.51233-18.09124.662-47.34729,4.82056-65.02325l9.67926-41.14752A320.14681,320.14681,0,0,1,1090.356,832.34442Z" style="fill:none;stroke:#4caff9;stroke-miterlimit:10;stroke-width:6px"/></g></svg>