<svg xmlns="http://www.w3.org/2000/svg" viewBox="0 0 942 1080"><g id="Layer_5" data-name="Layer 5"><rect width="942" height="1080" style="fill:#404040"/></g><g id="Layer_3" data-name="Layer 3"><line x1="151" y1="540" x2="791" y2="540" style="fill:none;stroke:#000;stroke-miterlimit:10;stroke-width:3px;opacity:0.30000000000000004"/><line x1="296.60262" y1="858.56924" x2="296.60262" y2="221.43046" style="fill:none;stroke:#000;stroke-miterlimit:10;stroke-width:3px;opacity:0.30000000000000004"/><rect x="193.54972" y="262.54972" width="554.90057" height="554.90057" style="fill:none;stroke:#000;stroke-miterlimit:10;stroke-width:3px;opacity:0.30000000000000004"/><line x1="645.39739" y1="858.56955" x2="645.39739" y2="221.43027" style="fill:none;stroke:#000;stroke-miterlimit:10;stroke-width:3px;opacity:0.30000000000000004"/><line x1="470.99996" y1="859.99999" x2="470.99996" y2="220.00009" style="fill:none;stroke:#000;stroke-miterlimit:10;stroke-width:3px;opacity:0.30000000000000004"/><line x1="542.05323" y1="859.99999" x2="542.05323" y2="220.00009" style="fill:none;stroke:#000;stroke-miterlimit:10;stroke-width:3px;opacity:0.30000000000000004"/><line x1="399.94701" y1="859.99999" x2="399.94701" y2="220.00009" style="fill:none;stroke:#000;stroke-miterlimit:10;stroke-width:3px;opacity:0.30000000000000004"/><line x1="152.43081" y1="365.60266" x2="789.56959" y2="365.60266" style="fill:none;stroke:#000;stroke-miterlimit:10;stroke-width:3px;opacity:0.30000000000000004"/><line x1="152.4305" y1="714.39743" x2="789.56978" y2="714.39743" style="fill:none;stroke:#000;stroke-miterlimit:10;stroke-width:3px;opacity:0.30000000000000004"/><line x1="151.00006" y1="611.05326" x2="790.99996" y2="611.05326" style="fill:none;stroke:#000;stroke-miterlimit:10;stroke-width:3px;opacity:0.30000000000000004"/><line x1="151.00006" y1="468.94704" x2="790.99996" y2="468.94704" style="fill:none;stroke:#000;stroke-miterlimit:10;stroke-width:3px;opacity:0.30000000000000004"/><line x1="193.54972" y1="262.54972" x2="748.45028" y2="817.45028" style="fill:none;stroke:#000;stroke-miterlimit:10;stroke-width:3px;opacity:0.30000000000000004"/><line x1="748.45028" y1="262.54972" x2="193.54972" y2="817.45028" style="fill:none;stroke:#000;stroke-miterlimit:10;stroke-width:3px;opacity:0.30000000000000004"/></g><g id="Layer_4" data-name="Layer 4"><g style="opacity:0.6"><path d="M748.4504,540a276.59736,276.59736,0,0,0-83.5276-198.39791l-72.02841,73.69062a174.41669,174.41669,0,0,1-59.12066,287.45394l37.09358,96.16851C674.74973,758.8189,748.4504,658.02311,748.4504,540Z" style="fill:#7e7e7e"/><path d="M471,365.60261A174.39739,174.39739,0,1,0,645.39739,540,174.39735,174.39735,0,0,0,471,365.60261Zm0,245.74178A71.34439,71.34439,0,1,1,542.34439,540,71.34436,71.34436,0,0,1,471,611.34439Z" style="fill:#fefefe"/><path d="M455.80746,470.293A71.563,71.563,0,0,1,471,468.65561v-103.053a175.0164,175.0164,0,0,0-37.14281,3.9776Z" style="fill:#c6c6c6"/><path d="M433.85719,369.58021A175.0164,175.0164,0,0,1,471,365.60261V262.5496a278.43961,278.43961,0,0,0-59.09078,6.328Z" style="fill:#9e9e9e"/><path d="M386.77181,387.26632a173.21008,173.21008,0,0,1,47.08538-17.68611l-21.948-100.70265a275.55785,275.55785,0,0,0-74.90856,28.13707Z" style="fill:#767676"/><path d="M367.05976,680.04583a174.42628,174.42628,0,0,1,19.71205-292.77951l-49.77115-90.25169C251.47627,344.27975,193.5496,435.369,193.5496,540A277.03669,277.03669,0,0,0,305.64052,762.80014Z" style="fill:#bbb"/><path d="M418.96837,706.50133l30.74627-98.388a71.11068,71.11068,0,0,1-21.23419-10.82388l-61.42069,82.75637A173.83178,173.83178,0,0,0,418.96837,706.50133Z" style="fill:#4d4d4d"/><path d="M418.96837,706.50133a173.83178,173.83178,0,0,1-51.90861-26.4555l-61.41924,82.75431a276.54906,276.54906,0,0,0,82.58183,42.08821Z" style="fill:#252525"/><path d="M455.74032,713.72535a173.65337,173.65337,0,0,1-36.772-7.224l-30.746,98.387a276.26428,276.26428,0,0,0,58.50086,11.4929Z" style="fill:#a8a8a8"/><path d="M533.77373,702.74665l-37.099-96.18255a71.51319,71.51319,0,0,1-46.96007,1.54924l-30.74627,98.388a175.13651,175.13651,0,0,0,114.80536-3.75468Z" style="fill:#a9a9a9"/><path d="M542.34439,540a71.3548,71.3548,0,0,1-45.66968,66.5641l37.099,96.18255A174.42029,174.42029,0,0,0,471,365.60261v103.053A71.34436,71.34436,0,0,1,542.34439,540Z" style="fill:#e1e1e1"/><path d="M533.77373,702.74665q-3.76555,1.4533-7.612,2.73838l32.59548,97.78658q6.12064-2.03935,12.11015-4.35645Z" style="fill:#898989"/><path d="M526.16168,705.485q-4.96977,1.6558-10.0703,3.01417l26.64479,99.5677q8.10957-2.16474,16.021-4.79529Z" style="fill:#5f5f5f"/><path d="M542.73617,808.0669l-26.64479-99.5677A174.605,174.605,0,0,1,471,714.39739c-5.1428,0-10.23-.236-15.25968-.672l-9.01711,102.6559c8.00191.69381,16.095,1.06915,24.27679,1.06915A277.78179,277.78179,0,0,0,542.73617,808.0669Z" style="fill:#363636"/><path d="M508.83748,369.73141,531.196,269.11815A278.38067,278.38067,0,0,0,471,262.5496v103.053A174.98605,174.98605,0,0,1,508.83748,369.73141Z" style="fill:#b4b4b4"/><path d="M531.196,269.11815l-22.3585,100.61326a174.03612,174.03612,0,0,1,84.05691,45.5613l72.02841-73.69062A276.87291,276.87291,0,0,0,531.196,269.11815Z" style="fill:#999"/></g></g><g id="Layer_6" data-name="Layer 6"><path d="M399.947,540.00006a71.05315,71.05315,0,1,1,20.81092,50.24213A70.83021,70.83021,0,0,1,399.947,540.00006Z" style="fill:none;stroke:#fff;stroke-miterlimit:10;stroke-width:3px;opacity:0.3"/><path d="M193.54972,539.99986a277.45053,277.45053,0,1,1,81.26312,196.187A276.58009,276.58009,0,0,1,193.54972,539.99986Z" style="fill:none;stroke:#fff;stroke-miterlimit:10;stroke-width:3px;opacity:0.3"/><circle cx="471" cy="540" r="174.39738" style="fill:none;stroke:#fff;stroke-miterlimit:10;stroke-width:3px;opacity:0.3"/><path d="M374.13112,220H567.8683c64.25045,0,96.37325,0,130.95637,10.93444a135.936,135.936,0,0,1,81.24208,81.24145C791,346.7575,791,378.88125,791,443.13145V636.86888c0,64.24987,0,96.37269-10.93325,130.95643a135.93189,135.93189,0,0,1-81.24208,81.239C664.24155,860,632.11875,860,567.8683,860H374.13112c-64.24987,0-96.37362,0-130.95525-10.93569a135.92557,135.92557,0,0,1-81.24143-81.239C151,733.24157,151,701.11875,151,636.86888V443.13145c0-64.2502,0-96.37395,10.93444-130.95556a135.92968,135.92968,0,0,1,81.24143-81.24145C277.7575,220,309.88125,220,374.13112,220h0" style="fill:none;stroke:#000;stroke-miterlimit:10;stroke-width:3px;opacity:0.6000000000000001"/></g></svg>