<svg xmlns="http://www.w3.org/2000/svg" viewBox="0 0 942 1080"><defs><style>.cls-1{isolation:isolate;}.cls-2{fill:#f7f6f1;}.cls-3{fill:#0d7da0;}.cls-3,.cls-4{mix-blend-mode:multiply;}.cls-4{fill:#ffab2e;}</style></defs><g class="cls-1"><g id="Layer_5" data-name="Layer 5"><rect class="cls-2" width="942" height="1080"/></g><g id="Layer_1" data-name="Layer 1"><path class="cls-3" d="M471.55,875.83a70.74,70.74,0,0,1-35.43-132L665.83,611.2a70.73,70.73,0,1,1,70.74,122.51L506.86,866.34A70.46,70.46,0,0,1,471.55,875.83Z"/><path class="cls-4" d="M701.2,743.19a70.74,70.74,0,0,1-70.73-70.74V407.2a70.74,70.74,0,0,1,141.47,0V672.45A70.74,70.74,0,0,1,701.2,743.19Z"/><path class="cls-3" d="M701.14,478a70.43,70.43,0,0,1-35.31-9.49L436.12,335.83a70.73,70.73,0,1,1,70.74-122.51L736.57,346a70.74,70.74,0,0,1-35.43,132Z"/><path class="cls-4" d="M241.84,478a70.74,70.74,0,0,1-35.43-132L436.12,213.32a70.73,70.73,0,1,1,70.74,122.51L277.14,468.46A70.42,70.42,0,0,1,241.84,478Z"/><path class="cls-3" d="M241.77,743.19A70.74,70.74,0,0,1,171,672.45V407.2a70.74,70.74,0,0,1,141.47,0V672.45A70.74,70.74,0,0,1,241.77,743.19Z"/><path class="cls-4" d="M471.42,875.83a70.42,70.42,0,0,1-35.3-9.49L206.41,733.71A70.73,70.73,0,1,1,277.14,611.2L506.86,743.83a70.74,70.74,0,0,1-35.44,132Z"/></g></g></svg>