<svg xmlns="http://www.w3.org/2000/svg" viewBox="0 0 1920 1080"><defs><style>.cls-1{fill:#f7f6f1;}.cls-2,.cls-4,.cls-5{opacity:0.3;}.cls-3,.cls-4,.cls-5,.cls-8{fill:none;stroke:#0c7897;stroke-miterlimit:10;}.cls-3,.cls-5{stroke-linecap:square;}.cls-4,.cls-5{stroke-width:2px;}.cls-6{opacity:0.2;}.cls-7{fill:#0c7897;}.cls-8{stroke-width:3px;}</style></defs><g id="Layer_4" data-name="Layer 4"><rect class="cls-1" width="1920" height="1080"/></g><g id="Layer_6" data-name="Layer 6"><g class="cls-2"><line class="cls-3" x1="269.17" y1="497.68" x2="1650.86" y2="497.68"/><line class="cls-3" x1="269.17" y1="506.16" x2="1650.86" y2="506.16"/><line class="cls-3" x1="269.17" y1="489.2" x2="1650.86" y2="489.2"/><line class="cls-3" x1="269.17" y1="480.73" x2="1650.86" y2="480.73"/><line class="cls-3" x1="269.17" y1="472.25" x2="1650.86" y2="472.25"/><line class="cls-3" x1="269.17" y1="463.77" x2="1650.86" y2="463.77"/><line class="cls-3" x1="269.17" y1="455.3" x2="1650.86" y2="455.3"/><line class="cls-3" x1="269.17" y1="446.82" x2="1650.86" y2="446.82"/><line class="cls-3" x1="269.17" y1="438.34" x2="1650.86" y2="438.34"/><line class="cls-3" x1="269.17" y1="429.87" x2="1650.86" y2="429.87"/><line class="cls-3" x1="269.17" y1="421.39" x2="1650.86" y2="421.39"/><line class="cls-3" x1="269.17" y1="412.91" x2="1650.86" y2="412.91"/><line class="cls-3" x1="269.17" y1="404.44" x2="1650.86" y2="404.44"/><line class="cls-3" x1="269.17" y1="395.96" x2="1650.86" y2="395.96"/><line class="cls-3" x1="269.17" y1="565.5" x2="1650.86" y2="565.5"/><line class="cls-3" x1="269.17" y1="573.97" x2="1650.86" y2="573.97"/><line class="cls-3" x1="269.17" y1="557.02" x2="1650.86" y2="557.02"/><line class="cls-3" x1="269.17" y1="548.54" x2="1650.86" y2="548.54"/><line class="cls-3" x1="269.17" y1="540.07" x2="1650.86" y2="540.07"/><line class="cls-3" x1="269.17" y1="531.59" x2="1650.86" y2="531.59"/><line class="cls-3" x1="269.17" y1="523.11" x2="1650.86" y2="523.11"/><line class="cls-3" x1="269.17" y1="514.64" x2="1650.86" y2="514.64"/><line class="cls-3" x1="269.17" y1="633.31" x2="1650.86" y2="633.31"/><line class="cls-3" x1="269.17" y1="624.83" x2="1650.86" y2="624.83"/><line class="cls-3" x1="269.17" y1="616.36" x2="1650.86" y2="616.36"/><line class="cls-3" x1="269.17" y1="607.88" x2="1650.86" y2="607.88"/><line class="cls-3" x1="269.17" y1="599.4" x2="1650.86" y2="599.4"/><line class="cls-3" x1="269.17" y1="590.93" x2="1650.86" y2="590.93"/><line class="cls-3" x1="269.17" y1="582.45" x2="1650.86" y2="582.45"/><line class="cls-3" x1="269.17" y1="684.17" x2="1650.86" y2="684.17"/><line class="cls-3" x1="269.17" y1="675.69" x2="1650.86" y2="675.69"/><line class="cls-3" x1="269.17" y1="667.22" x2="1650.86" y2="667.22"/><line class="cls-3" x1="269.17" y1="658.74" x2="1650.86" y2="658.74"/><line class="cls-3" x1="269.17" y1="650.26" x2="1650.86" y2="650.26"/><line class="cls-3" x1="269.17" y1="641.79" x2="1650.86" y2="641.79"/></g><g class="cls-2"><line class="cls-3" x1="735.38" y1="395.96" x2="735.38" y2="684.17"/><line class="cls-3" x1="743.86" y1="395.96" x2="743.86" y2="684.17"/><line class="cls-3" x1="752.34" y1="395.96" x2="752.34" y2="684.17"/><line class="cls-3" x1="760.81" y1="395.96" x2="760.81" y2="684.17"/><line class="cls-3" x1="769.29" y1="395.96" x2="769.29" y2="684.17"/><line class="cls-3" x1="777.77" y1="395.96" x2="777.77" y2="684.17"/><line class="cls-3" x1="786.24" y1="395.96" x2="786.24" y2="684.17"/><line class="cls-3" x1="794.72" y1="395.96" x2="794.72" y2="684.17"/><line class="cls-3" x1="803.2" y1="395.96" x2="803.2" y2="684.17"/><line class="cls-3" x1="811.67" y1="395.96" x2="811.67" y2="684.17"/><line class="cls-3" x1="820.15" y1="395.96" x2="820.15" y2="684.17"/><line class="cls-3" x1="828.63" y1="395.96" x2="828.63" y2="684.17"/><line class="cls-3" x1="837.1" y1="395.96" x2="837.1" y2="684.17"/><line class="cls-3" x1="845.58" y1="395.96" x2="845.58" y2="684.17"/><line class="cls-3" x1="854.06" y1="395.96" x2="854.06" y2="684.17"/><line class="cls-3" x1="862.53" y1="395.96" x2="862.53" y2="684.17"/><line class="cls-3" x1="871.01" y1="395.96" x2="871.01" y2="684.17"/><line class="cls-3" x1="879.49" y1="395.96" x2="879.49" y2="684.17"/><line class="cls-3" x1="887.96" y1="395.96" x2="887.96" y2="684.17"/><line class="cls-3" x1="896.44" y1="395.96" x2="896.44" y2="684.17"/><line class="cls-3" x1="557.37" y1="395.96" x2="557.37" y2="684.17"/><line class="cls-3" x1="548.89" y1="395.96" x2="548.89" y2="684.17"/><line class="cls-3" x1="540.41" y1="395.96" x2="540.41" y2="684.17"/><line class="cls-3" x1="531.94" y1="395.96" x2="531.94" y2="684.17"/><line class="cls-3" x1="523.46" y1="395.96" x2="523.46" y2="684.17"/><line class="cls-3" x1="514.98" y1="395.96" x2="514.98" y2="684.17"/><line class="cls-3" x1="506.51" y1="395.96" x2="506.51" y2="684.17"/><line class="cls-3" x1="498.03" y1="395.96" x2="498.03" y2="684.17"/><line class="cls-3" x1="489.55" y1="395.96" x2="489.55" y2="684.17"/><line class="cls-3" x1="481.08" y1="395.96" x2="481.08" y2="684.17"/><line class="cls-3" x1="472.6" y1="395.96" x2="472.6" y2="684.17"/><line class="cls-3" x1="464.12" y1="395.96" x2="464.12" y2="684.17"/><line class="cls-3" x1="455.65" y1="395.96" x2="455.65" y2="684.17"/><line class="cls-3" x1="447.17" y1="395.96" x2="447.17" y2="684.17"/><line class="cls-3" x1="438.69" y1="395.96" x2="438.69" y2="684.17"/><line class="cls-3" x1="430.22" y1="395.96" x2="430.22" y2="684.17"/><line class="cls-3" x1="421.74" y1="395.96" x2="421.74" y2="684.17"/><line class="cls-3" x1="413.26" y1="395.96" x2="413.26" y2="684.17"/><line class="cls-3" x1="404.79" y1="395.96" x2="404.79" y2="684.17"/><line class="cls-3" x1="396.31" y1="395.96" x2="396.31" y2="684.17"/><line class="cls-3" x1="387.83" y1="395.96" x2="387.83" y2="684.17"/><line class="cls-3" x1="379.35" y1="395.96" x2="379.35" y2="684.17"/><line class="cls-3" x1="370.88" y1="395.96" x2="370.88" y2="684.17"/><line class="cls-3" x1="362.4" y1="395.96" x2="362.4" y2="684.17"/><line class="cls-3" x1="353.92" y1="395.96" x2="353.92" y2="684.17"/><line class="cls-3" x1="345.45" y1="395.96" x2="345.45" y2="684.17"/><line class="cls-3" x1="336.97" y1="395.96" x2="336.97" y2="684.17"/><line class="cls-3" x1="328.49" y1="395.96" x2="328.49" y2="684.17"/><line class="cls-3" x1="320.02" y1="395.96" x2="320.02" y2="684.17"/><line class="cls-3" x1="311.54" y1="395.96" x2="311.54" y2="684.17"/><line class="cls-3" x1="303.06" y1="395.96" x2="303.06" y2="684.17"/><line class="cls-3" x1="294.59" y1="395.96" x2="294.59" y2="684.17"/><line class="cls-3" x1="286.11" y1="395.96" x2="286.11" y2="684.17"/><line class="cls-3" x1="277.63" y1="395.96" x2="277.63" y2="684.17"/><line class="cls-3" x1="269.16" y1="395.96" x2="269.16" y2="684.17"/><line class="cls-3" x1="565.84" y1="395.96" x2="565.84" y2="684.17"/><line class="cls-3" x1="574.32" y1="395.96" x2="574.32" y2="684.17"/><line class="cls-3" x1="591.28" y1="395.96" x2="591.28" y2="684.17"/><line class="cls-3" x1="582.8" y1="395.96" x2="582.8" y2="684.17"/><line class="cls-3" x1="599.75" y1="395.96" x2="599.75" y2="684.17"/><line class="cls-3" x1="608.23" y1="395.96" x2="608.23" y2="684.17"/><line class="cls-3" x1="616.71" y1="395.96" x2="616.71" y2="684.17"/><line class="cls-3" x1="625.18" y1="395.96" x2="625.18" y2="684.17"/><line class="cls-3" x1="633.66" y1="395.96" x2="633.66" y2="684.17"/><line class="cls-3" x1="642.14" y1="395.96" x2="642.14" y2="684.17"/><line class="cls-3" x1="650.61" y1="395.96" x2="650.61" y2="684.17"/><line class="cls-3" x1="659.09" y1="395.96" x2="659.09" y2="684.17"/><line class="cls-3" x1="667.57" y1="395.96" x2="667.57" y2="684.17"/><line class="cls-3" x1="676.04" y1="395.96" x2="676.04" y2="684.17"/><line class="cls-3" x1="684.52" y1="395.96" x2="684.52" y2="684.17"/><line class="cls-3" x1="693" y1="395.96" x2="693" y2="684.17"/><line class="cls-3" x1="701.47" y1="395.96" x2="701.47" y2="684.17"/><line class="cls-3" x1="709.95" y1="395.96" x2="709.95" y2="684.17"/><line class="cls-3" x1="718.43" y1="395.96" x2="718.43" y2="684.17"/><line class="cls-3" x1="726.9" y1="395.96" x2="726.9" y2="684.17"/><line class="cls-3" x1="904.92" y1="395.96" x2="904.92" y2="684.17"/><line class="cls-3" x1="913.39" y1="395.96" x2="913.39" y2="684.17"/><line class="cls-3" x1="921.87" y1="395.96" x2="921.87" y2="684.17"/><line class="cls-3" x1="930.35" y1="395.96" x2="930.35" y2="684.17"/><line class="cls-3" x1="938.83" y1="395.96" x2="938.83" y2="684.17"/><line class="cls-3" x1="947.3" y1="395.96" x2="947.3" y2="684.17"/><line class="cls-3" x1="955.78" y1="395.96" x2="955.78" y2="684.17"/><line class="cls-3" x1="964.26" y1="395.96" x2="964.26" y2="684.17"/><line class="cls-3" x1="972.73" y1="395.96" x2="972.73" y2="684.17"/><line class="cls-3" x1="981.21" y1="395.96" x2="981.21" y2="684.17"/><line class="cls-3" x1="989.69" y1="395.96" x2="989.69" y2="684.17"/><line class="cls-3" x1="998.16" y1="395.96" x2="998.16" y2="684.17"/><line class="cls-3" x1="1006.64" y1="395.96" x2="1006.64" y2="684.17"/><line class="cls-3" x1="1015.12" y1="395.96" x2="1015.12" y2="684.17"/><line class="cls-3" x1="1023.59" y1="395.96" x2="1023.59" y2="684.17"/><line class="cls-3" x1="1032.07" y1="395.96" x2="1032.07" y2="684.17"/><line class="cls-3" x1="1040.55" y1="395.96" x2="1040.55" y2="684.17"/><line class="cls-3" x1="1049.02" y1="395.96" x2="1049.02" y2="684.17"/><line class="cls-3" x1="1057.5" y1="395.96" x2="1057.5" y2="684.17"/><line class="cls-3" x1="1065.98" y1="395.96" x2="1065.98" y2="684.17"/><line class="cls-3" x1="1277.9" y1="395.96" x2="1277.9" y2="684.17"/><line class="cls-3" x1="1286.37" y1="395.96" x2="1286.37" y2="684.17"/><line class="cls-3" x1="1294.85" y1="395.96" x2="1294.85" y2="684.17"/><line class="cls-3" x1="1303.33" y1="395.96" x2="1303.33" y2="684.17"/><line class="cls-3" x1="1311.81" y1="395.96" x2="1311.81" y2="684.17"/><line class="cls-3" x1="1320.28" y1="395.96" x2="1320.28" y2="684.17"/><line class="cls-3" x1="1328.76" y1="395.96" x2="1328.76" y2="684.17"/><line class="cls-3" x1="1337.24" y1="395.96" x2="1337.24" y2="684.17"/><line class="cls-3" x1="1345.71" y1="395.96" x2="1345.71" y2="684.17"/><line class="cls-3" x1="1354.19" y1="395.96" x2="1354.19" y2="684.17"/><line class="cls-3" x1="1362.67" y1="395.96" x2="1362.67" y2="684.17"/><line class="cls-3" x1="1371.14" y1="395.96" x2="1371.14" y2="684.17"/><line class="cls-3" x1="1379.62" y1="395.96" x2="1379.62" y2="684.17"/><line class="cls-3" x1="1388.1" y1="395.96" x2="1388.1" y2="684.17"/><line class="cls-3" x1="1396.57" y1="395.96" x2="1396.57" y2="684.17"/><line class="cls-3" x1="1405.05" y1="395.96" x2="1405.05" y2="684.17"/><line class="cls-3" x1="1413.53" y1="395.96" x2="1413.53" y2="684.17"/><line class="cls-3" x1="1422" y1="395.96" x2="1422" y2="684.17"/><line class="cls-3" x1="1430.48" y1="395.96" x2="1430.48" y2="684.17"/><line class="cls-3" x1="1438.96" y1="395.96" x2="1438.96" y2="684.17"/><line class="cls-3" x1="1447.43" y1="395.96" x2="1447.43" y2="684.17"/><line class="cls-3" x1="1455.91" y1="395.96" x2="1455.91" y2="684.17"/><line class="cls-3" x1="1464.39" y1="395.96" x2="1464.39" y2="684.17"/><line class="cls-3" x1="1472.86" y1="395.96" x2="1472.86" y2="684.17"/><line class="cls-3" x1="1481.34" y1="395.96" x2="1481.34" y2="684.17"/><line class="cls-3" x1="1489.82" y1="395.96" x2="1489.82" y2="684.17"/><line class="cls-3" x1="1498.3" y1="395.96" x2="1498.3" y2="684.17"/><line class="cls-3" x1="1506.77" y1="395.96" x2="1506.77" y2="684.17"/><line class="cls-3" x1="1515.25" y1="395.96" x2="1515.25" y2="684.17"/><line class="cls-3" x1="1523.73" y1="395.96" x2="1523.73" y2="684.17"/><line class="cls-3" x1="1532.2" y1="395.96" x2="1532.2" y2="684.17"/><line class="cls-3" x1="1540.68" y1="395.96" x2="1540.68" y2="684.17"/><line class="cls-3" x1="1549.16" y1="395.96" x2="1549.16" y2="684.17"/><line class="cls-3" x1="1557.63" y1="395.96" x2="1557.63" y2="684.17"/><line class="cls-3" x1="1566.11" y1="395.96" x2="1566.11" y2="684.17"/><line class="cls-3" x1="1574.59" y1="395.96" x2="1574.59" y2="684.17"/><line class="cls-3" x1="1583.06" y1="395.96" x2="1583.06" y2="684.17"/><line class="cls-3" x1="1591.54" y1="395.96" x2="1591.54" y2="684.17"/><line class="cls-3" x1="1600.02" y1="395.96" x2="1600.02" y2="684.17"/><line class="cls-3" x1="1608.48" y1="395.96" x2="1608.48" y2="684.17"/><line class="cls-3" x1="1616.96" y1="395.96" x2="1616.96" y2="684.17"/><line class="cls-3" x1="1625.43" y1="395.96" x2="1625.43" y2="684.17"/><line class="cls-3" x1="1633.91" y1="395.96" x2="1633.91" y2="684.17"/><line class="cls-3" x1="1642.39" y1="395.96" x2="1642.39" y2="684.17"/><line class="cls-3" x1="1650.86" y1="395.96" x2="1650.86" y2="684.17"/><line class="cls-3" x1="1074.45" y1="395.96" x2="1074.45" y2="684.17"/><line class="cls-3" x1="1082.93" y1="395.96" x2="1082.93" y2="684.17"/><line class="cls-3" x1="1091.41" y1="395.96" x2="1091.41" y2="684.17"/><line class="cls-3" x1="1099.88" y1="395.96" x2="1099.88" y2="684.17"/><line class="cls-3" x1="1108.36" y1="395.96" x2="1108.36" y2="684.17"/><line class="cls-3" x1="1116.84" y1="395.96" x2="1116.84" y2="684.17"/><line class="cls-3" x1="1125.32" y1="395.96" x2="1125.32" y2="684.17"/><line class="cls-3" x1="1133.79" y1="395.96" x2="1133.79" y2="684.17"/><line class="cls-3" x1="1142.27" y1="395.96" x2="1142.27" y2="684.17"/><line class="cls-3" x1="1150.75" y1="395.96" x2="1150.75" y2="684.17"/><line class="cls-3" x1="1159.22" y1="395.96" x2="1159.22" y2="684.17"/><line class="cls-3" x1="1167.7" y1="395.96" x2="1167.7" y2="684.17"/><line class="cls-3" x1="1176.18" y1="395.96" x2="1176.18" y2="684.17"/><line class="cls-3" x1="1184.65" y1="395.96" x2="1184.65" y2="684.17"/><line class="cls-3" x1="1193.13" y1="395.96" x2="1193.13" y2="684.17"/><line class="cls-3" x1="1201.61" y1="395.96" x2="1201.61" y2="684.17"/><line class="cls-3" x1="1210.08" y1="395.96" x2="1210.08" y2="684.17"/><line class="cls-3" x1="1218.56" y1="395.96" x2="1218.56" y2="684.17"/><line class="cls-3" x1="1227.04" y1="395.96" x2="1227.04" y2="684.17"/><line class="cls-3" x1="1235.51" y1="395.96" x2="1235.51" y2="684.17"/><line class="cls-3" x1="1243.99" y1="395.96" x2="1243.99" y2="684.17"/><line class="cls-3" x1="1252.47" y1="395.96" x2="1252.47" y2="684.17"/><line class="cls-3" x1="1260.94" y1="395.96" x2="1260.94" y2="684.17"/><line class="cls-3" x1="1269.42" y1="395.96" x2="1269.42" y2="684.17"/></g></g><g id="arcs"><circle class="cls-4" cx="1303.32" cy="472.25" r="25.43" transform="matrix(0.96, -0.28, 0.28, 0.96, -80.3, 386.99)"/><circle class="cls-4" cx="1303.32" cy="607.88" r="25.43"/><circle class="cls-4" cx="1405.04" cy="569.73" r="25.43"/><circle class="cls-4" cx="574.32" cy="472.25" r="25.43" transform="translate(-126.46 223.72) rotate(-19.9)"/><circle class="cls-4" cx="692.99" cy="472.25" r="25.43" transform="translate(-51.51 86.28) rotate(-6.87)"/><circle class="cls-4" cx="633.66" cy="607.88" r="25.43"/><circle class="cls-4" cx="345.45" cy="607.88" r="25.43"/><circle class="cls-4" cx="447.17" cy="607.88" r="25.43"/><circle class="cls-4" cx="396.31" cy="472.25" r="25.43" transform="translate(-150.56 187.61) rotate(-22.5)"/><circle class="cls-4" cx="498.03" cy="472.25" r="25.43" transform="translate(-142.81 226.54) rotate(-22.5)"/><circle class="cls-4" cx="548.89" cy="607.88" r="25.43"/><circle class="cls-4" cx="633.66" cy="548.54" r="25.43"/><circle class="cls-5" cx="760.81" cy="472.25" r="25.43" transform="translate(-121.87 321.5) rotate(-22.14)"/><circle class="cls-5" cx="811.67" cy="523.11" r="25.43" transform="translate(-139.5 356.62) rotate(-22.87)"/><circle class="cls-5" cx="862.53" cy="472.25" r="25.43" transform="translate(-114.37 359.83) rotate(-22.14)"/><circle class="cls-5" cx="760.81" cy="607.88" r="25.43"/><circle class="cls-5" cx="862.53" cy="607.88" r="25.43"/><circle class="cls-5" cx="1472.85" cy="472.25" r="25.43" transform="translate(-69.38 589.81) rotate(-22.14)"/><circle class="cls-5" cx="1540.67" cy="540.06" r="25.43"/><circle class="cls-5" cx="1574.57" cy="472.25" r="25.43" transform="translate(-46.6 744.44) rotate(-26.23)"/><circle class="cls-5" cx="1472.85" cy="607.88" r="25.43"/><circle class="cls-5" cx="1574.57" cy="607.88" r="25.43"/><circle class="cls-5" cx="930.34" cy="472.25" r="25.43" transform="translate(-112.3 434.12) rotate(-24.82)"/><circle class="cls-5" cx="1032.06" cy="514.63" r="25.43" transform="translate(-105.7 326.21) rotate(-17.1)"/><circle class="cls-5" cx="989.68" cy="514.63" r="67.81"/><circle class="cls-5" cx="1366.89" cy="569.73" r="63.58"/><circle class="cls-5" cx="1383.85" cy="569.73" r="46.62" transform="translate(505.58 1781.46) rotate(-76.44)"/><circle class="cls-5" cx="930.34" cy="607.88" r="25.43"/><circle class="cls-5" cx="1032.06" cy="607.88" r="25.43"/><circle class="cls-5" cx="1167.69" cy="607.88" r="25.43"/><circle class="cls-5" cx="1167.69" cy="472.25" r="25.43" transform="translate(-91.88 474.82) rotate(-22.14)"/><circle class="cls-5" cx="1167.69" cy="540.06" r="42.38" transform="translate(-39.87 983.86) rotate(-45)"/><circle class="cls-5" cx="1167.69" cy="540.06" r="93.24"/><circle class="cls-5" cx="1358.42" cy="501.92" r="55.1"/></g><g id="logotype_copy" data-name="logotype copy"><g class="cls-6"><path class="cls-7" d="M1406.43,528.94a55.09,55.09,0,0,0-48-82.12h-55.1a25.43,25.43,0,0,0-25.43,25.43V607.88a25.43,25.43,0,0,0,25.43,25.43h63.57a63.57,63.57,0,0,0,63.58-63.58A46.63,46.63,0,0,0,1406.43,528.94Zm-48-31.26a12.72,12.72,0,0,1,0,25.43h-29.67V497.68Zm8.47,84.77h-38.14V557h38.14a12.72,12.72,0,1,1,0,25.43Z"/></g><g class="cls-6"><path class="cls-7" d="M521.83,463.24c-.09-.24-.21-.47-.31-.71-.17-.43-.35-.86-.55-1.27s-.37-.74-.56-1.11-.39-.71-.6-1.06-.47-.75-.71-1.11-.43-.63-.66-.94-.54-.7-.82-1-.5-.6-.76-.89-.57-.61-.87-.91-.6-.58-.91-.87-.58-.51-.88-.75-.69-.57-1.05-.83l-.92-.65c-.38-.25-.75-.49-1.14-.72s-.68-.39-1-.58-.75-.4-1.14-.59l-1.22-.52c-.25-.11-.49-.23-.75-.33l-.34-.11c-.43-.15-.88-.29-1.32-.42l-1.09-.32c-.43-.11-.87-.19-1.31-.27s-.77-.16-1.15-.22-.85-.1-1.27-.14-.81-.09-1.21-.11-.83,0-1.25,0-.82,0-1.23,0-.82.08-1.23.12-.83.07-1.24.13-.78.14-1.17.22-.87.17-1.29.27l-1.08.32c-.45.13-.91.27-1.35.43l-.33.1c-.25.09-.48.22-.73.32-.42.17-.84.35-1.25.54s-.74.37-1.11.57-.71.38-1.06.59-.75.47-1.11.72-.63.43-.94.66-.7.53-1,.81-.6.5-.89.77-.61.56-.9.86-.59.6-.88.91-.51.59-.76.89-.55.68-.82,1-.44.62-.65.94-.49.73-.72,1.11-.4.71-.59,1.06-.39.73-.57,1.11-.37.84-.55,1.27c-.1.24-.22.47-.31.71l-27,72.13-27.05-72.13c-.09-.24-.21-.47-.31-.72-.17-.42-.35-.85-.55-1.26s-.37-.74-.56-1.1-.39-.72-.6-1.07-.47-.74-.71-1.11-.43-.63-.66-.94-.53-.7-.81-1-.51-.6-.77-.89-.57-.61-.87-.9-.6-.59-.91-.88-.58-.51-.88-.75-.69-.56-1.05-.83-.62-.44-.93-.65-.74-.49-1.13-.72-.69-.4-1-.59-.74-.39-1.12-.57-.83-.37-1.24-.54l-.74-.32-.33-.1c-.45-.16-.9-.3-1.36-.44s-.7-.22-1.06-.3-.89-.2-1.34-.29-.74-.15-1.12-.21-.87-.1-1.3-.14-.78-.09-1.17-.11-.86,0-1.29,0-.8,0-1.19,0-.84.08-1.26.12-.81.07-1.22.13-.79.14-1.18.22-.86.17-1.28.27l-1.1.32c-.44.14-.89.27-1.32.42l-.34.11c-.26.1-.5.22-.75.33l-1.22.52c-.39.19-.76.39-1.14.59s-.69.37-1,.58-.76.47-1.14.73-.61.42-.91.64-.71.54-1.06.83-.59.49-.88.75l-.91.88c-.3.29-.58.59-.86.9s-.52.59-.77.89-.55.68-.81,1-.45.62-.67.94-.48.73-.71,1.11-.4.71-.59,1.07-.39.72-.57,1.1-.37.84-.55,1.26c-.1.25-.22.48-.31.72L321.63,598.87a25.43,25.43,0,1,0,47.62,17.86L396.3,544.6l27.05,72.13c.15.39.32.77.48,1.15.08.18.15.37.24.55q.48,1.05,1.05,2s.05.08.07.13c.36.61.74,1.21,1.15,1.78.1.16.22.31.33.46.34.47.7.92,1.06,1.35l.43.5c.4.44.81.87,1.23,1.28l.36.37c.54.5,1.1,1,1.67,1.43l.56.42c.43.31.85.61,1.29.9l.71.44c.48.29,1,.56,1.46.82l.54.28c.68.34,1.39.64,2.1.92l.15.06.45.15c.48.16,1,.32,1.45.46l.73.2c.45.12.9.22,1.35.31l.77.14c.47.08.94.14,1.42.2l.68.07q1,.09,2,.09h.08c.69,0,1.37,0,2.05-.09l.68-.07,1.41-.19.77-.15c.46-.09.9-.19,1.35-.31l.74-.2c.49-.14,1-.3,1.44-.46l.45-.15.15-.06c.72-.28,1.42-.58,2.11-.92l.53-.28c.5-.26,1-.53,1.46-.82l.71-.44q.66-.44,1.29-.9l.56-.42c.58-.45,1.13-.93,1.67-1.43l.37-.37c.42-.41.83-.84,1.22-1.28.15-.16.29-.33.43-.5.37-.44.72-.88,1.06-1.35.11-.15.23-.3.34-.46.4-.57.78-1.16,1.13-1.77l.09-.14q.57-1,1.05-2c.08-.18.15-.38.23-.56.17-.38.34-.75.48-1.14l27-72.13,27.05,72.13a25.43,25.43,0,1,0,47.62-17.86Z"/></g><g class="cls-6"><path class="cls-7" d="M708.61,452.09a25.42,25.42,0,0,0-35.68,4.48l-39.26,50.52-39.26-50.52a25.43,25.43,0,0,0-40.16,31.2l54,69.49V607.8a25.43,25.43,0,0,0,50.86,0V557.26l54-69.49A25.42,25.42,0,0,0,708.61,452.09Z"/></g><g class="cls-6"><path class="cls-7" d="M880.52,454.19a25.43,25.43,0,0,0-36,0L786.25,512.5V472.17a25.43,25.43,0,1,0-50.86,0V607.8a25.43,25.43,0,1,0,50.86,0V584.43L806.63,564l34.11,56.84a25.43,25.43,0,0,0,43.61-26.17L843.7,527l36.82-36.82A25.43,25.43,0,0,0,880.52,454.19Z"/></g><g class="cls-6"><path class="cls-7" d="M1101.76,474.05a93.24,93.24,0,1,0,131.86,0A93.35,93.35,0,0,0,1101.76,474.05Zm36,95.9a42.38,42.38,0,1,1,59.94,0A42.43,42.43,0,0,1,1137.72,570Z"/></g><g class="cls-6"><path class="cls-7" d="M1574.57,582.45h-76.29v-17h42.39a25.44,25.44,0,0,0,0-50.87h-42.39V497.68h76.29a25.43,25.43,0,1,0,0-50.86H1474.43c-.53,0-1-.08-1.58-.08a25.44,25.44,0,0,0-25.43,25.43V607.88a25.44,25.44,0,0,0,25.43,25.43h101.72a25.43,25.43,0,1,0,0-50.86Z"/></g><g class="cls-6"><path class="cls-7" d="M1057.51,514.55a67.9,67.9,0,0,0-67.82-67.81H930.36a25.43,25.43,0,0,0-25.43,25.43V607.8a25.43,25.43,0,1,0,50.86,0V582.37h31.37l23.11,38.51a25.43,25.43,0,0,0,43.61-26.16l-18.22-30.37A67.65,67.65,0,0,0,1057.51,514.55ZM955.79,497.6h33.9a17,17,0,1,1,0,33.91h-33.9Z"/></g></g><g id="logotype"><path class="cls-8" d="M1406.43,528.94a55.09,55.09,0,0,0-48-82.12h-55.1a25.43,25.43,0,0,0-25.43,25.43V607.88a25.43,25.43,0,0,0,25.43,25.43h63.57a63.57,63.57,0,0,0,63.58-63.58A46.63,46.63,0,0,0,1406.43,528.94Zm-48-31.26a12.72,12.72,0,0,1,0,25.43h-29.67V497.68Zm8.47,84.77h-38.14V557h38.14a12.72,12.72,0,1,1,0,25.43Z"/><path class="cls-8" d="M521.83,463.24c-.09-.24-.21-.47-.31-.71-.17-.43-.35-.86-.55-1.27s-.37-.74-.56-1.11-.39-.71-.6-1.06-.47-.75-.71-1.11-.43-.63-.66-.94-.54-.7-.82-1-.5-.6-.76-.89-.57-.61-.87-.91-.6-.58-.91-.87-.58-.51-.88-.75-.69-.57-1.05-.83l-.92-.65c-.38-.25-.75-.49-1.14-.72s-.68-.39-1-.58-.75-.4-1.14-.59l-1.22-.52c-.25-.11-.49-.23-.75-.33l-.34-.11c-.43-.15-.88-.29-1.32-.42l-1.09-.32c-.43-.11-.87-.19-1.31-.27s-.77-.16-1.15-.22-.85-.1-1.27-.14-.81-.09-1.21-.11-.83,0-1.25,0-.82,0-1.23,0-.82.08-1.23.12-.83.07-1.24.13-.78.14-1.17.22-.87.17-1.29.27l-1.08.32c-.45.13-.91.27-1.35.43l-.33.1c-.25.09-.48.22-.73.32-.42.17-.84.35-1.25.54s-.74.37-1.11.57-.71.38-1.06.59-.75.47-1.11.72-.63.43-.94.66-.7.53-1,.81-.6.5-.89.77-.61.56-.9.86-.59.6-.88.91-.51.59-.76.89-.55.68-.82,1-.44.62-.65.94-.49.73-.72,1.11-.4.71-.59,1.06-.39.73-.57,1.11-.37.84-.55,1.27c-.1.24-.22.47-.31.71l-27,72.13-27.05-72.13c-.09-.24-.21-.47-.31-.72-.17-.42-.35-.85-.55-1.26s-.37-.74-.56-1.1-.39-.72-.6-1.07-.47-.74-.71-1.11-.43-.63-.66-.94-.53-.7-.81-1-.51-.6-.77-.89-.57-.61-.87-.9-.6-.59-.91-.88-.58-.51-.88-.75-.69-.56-1.05-.83-.62-.44-.93-.65-.74-.49-1.13-.72-.69-.4-1-.59-.74-.39-1.12-.57-.83-.37-1.24-.54l-.74-.32-.33-.1c-.45-.16-.9-.3-1.36-.44s-.7-.22-1.06-.3-.89-.2-1.34-.29-.74-.15-1.12-.21-.87-.1-1.3-.14-.78-.09-1.17-.11-.86,0-1.29,0-.8,0-1.19,0-.84.08-1.26.12-.81.07-1.22.13-.79.14-1.18.22-.86.17-1.28.27l-1.1.32c-.44.14-.89.27-1.32.42l-.34.11c-.26.1-.5.22-.75.33l-1.22.52c-.39.19-.76.39-1.14.59s-.69.37-1,.58-.76.47-1.14.73-.61.42-.91.64-.71.54-1.06.83-.59.49-.88.75l-.91.88c-.3.29-.58.59-.86.9s-.52.59-.77.89-.55.68-.81,1-.45.62-.67.94-.48.73-.71,1.11-.4.71-.59,1.07-.39.72-.57,1.1-.37.84-.55,1.26c-.1.25-.22.48-.31.72L321.63,598.87a25.43,25.43,0,1,0,47.62,17.86L396.3,544.6l27.05,72.13c.15.39.32.77.48,1.15.08.18.15.37.24.55q.48,1.05,1.05,2s.05.08.07.13c.36.61.74,1.21,1.15,1.78.1.16.22.31.33.46.34.47.7.92,1.06,1.35l.43.5c.4.44.81.87,1.23,1.28l.36.37c.54.5,1.1,1,1.67,1.43l.56.42c.43.31.85.61,1.29.9l.71.44c.48.29,1,.56,1.46.82l.54.28c.68.34,1.39.64,2.1.92l.15.06.45.15c.48.16,1,.32,1.45.46l.73.2c.45.12.9.22,1.35.31l.77.14c.47.08.94.14,1.42.2l.68.07q1,.09,2,.09h.08c.69,0,1.37,0,2.05-.09l.68-.07,1.41-.19.77-.15c.46-.09.9-.19,1.35-.31l.74-.2c.49-.14,1-.3,1.44-.46l.45-.15.15-.06c.72-.28,1.42-.58,2.11-.92l.53-.28c.5-.26,1-.53,1.46-.82l.71-.44q.66-.44,1.29-.9l.56-.42c.58-.45,1.13-.93,1.67-1.43l.37-.37c.42-.41.83-.84,1.22-1.28.15-.16.29-.33.43-.5.37-.44.72-.88,1.06-1.35.11-.15.23-.3.34-.46.4-.57.78-1.16,1.13-1.77l.09-.14q.57-1,1.05-2c.08-.18.15-.38.23-.56.17-.38.34-.75.48-1.14l27-72.13,27.05,72.13a25.43,25.43,0,1,0,47.62-17.86Z"/><path class="cls-8" d="M708.61,452.09a25.42,25.42,0,0,0-35.68,4.48l-39.26,50.52-39.26-50.52a25.43,25.43,0,0,0-40.16,31.2l54,69.49V607.8a25.43,25.43,0,0,0,50.86,0V557.26l54-69.49A25.42,25.42,0,0,0,708.61,452.09Z"/><path class="cls-8" d="M880.52,454.19a25.43,25.43,0,0,0-36,0L786.25,512.5V472.17a25.43,25.43,0,1,0-50.86,0V607.8a25.43,25.43,0,1,0,50.86,0V584.43L806.63,564l34.11,56.84a25.43,25.43,0,0,0,43.61-26.17L843.7,527l36.82-36.82A25.43,25.43,0,0,0,880.52,454.19Z"/><path class="cls-8" d="M1101.76,474.05a93.24,93.24,0,1,0,131.86,0A93.35,93.35,0,0,0,1101.76,474.05Zm36,95.9a42.38,42.38,0,1,1,59.94,0A42.43,42.43,0,0,1,1137.72,570Z"/><path class="cls-8" d="M1574.57,582.45h-76.29v-17h42.39a25.44,25.44,0,0,0,0-50.87h-42.39V497.68h76.29a25.43,25.43,0,1,0,0-50.86H1474.43c-.53,0-1-.08-1.58-.08a25.44,25.44,0,0,0-25.43,25.43V607.88a25.44,25.44,0,0,0,25.43,25.43h101.72a25.43,25.43,0,1,0,0-50.86Z"/><path class="cls-8" d="M1057.51,514.55a67.9,67.9,0,0,0-67.82-67.81H930.36a25.43,25.43,0,0,0-25.43,25.43V607.8a25.43,25.43,0,1,0,50.86,0V582.37h31.37l23.11,38.51a25.43,25.43,0,0,0,43.61-26.16l-18.22-30.37A67.65,67.65,0,0,0,1057.51,514.55ZM955.79,497.6h33.9a17,17,0,1,1,0,33.91h-33.9Z"/></g></svg>