<svg xmlns="http://www.w3.org/2000/svg" viewBox="0 0 942 1080"><defs><style>.cls-1{fill:#f7f6f1;}.cls-2,.cls-5{fill:none;stroke:#0c7897;stroke-miterlimit:10;}.cls-2{stroke-linecap:square;stroke-width:2px;opacity:0.3;}.cls-3{opacity:0.2;}.cls-4{fill:#0c7897;}.cls-5{stroke-width:3px;}</style></defs><g id="Layer_5" data-name="Layer 5"><rect class="cls-1" width="942" height="1080"/></g><g id="Layer_3" data-name="Layer 3"><line class="cls-2" x1="135.98" y1="875.4" x2="806.61" y2="875.4"/><line class="cls-2" x1="135.98" y1="797.93" x2="806.61" y2="797.93"/><line class="cls-2" x1="135.98" y1="776.47" x2="806.61" y2="776.47"/><line class="cls-2" x1="135.98" y1="699" x2="806.61" y2="699"/><line class="cls-2" x1="135.98" y1="677.54" x2="806.61" y2="677.54"/><line class="cls-2" x1="135.98" y1="600.07" x2="806.61" y2="600.07"/><line class="cls-2" x1="135.98" y1="578.61" x2="806.61" y2="578.61"/><line class="cls-2" x1="135.98" y1="501.14" x2="806.61" y2="501.14"/><line class="cls-2" x1="135.98" y1="479.68" x2="806.61" y2="479.68"/><line class="cls-2" x1="135.98" y1="402.21" x2="806.61" y2="402.21"/><line class="cls-2" x1="135.98" y1="380.75" x2="806.61" y2="380.75"/><line class="cls-2" x1="135.98" y1="303.28" x2="806.61" y2="303.28"/><line class="cls-2" x1="135.98" y1="281.82" x2="806.61" y2="281.82"/><line class="cls-2" x1="135.98" y1="204.36" x2="806.61" y2="204.36"/><line class="cls-2" x1="135.77" y1="204.71" x2="135.77" y2="875.04"/><line class="cls-2" x1="213.24" y1="204.71" x2="213.24" y2="875.04"/><line class="cls-2" x1="234.7" y1="204.71" x2="234.7" y2="875.04"/><line class="cls-2" x1="312.17" y1="204.71" x2="312.17" y2="875.04"/><line class="cls-2" x1="333.63" y1="204.71" x2="333.63" y2="875.04"/><line class="cls-2" x1="411.1" y1="204.71" x2="411.1" y2="875.04"/><line class="cls-2" x1="432.56" y1="204.71" x2="432.56" y2="875.04"/><line class="cls-2" x1="510.03" y1="204.71" x2="510.03" y2="875.04"/><line class="cls-2" x1="531.49" y1="204.71" x2="531.49" y2="875.04"/><line class="cls-2" x1="608.96" y1="204.71" x2="608.96" y2="875.04"/><line class="cls-2" x1="630.42" y1="204.71" x2="630.42" y2="875.04"/><line class="cls-2" x1="707.89" y1="204.71" x2="707.89" y2="875.04"/><line class="cls-2" x1="729.35" y1="204.71" x2="729.35" y2="875.04"/><line class="cls-2" x1="806.82" y1="204.71" x2="806.82" y2="875.04"/><circle class="cls-2" cx="471.49" cy="539.83" r="335.99"/><circle class="cls-2" cx="471.49" cy="539.83" r="159.15"/><circle class="cls-2" cx="471.49" cy="539.83" r="60.12"/><circle class="cls-2" cx="241.9" cy="407.3" r="70.16"/><circle class="cls-2" cx="241.9" cy="672.36" r="70.16"/><circle class="cls-2" cx="701.08" cy="407.3" r="70.16"/><circle class="cls-2" cx="471.49" cy="274.77" r="70.16"/><circle class="cls-2" cx="471.49" cy="804.89" r="70.16"/><circle class="cls-2" cx="701.08" cy="672.36" r="70.16"/></g><g id="Layer_1_copy" data-name="Layer 1 copy"><g class="cls-3"><path class="cls-4" d="M471.55,875.83a70.74,70.74,0,0,1-35.43-132L665.83,611.2a70.73,70.73,0,1,1,70.74,122.51L506.86,866.34A70.46,70.46,0,0,1,471.55,875.83Z"/></g><g class="cls-3"><path class="cls-4" d="M701.2,743.19a70.74,70.74,0,0,1-70.73-70.74V407.2a70.74,70.74,0,0,1,141.47,0V672.45A70.74,70.74,0,0,1,701.2,743.19Z"/></g><g class="cls-3"><path class="cls-4" d="M701.14,478a70.43,70.43,0,0,1-35.31-9.49L436.12,335.83a70.73,70.73,0,1,1,70.74-122.51L736.57,346a70.74,70.74,0,0,1-35.43,132Z"/></g><g class="cls-3"><path class="cls-4" d="M241.84,478a70.74,70.74,0,0,1-35.43-132L436.12,213.32a70.73,70.73,0,1,1,70.74,122.51L277.14,468.46A70.42,70.42,0,0,1,241.84,478Z"/></g><g class="cls-3"><path class="cls-4" d="M241.77,743.19A70.74,70.74,0,0,1,171,672.45V407.2a70.74,70.74,0,0,1,141.47,0V672.45A70.74,70.74,0,0,1,241.77,743.19Z"/></g><g class="cls-3"><path class="cls-4" d="M471.42,875.83a70.42,70.42,0,0,1-35.3-9.49L206.41,733.71A70.73,70.73,0,1,1,277.14,611.2L506.86,743.83a70.74,70.74,0,0,1-35.44,132Z"/></g></g><g id="Layer_1_copy_2" data-name="Layer 1 copy 2"><path class="cls-5" d="M471.55,875.83a70.74,70.74,0,0,1-35.43-132L665.83,611.2a70.73,70.73,0,1,1,70.74,122.51L506.86,866.34A70.46,70.46,0,0,1,471.55,875.83Z"/><path class="cls-5" d="M701.2,743.19a70.74,70.74,0,0,1-70.73-70.74V407.2a70.74,70.74,0,0,1,141.47,0V672.45A70.74,70.74,0,0,1,701.2,743.19Z"/><path class="cls-5" d="M701.14,478a70.43,70.43,0,0,1-35.31-9.49L436.12,335.83a70.73,70.73,0,1,1,70.74-122.51L736.57,346a70.74,70.74,0,0,1-35.43,132Z"/><path class="cls-5" d="M241.84,478a70.74,70.74,0,0,1-35.43-132L436.12,213.32a70.73,70.73,0,1,1,70.74,122.51L277.14,468.46A70.42,70.42,0,0,1,241.84,478Z"/><path class="cls-5" d="M241.77,743.19A70.74,70.74,0,0,1,171,672.45V407.2a70.74,70.74,0,0,1,141.47,0V672.45A70.74,70.74,0,0,1,241.77,743.19Z"/><path class="cls-5" d="M471.42,875.83a70.42,70.42,0,0,1-35.3-9.49L206.41,733.71A70.73,70.73,0,1,1,277.14,611.2L506.86,743.83a70.74,70.74,0,0,1-35.44,132Z"/></g></svg>