<svg xmlns="http://www.w3.org/2000/svg" viewBox="0 0 1024 1024"><defs><style>.a{fill:#e4e2dd;}.b{fill:#0d7da0;}.c{fill:#ffab2e;}.d{fill:#0d561e;}</style></defs><path class="a" d="M357,0H667c102.8,0,154.2,0,209.53,17.5a217.47,217.47,0,0,1,130,130C1024,202.81,1024,254.21,1024,357V667c0,102.8,0,154.2-17.49,209.53a217.47,217.47,0,0,1-130,130C821.19,1024,769.79,1024,667,1024H357c-102.8,0-154.2,0-209.53-17.5a217.43,217.43,0,0,1-130-130C0,821.19,0,769.79,0,667V357c0-102.8,0-154.2,17.5-209.53a217.43,217.43,0,0,1,130-130C202.81,0,254.21,0,357,0h0"/><path class="b" d="M512.1,955.92a93.45,93.45,0,0,1-46.89-174.36L768.64,606.3a93.46,93.46,0,1,1,93.48,161.86L558.69,943.42A92.68,92.68,0,0,1,512.1,955.92Z"/><path class="c" d="M815.53,780.66a93.46,93.46,0,0,1-93.48-93.48h0V336.76a93.48,93.48,0,0,1,187,0V687.18A93.53,93.53,0,0,1,815.53,780.66Z"/><path class="d" d="M896.42,640.49A93.49,93.49,0,0,0,768.74,606.3h0l-46.69,27v54A93.3,93.3,0,0,0,862.52,768c1-.6,2-1.2,3-1.9.4-.2.8-.5,1.2-.7.8-.5,1.6-1.1,2.4-1.6.6-.4,1.1-.8,1.7-1.2s1.1-.8,1.6-1.2c.8-.6,1.5-1.2,2.3-1.8a5,5,0,0,0,.8-.7c.9-.8,1.9-1.6,2.8-2.4l.1-.1a95.35,95.35,0,0,0,17-20.49c.4-.6.7-1.2,1.1-1.8a18.58,18.58,0,0,0,1.1-1.9,92.67,92.67,0,0,0,9.29-24.9v-.1c.3-1.19.5-2.39.7-3.59.1-.4.1-.7.2-1.1a23.58,23.58,0,0,0,.4-2.8c.1-.7.2-1.4.3-2s.1-1.3.2-2a28.25,28.25,0,0,0,.2-2.9,5.7,5.7,0,0,1,.1-1.3c.1-1.2.1-2.4.1-3.6A95.35,95.35,0,0,0,896.42,640.49Z"/><path class="b" d="M815.43,430.24a93.34,93.34,0,0,1-46.69-12.5L465.31,242.48A93.46,93.46,0,0,1,558.79,80.61L862.22,255.87a93.44,93.44,0,0,1-46.79,174.37Z"/><path class="d" d="M896.42,383.55a92.87,92.87,0,0,0,12.49-47.09c0-1.2,0-2.4-.1-3.6a5.7,5.7,0,0,0-.1-1.3c-.1-1-.1-2-.2-2.9-.1-.7-.1-1.3-.2-2s-.2-1.4-.3-2a27,27,0,0,0-.4-2.8c-.1-.4-.1-.7-.2-1.1-.2-1.2-.4-2.4-.7-3.6v-.1a92.48,92.48,0,0,0-9.29-24.89c-.3-.6-.7-1.2-1.1-1.9s-.7-1.3-1.1-1.9a92.35,92.35,0,0,0-16.9-20.5l-.1-.1c-.9-.8-1.8-1.6-2.8-2.4a5.72,5.72,0,0,1-.8-.7c-.7-.6-1.5-1.2-2.2-1.7a18.26,18.26,0,0,1-1.6-1.3c-.5-.4-1.1-.8-1.6-1.2-.8-.6-1.6-1.1-2.4-1.7-.4-.2-.7-.5-1.1-.7-1-.6-2.1-1.3-3.1-1.9a93.37,93.37,0,0,0-140.47,80.69v54l46.69,27a93.54,93.54,0,0,0,127.58-34.29Z"/><path class="c" d="M208.57,430.24a93.46,93.46,0,0,1-46.89-174.37L465.31,80.61a93.48,93.48,0,0,1,93.38,162h0L255.26,417.74A93.34,93.34,0,0,1,208.57,430.24Z"/><path class="d" d="M558.39,80.41c-1.1-.6-2.1-1.2-3.2-1.7l-1.2-.6c-.9-.4-1.8-.9-2.6-1.3a14.17,14.17,0,0,0-1.8-.8c-.6-.3-1.3-.5-1.9-.8a27.73,27.73,0,0,0-2.6-1,4.18,4.18,0,0,1-1-.4c-1.1-.4-2.3-.8-3.5-1.2h-.1a93.36,93.36,0,0,0-26.29-4.4h-4.3c-1.4,0-2.8.1-4.2.2h-.1a90.23,90.23,0,0,0-21.79,4.2c-.1,0-.2,0-.2.1-1.1.4-2.3.8-3.4,1.2-.4.1-.7.3-1.1.4-.9.3-1.7.7-2.5,1s-1.3.5-2,.8-1.2.5-1.8.8c-.9.4-1.8.8-2.7,1.3a10.91,10.91,0,0,0-1.1.6,33,33,0,0,0-3.2,1.8,93.49,93.49,0,0,0-.4,162.07l46.69,27,46.69-27a93.7,93.7,0,0,0-.4-162.27Z"/><path class="b" d="M208.57,780.66a93.46,93.46,0,0,1-93.48-93.48h0V336.76a93.48,93.48,0,0,1,187,0V687.18A93.53,93.53,0,0,1,208.57,780.66Z"/><path class="d" d="M302,336.76A93.45,93.45,0,0,0,161.48,256c-1.1.6-2.1,1.3-3.1,1.9-.4.2-.7.5-1.1.7-.8.5-1.7,1.1-2.5,1.7-.5.4-1.1.7-1.6,1.1s-1.1.9-1.7,1.3c-.7.6-1.5,1.1-2.2,1.7a6.47,6.47,0,0,0-.9.8c-.9.8-1.8,1.5-2.7,2.4-.1,0-.1.1-.2.1a89.38,89.38,0,0,0-14.5,16.8c0,.1-.1.1-.1.2-.8,1.1-1.5,2.3-2.2,3.5l-1.2,2.1c-.3.5-.6,1.1-.9,1.6a94.4,94.4,0,0,0-9.29,25h0c-.3,1.2-.5,2.5-.7,3.7-.1.3-.1.6-.2,1a28.86,28.86,0,0,0-.4,2.9,12.25,12.25,0,0,0-.2,1.9c-.1.7-.1,1.4-.2,2.1a26.35,26.35,0,0,0-.2,2.8,6.15,6.15,0,0,1-.1,1.4c0,1.2-.1,2.3-.1,3.5a93.47,93.47,0,0,0,140.17,81.38l46.69-27V336.76Z"/><path class="c" d="M511.9,955.92a93.32,93.32,0,0,1-46.69-12.5L161.78,768.16A93.46,93.46,0,1,1,255.26,606.3L558.79,781.56A93.44,93.44,0,0,1,511.9,955.92Z"/><path class="d" d="M592.88,909.13a93.47,93.47,0,0,0-34.19-127.67l-46.69-27-46.69,27a93.52,93.52,0,0,0,.1,162c1.6.9,3.1,1.7,4.7,2.5a4.05,4.05,0,0,1,.9.5c1.2.6,2.4,1.1,3.5,1.6.8.3,1.5.7,2.2,1l.9.3a93.13,93.13,0,0,0,68.68,0c.3-.1.5-.2.8-.3.8-.3,1.6-.7,2.4-1,1.1-.5,2.3-1,3.4-1.6a9.29,9.29,0,0,1,1-.5c1.6-.8,3.1-1.6,4.7-2.5A92.48,92.48,0,0,0,592.88,909.13Z"/><path class="d" d="M255.26,606.3a93.4,93.4,0,0,0-140.17,81.38c0,1.2,0,2.4.1,3.5a6.6,6.6,0,0,0,.1,1.4c.1,1,.1,1.9.2,2.8.1.7.1,1.4.2,2.1s.2,1.3.3,2c.1,1,.3,1.9.4,2.9.1.3.1.7.2,1,.2,1.2.4,2.5.7,3.69h0a94.6,94.6,0,0,0,9.29,25c.3.6.7,1.2,1,1.8a19.83,19.83,0,0,1,1.1,2c.7,1.2,1.5,2.4,2.3,3.6v.1a93.3,93.3,0,0,0,14.6,16.79l.1.1c.9.8,1.8,1.6,2.8,2.4a5.72,5.72,0,0,1,.8.7c.7.6,1.5,1.2,2.2,1.7.5.4,1.1.8,1.6,1.2s1.1.8,1.6,1.2c.8.6,1.6,1.1,2.4,1.7a10.54,10.54,0,0,1,1.1.7c1,.6,2,1.3,3.1,1.9a93.36,93.36,0,0,0,140.47-80.68v-54Z"/></svg>