<?xml version="1.0" encoding="utf-8"?>
<!-- Generator: Adobe Illustrator 26.0.1, SVG Export Plug-In . SVG Version: 6.00 Build 0)  -->
<svg version="1.1" id="favicon-master" xmlns="http://www.w3.org/2000/svg" xmlns:xlink="http://www.w3.org/1999/xlink" x="0px"
	 y="0px" viewBox="0 0 1024 1024" style="enable-background:new 0 0 1024 1024;" xml:space="preserve">
<style type="text/css">
	.st0{fill:#FFFFFF;}
	.st1{fill:#0D7DA0;}
	.st2{fill:#FFAB2E;}
	.st3{fill:#0D561E;}
</style>
<circle class="st0" cx="512" cy="512" r="512"/>
<path class="st1" d="M512.1,956c-51.6,0-93.5-41.8-93.6-93.4c0-33.4,17.8-64.3,46.7-81l303.5-175.3c44.7-25.8,101.9-10.5,127.7,34.2
	s10.5,101.9-34.2,127.7L558.7,943.5C544.6,951.7,528.5,956,512.1,956z"/>
<path class="st2" d="M815.6,780.7c-51.6,0-93.5-41.8-93.5-93.5l0,0V336.7c0-51.6,41.9-93.5,93.5-93.5s93.5,41.8,93.5,93.5v350.5
	C909,738.9,867.2,780.7,815.6,780.7z"/>
<path class="st3" d="M896.5,640.5c-25.8-44.7-83-60-127.7-34.2l0,0l-46.7,27v54c0,51.6,41.8,93.5,93.4,93.5
	c16.6,0,32.8-4.4,47.1-12.8c1-0.6,2-1.2,3-1.9c0.4-0.2,0.8-0.5,1.2-0.7c0.8-0.5,1.6-1.1,2.4-1.6c0.6-0.4,1.1-0.8,1.7-1.2
	c0.5-0.4,1.1-0.8,1.6-1.2c0.8-0.6,1.5-1.2,2.3-1.8c0.3-0.2,0.5-0.4,0.8-0.7c0.9-0.8,1.9-1.6,2.8-2.4c0,0,0,0,0.1-0.1
	c6.6-6,12.3-12.9,17-20.5c0.4-0.6,0.7-1.2,1.1-1.8c0.4-0.6,0.8-1.3,1.1-1.9c4.3-7.8,7.4-16.2,9.3-24.9v-0.1c0.3-1.2,0.5-2.4,0.7-3.6
	c0.1-0.4,0.1-0.7,0.2-1.1c0.2-0.9,0.3-1.8,0.4-2.8c0.1-0.7,0.2-1.4,0.3-2c0.1-0.7,0.1-1.3,0.2-2c0.1-1,0.2-1.9,0.2-2.9
	c0-0.4,0-0.9,0.1-1.3c0.1-1.2,0.1-2.4,0.1-3.6C909.1,671.1,904.8,654.8,896.5,640.5z"/>
<path class="st1" d="M815.5,430.2c-16.4,0-32.5-4.3-46.7-12.5L465.3,242.4c-44.7-25.8-60-83-34.2-127.7s83-60,127.7-34.2
	l303.5,175.3c44.7,25.8,60,83,34.2,127.7C879.8,412.4,848.9,430.3,815.5,430.2z"/>
<path class="st3" d="M896.5,383.5c8.3-14.3,12.6-30.6,12.5-47.1c0-1.2,0-2.4-0.1-3.6c0-0.4,0-0.9-0.1-1.3c-0.1-1-0.1-2-0.2-2.9
	c-0.1-0.7-0.1-1.3-0.2-2c-0.1-0.7-0.2-1.4-0.3-2c-0.1-0.9-0.2-1.9-0.4-2.8c-0.1-0.4-0.1-0.7-0.2-1.1c-0.2-1.2-0.4-2.4-0.7-3.6V317
	c-1.9-8.7-5-17.1-9.3-24.9c-0.3-0.6-0.7-1.2-1.1-1.9c-0.4-0.6-0.7-1.3-1.1-1.9c-4.6-7.6-10.3-14.5-16.9-20.5l-0.1-0.1
	c-0.9-0.8-1.8-1.6-2.8-2.4c-0.3-0.2-0.6-0.5-0.8-0.7c-0.7-0.6-1.5-1.2-2.2-1.7c-0.5-0.4-1.1-0.8-1.6-1.3c-0.5-0.4-1.1-0.8-1.6-1.2
	c-0.8-0.6-1.6-1.1-2.4-1.7c-0.4-0.2-0.7-0.5-1.1-0.7c-1-0.6-2.1-1.3-3.1-1.9c-44.6-26-101.8-11-127.8,33.6
	c-8.3,14.3-12.7,30.6-12.7,47.1v54l46.7,27C813.5,443.5,870.6,428.2,896.5,383.5L896.5,383.5z"/>
<path class="st2" d="M208.5,430.2c-51.6,0-93.5-41.8-93.6-93.4c0-33.4,17.8-64.3,46.7-81L465.3,80.5C510,54.7,567.1,70,592.9,114.8
	c25.8,44.7,10.5,101.9-34.2,127.7l0,0L255.2,417.7C241,425.9,224.9,430.2,208.5,430.2z"/>
<path class="st3" d="M558.4,80.3c-1.1-0.6-2.1-1.2-3.2-1.7c-0.4-0.2-0.8-0.4-1.2-0.6c-0.9-0.4-1.8-0.9-2.6-1.3
	c-0.6-0.3-1.2-0.6-1.8-0.8c-0.6-0.3-1.3-0.5-1.9-0.8c-0.9-0.4-1.7-0.7-2.6-1c-0.3-0.1-0.7-0.2-1-0.4c-1.1-0.4-2.3-0.8-3.5-1.2h-0.1
	c-8.5-2.7-17.3-4.2-26.3-4.4c-0.6,0-1.3,0-1.9,0c-0.8,0-1.6,0-2.4,0c-1.4,0-2.8,0.1-4.2,0.2h-0.1c-7.4,0.5-14.7,1.9-21.8,4.2
	c-0.1,0-0.2,0-0.2,0.1c-1.1,0.4-2.3,0.8-3.4,1.2c-0.4,0.1-0.7,0.3-1.1,0.4c-0.9,0.3-1.7,0.7-2.5,1c-0.7,0.3-1.3,0.5-2,0.8
	c-0.6,0.3-1.2,0.5-1.8,0.8c-0.9,0.4-1.8,0.8-2.7,1.3c-0.4,0.2-0.8,0.4-1.1,0.6c-1.1,0.6-2.2,1.1-3.2,1.8
	C421,106.1,405.4,163.2,431,208c8.2,14.4,20.1,26.3,34.4,34.6l46.7,27l46.7-27c44.7-25.8,60-82.9,34.2-127.7
	C584.7,100.4,572.8,88.6,558.4,80.3L558.4,80.3z"/>
<path class="st1" d="M208.5,780.7c-51.6,0-93.5-41.8-93.5-93.5l0,0V336.7c0-51.6,41.8-93.5,93.5-93.5S302,285,302,336.7v350.5
	C301.9,738.9,260.1,780.7,208.5,780.7z"/>
<path class="st3" d="M301.9,336.7c0-51.6-41.8-93.5-93.4-93.5c-16.5,0-32.8,4.4-47.1,12.7c-1.1,0.6-2.1,1.3-3.1,1.9
	c-0.4,0.2-0.7,0.5-1.1,0.7c-0.8,0.5-1.7,1.1-2.5,1.7c-0.5,0.4-1.1,0.7-1.6,1.1c-0.6,0.4-1.1,0.9-1.7,1.3c-0.7,0.6-1.5,1.1-2.2,1.7
	c-0.3,0.2-0.6,0.5-0.9,0.8c-0.9,0.8-1.8,1.5-2.7,2.4c-0.1,0-0.1,0.1-0.2,0.1c-5.5,5-10.4,10.6-14.5,16.8c0,0.1-0.1,0.1-0.1,0.2
	c-0.8,1.1-1.5,2.3-2.2,3.5c-0.4,0.7-0.8,1.4-1.2,2.1c-0.3,0.5-0.6,1.1-0.9,1.6c-4.3,7.9-7.4,16.3-9.3,25l0,0
	c-0.3,1.2-0.5,2.5-0.7,3.7c-0.1,0.3-0.1,0.6-0.2,1c-0.2,1-0.3,1.9-0.4,2.9c-0.1,0.6-0.2,1.3-0.2,1.9c-0.1,0.7-0.1,1.4-0.2,2.1
	c-0.1,0.9-0.2,1.9-0.2,2.8c0,0.5,0,1-0.1,1.4c0,1.2-0.1,2.3-0.1,3.5c-0.3,51.6,41.3,93.7,92.9,93.9c16.6,0.1,32.9-4.2,47.3-12.5
	l46.7-27v-53.8H301.9z"/>
<path class="st2" d="M511.9,956c-16.4,0-32.5-4.3-46.7-12.5L161.7,768.2c-44.7-25.8-60-83-34.2-127.7s83-60,127.7-34.2l303.6,175.3
	c44.7,25.8,60,83,34.2,127.7C576.2,938.2,545.3,956,511.9,956z"/>
<path class="st3" d="M592.9,909.2c25.8-44.7,10.5-101.9-34.2-127.7l-46.7-27l-46.7,27c-44.7,25.8-60,83-34.2,127.7
	c8.2,14.2,20,26.1,34.3,34.3c1.6,0.9,3.1,1.7,4.7,2.5c0.3,0.1,0.6,0.3,0.9,0.5c1.2,0.6,2.4,1.1,3.5,1.6c0.8,0.3,1.5,0.7,2.2,1
	c0.3,0.1,0.6,0.2,0.9,0.3c22.1,8.8,46.7,8.7,68.7,0c0.3-0.1,0.5-0.2,0.8-0.3c0.8-0.3,1.6-0.7,2.4-1c1.1-0.5,2.3-1,3.4-1.6
	c0.3-0.2,0.6-0.3,1-0.5c1.6-0.8,3.1-1.6,4.7-2.5C572.9,935.3,584.7,923.5,592.9,909.2z"/>
<path class="st3" d="M255.2,606.3c-44.7-25.8-101.9-10.5-127.7,34.2c-8.3,14.3-12.6,30.6-12.5,47.2c0,1.2,0,2.4,0.1,3.5
	c0,0.5,0,0.9,0.1,1.4c0.1,1,0.1,1.9,0.2,2.8c0.1,0.7,0.1,1.4,0.2,2.1c0.1,0.7,0.2,1.3,0.3,2c0.1,1,0.3,1.9,0.4,2.9
	c0.1,0.3,0.1,0.7,0.2,1c0.2,1.2,0.4,2.5,0.7,3.7l0,0c1.9,8.7,5,17.1,9.3,25c0.3,0.6,0.7,1.2,1,1.8c0.4,0.7,0.8,1.3,1.1,2
	c0.7,1.2,1.5,2.4,2.3,3.6c0,0,0,0,0,0.1c4.2,6.2,9.1,11.8,14.6,16.8l0.1,0.1c0.9,0.8,1.8,1.6,2.8,2.4c0.3,0.2,0.6,0.5,0.8,0.7
	c0.7,0.6,1.5,1.2,2.2,1.7c0.5,0.4,1.1,0.8,1.6,1.2s1.1,0.8,1.6,1.2c0.8,0.6,1.6,1.1,2.4,1.7c0.4,0.2,0.8,0.5,1.1,0.7
	c1,0.6,2,1.3,3.1,1.9c44.6,26,101.8,11,127.8-33.6c8.3-14.3,12.7-30.6,12.7-47.1v-54L255.2,606.3z"/>
</svg>
