<?xml version="1.0" encoding="UTF-8"?>
<svg width="1920px" height="1080px" viewBox="0 0 1920 1080" version="1.1" xmlns="http://www.w3.org/2000/svg" xmlns:xlink="http://www.w3.org/1999/xlink">
    <title>mykrobe-animation-overlay</title>
    <g id="mykrobe-animation-overlay" stroke="none" stroke-width="1" fill="none" fill-rule="evenodd">
        <circle id="Oval" fill="#FFFFFF" cx="960" cy="540" r="360"></circle>
        <g id="Group" transform="translate(780.000000, 386.000000)">
            <g id="Group-2" transform="translate(0.000000, 216.000000)" fill="#0D7DA0">
                <path d="M305.528939,23.0575953 C306.800704,20.8140199 307.535029,18.2294917 307.535029,15.4700706 C307.535029,6.9250516 300.580228,0 292.000689,0 L290.806968,0 L276.468124,0 C272.509155,0 269.298701,3.19753658 269.298701,7.14057617 L269.298701,45.2230602 C269.298701,49.1660998 272.509155,52.3636364 276.468124,52.3636364 L294.389906,52.3636364 C304.2891,52.3636364 312.311687,44.3715615 312.311687,34.5121959 C312.313461,29.5798633 309.573046,25.2888045 305.528939,23.0575953 Z M292.000689,14.2793857 C293.9784,14.2793857 295.5854,15.8799206 295.5854,17.8496738 C295.5854,19.8176604 293.9784,21.4199619 292.000689,21.4199619 L290.806968,21.4199619 L283.637546,21.4199619 L283.637546,14.2793857 L292.000689,14.2793857 Z M294.389906,38.0807174 L283.637546,38.0807174 L283.637546,30.9401413 L290.806968,30.9401413 L292.000689,30.9401413 L294.391679,30.9401413 C296.371163,30.9401413 297.97639,32.5389096 297.97639,34.5104294 C297.97639,36.4819491 296.36939,38.0807174 294.389906,38.0807174 Z" id="Shape"></path>
                <path d="M56.400926,4.61444715 C56.3727954,4.54022012 56.3270833,4.47836426 56.2971946,4.40590453 C56.2004959,4.17085227 56.0826993,3.94640386 55.9613864,3.72195546 C55.8558969,3.52931863 55.7556819,3.3349145 55.6361271,3.15288154 C55.5060234,2.95847741 55.3548218,2.77997907 55.2071366,2.59794612 C55.0612094,2.42121509 54.9205568,2.24271675 54.7623225,2.08189151 C54.600572,1.91929897 54.4212399,1.77614683 54.2436659,1.62946008 C54.0643337,1.48277333 53.8902761,1.33255195 53.6968787,1.2035383 C53.5140302,1.08159389 53.3171165,0.979089897 53.121961,0.871283969 C52.9021912,0.75110687 52.6841796,0.634464391 52.4538609,0.539029636 C52.3800182,0.507218051 52.3167245,0.463035294 52.2411237,0.432991019 C52.1092619,0.383506331 51.9738837,0.367600539 51.8402637,0.326952402 C51.599396,0.25272537 51.3602865,0.182032959 51.1123862,0.134315581 C50.8908582,0.0901328244 50.6710885,0.0636231702 50.4495605,0.0406481365 C50.2157255,0.0176731028 49.9818905,0 49.7462973,0 C49.5107041,0 49.2786272,0.0176731028 49.0465503,0.0406481365 C48.8232642,0.0636231702 48.6034945,0.0901328244 48.3802084,0.134315581 C48.1323081,0.183800269 47.8931986,0.25272537 47.6523309,0.326952402 C47.5187109,0.367600539 47.3850908,0.383506331 47.253229,0.432991019 C47.1793863,0.461267984 47.1160926,0.507218051 47.04225,0.537262326 C46.8101731,0.634464391 46.5886452,0.75110687 46.3688754,0.871283969 C46.175478,0.977322586 45.9803225,1.07982658 45.7992322,1.20177099 C45.6058348,1.33255195 45.4282608,1.48277333 45.2471705,1.6329947 C45.0713547,1.77791414 44.8937807,1.91929897 44.7355465,2.07835689 C44.5737959,2.24094944 44.4313851,2.42121509 44.285458,2.59971343 C44.1395309,2.77821176 43.9900874,2.9567101 43.8617419,3.14934692 C43.740429,3.33314719 43.6384558,3.52931863 43.5312081,3.72549008 C43.4116534,3.94640386 43.2956149,4.16731765 43.1989162,4.4006026 C43.1690276,4.47482964 43.1233154,4.5366855 43.0951849,4.61267984 L35.5368629,24.8748922 L27.9785409,4.61267984 C27.9504104,4.53845281 27.9064565,4.47836426 27.8765678,4.40590453 C27.7798691,4.16731765 27.6603143,3.94286924 27.5390014,3.71665352 C27.4352701,3.52578401 27.3350551,3.33314719 27.2155003,3.15288154 C27.0853966,2.9567101 26.934195,2.77644445 26.7829934,2.59264418 C26.6388244,2.41768047 26.4981718,2.23918213 26.3399375,2.0801242 C26.1799451,1.91753166 25.9988548,1.77437952 25.8212809,1.62769277 C25.6419487,1.48100602 25.4661329,1.33078464 25.2744937,1.20177099 C25.0934034,1.07982658 24.8982478,0.977322586 24.7030923,0.871283969 C24.4815643,0.75110687 24.2617946,0.632697081 24.0279595,0.537262326 C23.9541169,0.505450741 23.8925814,0.461267984 23.8187387,0.432991019 C23.688635,0.383506331 23.555015,0.369367849 23.4231531,0.328719713 C23.1787691,0.25272537 22.9379015,0.182032959 22.6864849,0.132548271 C22.4667151,0.0901328244 22.2504616,0.0618558599 22.0306919,0.0406481365 C21.7950987,0.0176731028 21.5595055,0 21.320396,0 C21.0865609,0 20.8562422,0.0159057925 20.6241653,0.0406481365 C20.4008792,0.0636231702 20.1793513,0.0901328244 19.9560652,0.134315581 C19.7081649,0.183800269 19.4690554,0.25272537 19.2264296,0.326952402 C19.0945677,0.367600539 18.9591895,0.383506331 18.8273277,0.432991019 C18.753485,0.461267984 18.6901913,0.507218051 18.6163487,0.537262326 C18.3842718,0.634464391 18.164502,0.75110687 17.9429741,0.871283969 C17.7478185,0.977322586 17.552663,1.07982658 17.3715727,1.20177099 C17.1799335,1.33078464 17.0041176,1.48100602 16.8247855,1.62769277 C16.6472115,1.77437952 16.4661212,1.91753166 16.3061288,2.0801242 C16.1461365,2.23918213 16.007242,2.41591316 15.863073,2.59264418 C15.7136295,2.77644445 15.5624279,2.95494279 15.4305661,3.15111423 C15.3110113,3.33137988 15.2107963,3.52224939 15.1088231,3.71488621 C14.9857521,3.94110193 14.8661973,4.16555034 14.7694986,4.40413722 C14.7396099,4.47659695 14.695656,4.5366855 14.6675254,4.61091253 L0.454574769,42.7088203 C-0.923821238,46.4024988 0.938068266,50.5203317 4.61261885,51.905903 C5.43543687,52.2151823 6.27759463,52.3618691 7.10568713,52.3618691 C9.98379206,52.3618691 12.6913556,50.5927915 13.762074,47.7244469 L21.320396,27.4622345 L28.8787179,47.7244469 C28.9121229,47.8128124 28.9595932,47.890574 28.9947564,47.9771722 C29.0545337,48.1203244 29.1213438,48.2564073 29.1899119,48.3960248 C29.3182575,48.6540521 29.4589101,48.9014755 29.613628,49.1365278 C29.6874707,49.2496356 29.7595552,49.3645108 29.8404305,49.4740841 C30.0531676,49.7621556 30.2834863,50.0290195 30.5349029,50.2782102 C30.580615,50.3259276 30.6210527,50.3789469 30.668523,50.424897 C30.9744425,50.7147359 31.3067344,50.9674612 31.6566078,51.1954443 C31.7568229,51.2608347 31.8640705,51.3156214 31.9660437,51.3757099 C32.247349,51.5400698 32.5374451,51.6849892 32.8380901,51.8087009 C32.9084165,51.8369779 32.9664357,51.8811607 33.0385202,51.9076703 C33.0947812,51.928878 33.1528004,51.9359473 33.2090615,51.9553877 C33.4727852,52.0472878 33.7435416,52.1179802 34.0160561,52.1780688 C34.1338527,52.2045784 34.2498911,52.2399246 34.3676877,52.2593651 C34.7456918,52.3229882 35.1289702,52.3618691 35.5175232,52.3636364 L35.5315885,52.3636364 L35.5315885,52.3636364 L35.5333466,52.3636364 L35.5474119,52.3636364 C35.9359648,52.3618691 36.3192433,52.3247555 36.6972473,52.2593651 C36.8150439,52.2399246 36.9328405,52.2045784 37.0506371,52.1780688 C37.3249098,52.1179802 37.593908,52.0472878 37.8558736,51.9553877 C37.9121346,51.9359473 37.9701538,51.928878 38.0264149,51.9076703 C38.0984994,51.8811607 38.1565186,51.8369779 38.2268449,51.8087009 C38.52749,51.6849892 38.8158279,51.5400698 39.0988914,51.3757099 C39.2026227,51.3156214 39.3098704,51.2608347 39.4083272,51.1954443 C39.7564425,50.9674612 40.0887344,50.7147359 40.3964121,50.424897 C40.4438824,50.3789469 40.48432,50.3259276 40.5300321,50.2782102 C40.7796906,50.0290195 41.0100093,49.7621556 41.2245046,49.4740841 C41.3053799,49.3645108 41.3757062,49.251403 41.451307,49.1365278 C41.6060249,48.8997082 41.7466776,48.6540521 41.8750231,48.3960248 C41.9435913,48.2564073 42.0104013,48.1203244 42.0701787,47.9771722 C42.1071,47.890574 42.1545703,47.8128124 42.1862171,47.7244469 L49.7445391,27.4622345 L57.3028611,47.7244469 C58.3718213,50.5927915 61.081143,52.3618691 63.9574898,52.3618691 C64.7873404,52.3618691 65.6312564,52.2151823 66.4523162,51.905903 C70.1268668,50.5203317 71.9887563,46.4024988 70.6103603,42.7088203 L56.400926,4.61444715 Z" id="Shape"></path>
                <path d="M109.443258,1.50254466 C106.324995,-0.915878963 101.831652,-0.35411219 99.407123,2.76033693 L88.3657818,16.9475978 L77.3226709,2.76033693 C74.8981418,-0.35411219 70.404799,-0.917645526 67.2847662,1.50254466 C64.1647335,3.92273485 63.6001898,8.40803622 66.024719,11.5224853 L81.2107662,31.0306315 L81.2107662,45.223192 C81.2107662,49.1661588 84.4139763,52.3636364 88.3640121,52.3636364 C92.3140479,52.3636364 95.517258,49.1661588 95.517258,45.223192 L95.517258,31.032398 L110.703305,11.5224853 C113.126065,8.40626966 112.563291,3.92096828 109.443258,1.50254466 Z" id="Shape"></path>
                <path d="M157.794674,2.09207224 C154.99606,-0.697357414 150.455849,-0.697357414 147.657234,2.09207224 L131.220252,18.4771008 L131.220252,7.14095759 C131.220252,3.19795126 128.010181,0.000441644974 124.051684,0.000441644974 C120.093188,0.000441644974 116.883117,3.19795126 116.883117,7.14095759 L116.883117,45.2231204 C116.883117,49.1661268 120.093188,52.3636364 124.051684,52.3636364 C128.010181,52.3636364 131.220252,49.1661268 131.220252,45.2231204 L131.220252,38.6814751 L136.971777,32.9471567 L146.578934,48.89584 C147.923262,51.1270304 150.298005,52.3636364 152.733048,52.3636364 C153.9887,52.3636364 155.258541,52.0350525 156.414876,51.3443198 C159.809393,49.316286 160.910749,44.9298682 158.872974,41.5486342 L147.419583,22.5331682 L157.796448,12.1898429 C160.593289,9.40041328 160.593289,4.87973532 157.794674,2.09207224 Z" id="Shape"></path>
                <path d="M219.919413,7.66067561 C209.706516,17.8731423 209.706516,34.4927034 219.919413,44.7051701 C225.025862,49.8114034 231.735478,52.3636364 238.441558,52.3636364 C245.147639,52.3636364 251.857255,49.8114034 256.963703,44.7051701 C267.176601,34.4909359 267.176601,17.8731423 256.963703,7.66067561 C246.750806,-2.55355854 230.132311,-2.55355854 219.919413,7.66067561 Z M230.022723,34.6022868 C225.379372,29.9591318 225.379372,22.4067139 230.022723,17.7635589 C234.666074,13.1204038 242.21881,13.1204038 246.862161,17.7635589 C251.503745,22.4049465 251.503745,29.9591318 246.862161,34.6022868 C242.21881,39.2454419 234.666074,39.2454419 230.022723,34.6022868 Z" id="Shape"></path>
                <path d="M352.831169,38.0892261 L331.324675,38.0892261 L331.324675,33.3075459 L343.271545,33.3075459 C347.230187,33.3075459 350.440376,30.1115188 350.440376,26.1703407 C350.440376,22.2291626 347.230187,19.0331356 343.271545,19.0331356 L331.324675,19.0331356 L331.324675,14.2973652 L352.831169,14.2973652 C356.789811,14.2973652 360,11.1013381 360,7.16016002 C360,3.21898193 356.789811,0.0229548903 352.831169,0.0229548903 L324.379316,0.0229548903 C324.303052,0.0211891295 324.232108,0 324.155844,0 C320.197202,0 316.987013,3.19602704 316.987013,7.13720513 L316.987013,45.2052421 C316.987013,45.2087736 316.988787,45.2123051 316.988787,45.2158367 C316.988787,45.2193682 316.987013,45.2228997 316.987013,45.2264312 C316.987013,49.1676093 320.197202,52.3636364 324.155844,52.3636364 L352.831169,52.3636364 C356.789811,52.3636364 360,49.1676093 360,45.2264312 C360,41.2852531 356.789811,38.0892261 352.831169,38.0892261 Z" id="Shape"></path>
                <path d="M207.582324,19.0403587 C207.582324,8.54148584 199.005683,0 188.465779,0 L171.739911,0 C167.781462,0 164.571429,3.19753658 164.571429,7.14057617 L164.571429,45.2230602 C164.571429,49.1660998 167.781462,52.3636364 171.739911,52.3636364 C175.698361,52.3636364 178.908394,49.1660998 178.908394,45.2230602 L178.908394,38.082484 L187.754606,38.082484 L194.268668,48.8958108 C195.61298,51.1287866 197.985921,52.3636364 200.422709,52.3636364 C201.676572,52.3636364 202.949945,52.0350497 204.102719,51.3443112 C207.497196,49.3162603 208.598539,44.9298055 206.562562,41.548543 L201.417642,33.0070572 C205.196968,29.5250988 207.582324,24.5609675 207.582324,19.0403587 Z M178.908394,14.2793857 L188.465779,14.2793857 C191.101199,14.2793857 193.245359,16.4151988 193.245359,19.0385921 C193.245359,21.663752 191.101199,23.7995651 188.465779,23.7995651 L178.908394,23.7995651 L178.908394,14.2793857 Z" id="Shape"></path>
            </g>
            <g id="Group-3" transform="translate(99.000000, 0.000000)">
                <path d="M80.6020853,180 C74.0453882,180 67.6689246,176.601807 64.1550757,170.523311 C58.916336,161.46076 62.0253636,149.873999 71.0989932,144.641359 L132.709276,109.116078 C141.782905,103.884141 153.38614,106.989132 158.62488,116.050979 C163.863619,125.112826 160.754592,136.70029 151.681666,141.93293 L90.0713837,177.457508 C87.0827464,179.180862 83.8202387,180 80.6020853,180 Z" id="Shape" fill="#0D7DA0"></path>
                <path d="M142.194767,144.471907 C131.717288,144.471907 123.223785,135.989433 123.223785,125.524856 L123.223785,54.4749972 C123.223785,44.0111232 131.717288,35.5286494 142.194767,35.5286494 C152.672246,35.5286494 161.165749,44.0111232 161.165749,54.4749972 L161.165749,125.524153 C161.165749,135.98873 152.672246,144.471907 142.194767,144.471907 Z" id="Shape" fill="#FFAB2E"></path>
                <path d="M158.624176,116.051682 C153.385436,106.989132 141.782905,103.884141 132.708572,109.116781 L123.22308,114.585671 L123.22308,125.524856 C123.22308,135.989433 131.716583,144.471907 142.194063,144.471907 C145.682567,144.471907 148.94789,143.527613 151.756294,141.886524 C151.965393,141.764884 152.170972,141.638322 152.373735,141.50965 C152.452587,141.459728 152.532143,141.409104 152.610291,141.357776 C152.773628,141.251604 152.933444,141.139808 153.092557,141.028714 C153.207315,140.948558 153.322073,140.868402 153.434014,140.786137 C153.54314,140.705981 153.64945,140.623012 153.756463,140.540747 C153.910648,140.422622 154.064832,140.303795 154.214088,140.180748 C154.269002,140.137154 154.321805,140.090045 154.375312,140.045748 C154.568218,139.88403 154.759716,139.720906 154.946286,139.551453 C154.95051,139.547937 154.954735,139.543719 154.958959,139.540203 C156.294517,138.325207 157.455474,136.92318 158.4017,135.375607 C158.475624,135.253263 158.544619,135.129514 158.615727,135.00717 C158.691059,134.876389 158.768503,134.747015 158.841723,134.614828 C159.709097,133.02577 160.343434,131.324213 160.728542,129.565703 C160.730655,129.555859 160.733471,129.546718 160.735583,129.536875 C160.787682,129.295704 160.83274,129.053126 160.875686,128.810549 C160.889063,128.736018 160.903848,128.66219 160.915816,128.587659 C160.946794,128.400628 160.971435,128.212894 160.996781,128.024457 C161.015085,127.887348 161.034094,127.749536 161.049583,127.611021 C161.064368,127.475319 161.076337,127.338913 161.088305,127.20321 C161.105202,127.007742 161.122099,126.810867 161.133364,126.612587 C161.138292,126.521884 161.141812,126.430478 161.146036,126.339072 C161.156597,126.096495 161.163637,125.853917 161.164341,125.608527 C161.181238,122.362209 160.367371,119.067376 158.624176,116.051682 Z" id="Shape" fill="#0D561E"></path>
                <path d="M142.176462,73.4248605 C138.957605,73.4248605 135.696505,72.6057224 132.708572,70.8830715 L71.0982891,35.3584937 C62.0246596,30.1265568 58.9156319,18.5390925 64.1543717,9.47654242 C69.3931114,0.414695416 80.9963461,-2.69029499 90.0699756,2.54234509 L151.680258,38.0669228 C160.753888,43.2988598 163.862915,54.886324 158.624176,63.9488741 C155.110327,70.0266679 148.733159,73.4248605 142.176462,73.4248605 Z" id="Shape" fill="#0D7DA0"></path>
                <path d="M158.624176,63.9488741 C160.367371,60.9338835 161.180534,57.6404561 161.163637,54.3934349 C161.162933,54.1466388 161.155189,53.9012489 161.145332,53.6572653 C161.141108,53.5672656 161.138292,53.4772659 161.13266,53.3872661 C161.121395,53.1889855 161.104498,52.9921111 161.087601,52.7945336 C161.074929,52.659534 161.064368,52.5238313 161.048879,52.3888317 C161.034094,52.2503165 161.014381,52.1125045 160.996076,51.9746924 C160.970731,51.7862555 160.94609,51.5978185 160.915112,51.4107879 C160.903144,51.3376631 160.888359,51.2645383 160.875686,51.1914136 C160.832036,50.9474299 160.787682,50.7041494 160.734879,50.4622752 C160.732767,50.4524315 160.730655,50.4432909 160.727838,50.432744 C160.34273,48.6742338 159.708393,46.9719735 158.840315,45.3829159 C158.770615,45.2556506 158.695283,45.1311979 158.622768,45.0046358 C158.549548,44.8773706 158.477032,44.7486991 158.400996,44.6228401 C157.456882,43.0773761 156.297333,41.6767554 154.964591,40.4638686 C154.958255,40.4575405 154.951214,40.4512124 154.944878,40.4455874 C154.761828,40.2789473 154.573146,40.1186353 154.383056,39.9597295 C154.325325,39.911214 154.269002,39.8619954 154.210567,39.8141831 C154.064128,39.6946522 153.914168,39.5793401 153.763504,39.4633248 C153.652266,39.3782469 153.542436,39.2917628 153.429086,39.2087943 C153.320665,39.1293414 153.209427,39.0519979 153.098893,38.9746544 C152.93626,38.8607485 152.77222,38.7468426 152.604659,38.6371555 C152.530031,38.58864 152.454699,38.5408276 152.379367,38.4930153 C152.17238,38.3615313 151.962577,38.2321567 151.74855,38.1084071 C148.941554,36.4701309 145.678342,35.5272432 142.192655,35.5272432 C131.715175,35.5272432 123.221672,44.009717 123.221672,54.4735909 L123.221672,65.4127759 L132.707164,70.8816652 C135.695097,72.6043162 138.956197,73.4234542 142.175054,73.4234542 C148.733159,73.4248605 155.110327,70.0266679 158.624176,63.9488741 Z" id="Shape" fill="#0D561E"></path>
                <path d="M18.9918027,73.4248605 C12.4351056,73.4248605 6.05864205,70.0266679 2.54479312,63.948171 C-2.6939466,54.886324 0.415081031,43.2981567 9.48871058,38.0662197 L71.0989932,2.54164197 C80.1726227,-2.69029499 91.7751533,0.413992294 97.0145971,9.47654242 C102.253337,18.5383894 99.1443092,30.1265568 90.0706796,35.3584937 L28.4603971,70.8830715 C25.4724638,72.6057224 22.2099561,73.4248605 18.9918027,73.4248605 Z" id="Shape" fill="#FFAB2E"></path>
                <path d="M89.9960517,2.50226709 C89.7827285,2.38062684 89.5679972,2.26461158 89.3518578,2.15211192 C89.2708935,2.10992455 89.1906333,2.06773718 89.108261,2.02625294 C88.9315477,1.93765946 88.7527223,1.85328472 88.5738969,1.77031623 C88.4499863,1.71266016 88.3260758,1.65430096 88.2007572,1.6001605 C88.0733265,1.54391068 87.9451918,1.49258271 87.8177611,1.43914538 C87.6417518,1.3660206 87.4657425,1.29359895 87.2876212,1.22680228 C87.2179215,1.20008362 87.1475178,1.17617744 87.0778181,1.15086502 C86.8440778,1.06578715 86.6096335,0.982818661 86.3737811,0.907584519 C86.3660367,0.90547515 86.3589963,0.903365782 86.3519559,0.90055329 C84.6312894,0.352820607 82.8352908,0.0504777915 81.0209874,0.0068841762 C80.8914445,0.00407168488 80.7626058,0.00618105337 80.633767,0.00618105337 C80.4697263,0.00547793054 80.3063897,0.00336856206 80.1423491,0.0068841762 C79.8579181,0.0139154045 79.5741912,0.0265716154 79.2911683,0.0469621774 C79.2820158,0.0469621774 79.2728633,0.0476653002 79.2630068,0.048368423 C77.7577756,0.15453997 76.2722574,0.440007838 74.839542,0.894928308 C74.8233492,0.899850168 74.8071563,0.904772027 74.7909635,0.909693887 C74.5607433,0.983521784 74.3326353,1.06438091 74.1052314,1.14664628 C74.0291954,1.17406807 73.9531594,1.20008362 73.8778274,1.22891165 C73.7046343,1.29430207 73.5342573,1.36461436 73.3631763,1.43492664 C73.2294093,1.49047334 73.0956422,1.54391068 72.9625792,1.602973 C72.8428929,1.65570721 72.7239107,1.71125391 72.6049284,1.76609749 C72.4211747,1.85187848 72.2374211,1.93836258 72.0550755,2.02976855 C71.9783354,2.06844031 71.9022994,2.10851831 71.8255594,2.14789319 C71.6058998,2.26250221 71.3862403,2.38062684 71.1686928,2.50507958 C68.3462083,4.11382461 65.8982714,6.4636611 64.1564838,9.47724554 C58.917744,18.5390925 62.0267717,30.1272599 71.1004012,35.3591968 L80.5858925,40.8287893 L90.0720877,35.3591968 C99.1457173,30.1272599 102.254745,18.5397957 97.0160052,9.47724554 C95.2706973,6.46155174 92.8206484,4.110309 89.9960517,2.50226709 Z" id="Shape" fill="#0D561E"></path>
                <path d="M18.9742018,144.471907 C8.49672237,144.471907 0.00251531759,135.989433 0.00251531759,125.524856 L0.00251531759,54.4749972 C0.00251531759,44.0111232 8.49601833,35.5286494 18.9742018,35.5286494 C29.4516812,35.5286494 37.9451843,44.0111232 37.9451843,54.4749972 L37.9451843,125.524153 C37.9451843,135.98873 29.4516812,144.471907 18.9742018,144.471907 Z" id="Shape" fill="#0D7DA0"></path>
                <path d="M37.9451843,54.4749972 C37.9451843,44.0111232 29.4516812,35.5286494 18.9742018,35.5286494 C15.4899224,35.5286494 12.2281188,36.470834 9.4225311,38.107704 C9.20568768,38.233563 8.99377253,38.3643438 8.78326545,38.4979371 C8.71074964,38.5436401 8.63752978,38.5893431 8.565718,38.6371555 C8.39534104,38.7482489 8.22918829,38.863561 8.06373958,38.9795763 C7.95602191,39.0555135 7.84689617,39.1307477 7.74129061,39.2087943 C7.6251245,39.2938722 7.51247857,39.3817625 7.39842457,39.4689498 C7.25128082,39.5821525 7.10413708,39.6953553 6.95980948,39.8127768 C6.89785422,39.8634017 6.83801107,39.9154328 6.77675985,39.9667607 C6.59089407,40.122854 6.40573232,40.2803535 6.22620287,40.443478 C6.21564232,40.4533217 6.20508176,40.4631654 6.19452121,40.4730092 C5.08214266,41.4862092 4.09015445,42.6294869 3.24460595,43.8789361 C3.23756558,43.889483 3.23122925,43.9000298 3.22489291,43.9098735 C3.06789265,44.1426072 2.91582065,44.3795596 2.76938094,44.6193245 C2.68419246,44.759949 2.60393223,44.902683 2.52226393,45.0447138 C2.45819656,45.1558072 2.39201708,45.2654944 2.33076585,45.377994 C1.45775991,46.974786 0.820606374,48.6854838 0.436202143,50.4531346 L0.436202143,50.4531346 C0.38199129,50.7020401 0.335524844,50.953758 0.29117051,51.2047729 C0.279905917,51.2708664 0.266529213,51.3362569 0.255968657,51.4023504 C0.22428699,51.5964123 0.198237619,51.7925836 0.172188248,51.9880517 C0.155291358,52.1181294 0.136986395,52.2482072 0.122201617,52.378988 C0.106712802,52.5217219 0.0940401346,52.6644559 0.0813674676,52.8064867 C0.0651746154,52.9963299 0.0489817631,53.1854699 0.0377171703,53.3767193 C0.0320848738,53.4737503 0.0285646886,53.5707812 0.0236364292,53.6678122 C0.0137799104,53.9047645 0.00673953991,54.1424201 0.00603550286,54.3821849 C-0.0129734976,57.6320187 0.800893337,60.9296647 2.54549716,63.9474679 C6.05934609,70.0259647 12.4358097,73.4241574 18.9925068,73.4241574 C22.2106601,73.4241574 25.4731678,72.6050193 28.4603971,70.8823683 L37.9458883,65.4127759 L37.9458883,54.4749972 L37.9451843,54.4749972 Z" id="Shape" fill="#0D561E"></path>
                <path d="M80.5668835,180 C77.348026,180 74.0862224,179.180862 71.0989932,177.458211 L9.48871058,141.933633 C0.415081031,136.701696 -2.6939466,125.113529 2.54479312,116.051682 C7.78353284,106.989132 19.3860635,103.884141 28.4603971,109.116781 L90.0706796,144.642062 C99.1443092,149.873999 102.253337,161.461464 97.0145971,170.524014 C93.5000441,176.601807 87.1228765,180 80.5668835,180 Z" id="Shape" fill="#FFAB2E"></path>
                <path d="M97.0138931,170.523311 C102.252633,161.46076 99.1436052,149.873999 90.0699756,144.641359 L80.5837803,139.171767 L71.0982891,144.641359 C62.0246596,149.873296 58.9156319,161.46076 64.1543717,170.523311 C65.8855988,173.518614 68.3138226,175.858607 71.114482,177.466648 C71.4312986,177.648757 71.7523395,177.8161 72.0740845,177.978522 C72.1346317,178.008756 72.1937708,178.043209 72.254318,178.07274 C72.4915784,178.188756 72.7330632,178.291412 72.9731398,178.39688 C73.1259158,178.463677 73.2758757,178.536098 73.4293558,178.598676 C73.4920151,178.624692 73.5560825,178.644379 73.6194458,178.669692 C75.8308262,179.539455 78.1942786,179.997891 80.5837803,180 C82.9817305,179.997891 85.3543354,179.537345 87.5727562,178.661254 C87.626967,178.64016 87.6811779,178.621879 87.7346847,178.600786 C87.8959092,178.534692 88.0529094,178.458755 88.2127259,178.389146 C88.4457621,178.28649 88.6802065,178.187349 88.9111306,178.074147 C88.9773101,178.041803 89.0420815,178.004537 89.107557,177.971491 C89.4243736,177.811882 89.7397822,177.647351 90.0509666,177.468055 C92.8530341,175.860013 95.2819619,173.519317 97.0138931,170.523311 Z" id="Shape" fill="#0D561E"></path>
                <path d="M28.459693,109.116781 C19.3860635,103.884845 7.78353284,106.989835 2.54408908,116.051682 C0.799485262,119.069485 -0.0143815717,122.366428 0.00462742875,125.616965 C0.0053314658,125.85673 0.0123718363,126.095088 0.0229323921,126.332744 C0.0271566145,126.429072 0.0306767997,126.524696 0.0363090962,126.620321 C0.047573689,126.812977 0.0637665413,127.004929 0.0799593935,127.195476 C0.0926320605,127.3361 0.10460069,127.476725 0.120089506,127.617349 C0.134874284,127.750943 0.153179247,127.88313 0.170780173,128.015317 C0.196829544,128.207973 0.222174878,128.401331 0.253856546,128.593284 C0.265121139,128.662893 0.278497843,128.730393 0.290466473,128.799299 C0.33411677,129.048204 0.379879178,129.296407 0.434090032,129.543203 C0.434794069,129.546718 0.435498106,129.549531 0.436202143,129.553046 C0.821310411,131.317885 1.45705587,133.025067 2.32794971,134.619046 C2.39412919,134.739984 2.46523693,134.858108 2.53423256,134.976936 C2.6109726,135.111232 2.6870086,135.246935 2.76797286,135.379122 C2.91863679,135.625918 3.07422898,135.868496 3.23615751,136.108261 C3.23826962,136.111776 3.24108576,136.115995 3.24390191,136.120214 C4.09156253,137.373179 5.08636688,138.519269 6.20156158,139.533875 C6.20930598,139.540906 6.21634635,139.547937 6.22409076,139.554266 C6.4071404,139.720203 6.59582233,139.881218 6.78520829,140.040123 C6.84293933,140.087233 6.89855826,140.137154 6.95699333,140.184264 C7.10413708,140.304498 7.25480101,140.420513 7.40616897,140.536528 C7.51599876,140.620903 7.62582854,140.705981 7.73777043,140.788246 C7.84760021,140.868402 7.9595421,140.946449 8.07077995,141.025199 C8.23270848,141.138401 8.39534104,141.250901 8.56149378,141.360588 C8.63682574,141.409807 8.71356578,141.458322 8.79030582,141.506838 C8.99588464,141.637619 9.20427961,141.765587 9.4168988,141.889336 C12.2238945,143.528316 15.4885144,144.471907 18.9749058,144.471907 C29.4523853,144.471907 37.9458883,135.989433 37.9458883,125.524856 L37.9458883,114.586374 L28.459693,109.116781 Z" id="Shape" fill="#0D561E"></path>
            </g>
        </g>
    </g>
</svg>