<svg id="Layer_1" data-name="Layer 1" xmlns="http://www.w3.org/2000/svg" viewBox="0 0 719.9999 720"><path d="M719.928,352.87381C716.36272,172.63773,580.92265,25.97665,407.5092,3.10782l-.138-.01813Q396.10967,1.609,384.64281.83163c-.18366-.01245-.36707-.02575-.55078-.0379Q380.508.55735,376.90575.392c-.29657-.01373-.59345-.02594-.89026-.03894q-3.593-.15655-7.20221-.24695c-.16473-.004-.33-.00555-.49481-.00928q-3.50922-.07864-7.03424-.08911c-.233-.00073-.4654-.00409-.69843-.00439-.15112-.00019-.30163-.00281-.45276-.00281q-3.624,0-7.26.0719-3.86765.07653-7.71264.24023c-.30042.01227-.60138.02191-.90155.035q-3.6927.15984-7.3642.39685c-.361.02295-.722.04547-1.0827.06952q-3.68583.24526-7.35053.56347c-.28564.02484-.5708.05127-.85626.07678q-3.82077.34122-7.61871.75788c-.05274.0058-.10523.01227-.1579.01819q-8.04766.89411-15.98273,2.13922l-.07867.01208q-3.93678.61734-7.84369,1.32074l-.21234.03815C124.68242,36.55978-3.4742,187.82822.07182,367.12741,3.63768,547.33694,139.05064,693.99417,312.434,716.88547l.25183.0332q3.74991.49238,7.52258.90918l.03845.00409q7.467.82012,15.02137,1.33081c.23126.01569.46221.03253.6936.04779q3.52076.23163,7.05933.39459c.34875.01618.69781.03064,1.04687.04584q3.52185.15262,7.05927.24194c.22875.0055.45825.00782.68713.01288q3.37473.07434,6.7641.0857c.29492.001.58917.00524.88421.00555.13178.00012.26307.00244.3949.00244,2.132,0,4.26764-.02612,6.40729-.06348.28528-.005.56885-.002.85425-.00762.0542-.0011.10791-.004.16211-.00507q3.728-.07535,7.43518-.23145c.359-.01452.71881-.02624,1.07757-.04181q3.61651-.1571,7.21271-.38861c.41779-.02649.83563-.05255,1.25305-.08044q3.612-.24116,7.20392-.55225c.34088-.0296.68121-.061,1.02179-.09161q3.74515-.33554,7.46851-.743c.11389-.01264.22729-.02661.34106-.03931q7.93113-.88394,15.75293-2.1087c.08209-.01288.16449-.025.24652-.0379q3.86354-.60654,7.6983-1.29627.18924-.034.37842-.068,3.85053-.6948,7.67212-1.46967l.06684-.01281.00018-.001C599.213,678.80258,723.421,529.42642,719.928,352.87381ZM490.356,652.34641a317.30777,317.30777,0,0,1-50.07116,17.49725l.1842-.9671c3.39288-17.837,14.24463-44.89862,24.11292-60.1449l54.90869-84.85486c9.85882-15.24622,16.03167-42.45038,13.70617-60.44812L508.63976,273.08646c-2.32557-18.00769-15.36982-32.73371-28.981-32.73371-13.61194,0-24.7558,14.85-24.7558,33.00733v206.299a33.00806,33.00806,0,0,1-66.01611,0V421.89523c0-18.149-13.00635-33.00732-28.88678-33.00732-15.87891,0-29.945,14.82025-31.23047,32.92261l-3.55408,49.68194a516.70005,516.70005,0,0,0,.39758,65.81659l2.7594,33.23456c1.51233,18.09192-.66119,47.35559-4.82006,65.02405l-9.67933,41.14612A319.71342,319.71342,0,0,1,40.064,366.3364,319.82727,319.82727,0,0,1,279.71977,50.15433l-.18676.98065c-3.39368,17.83581-14.24537,44.89862-24.11292,60.13458l-54.90948,84.86475c-9.8592,15.23712-16.03132,42.44043-13.70618,60.44812L211.36113,446.925c2.32556,17.99774,15.36066,32.73407,28.98212,32.73407,13.62115,0,24.75549-14.84949,24.75549-33.0072V240.35275a33.00748,33.00748,0,1,1,66.015,0v57.75281c0,18.15857,13.00745,33.00855,28.88636,33.00855,15.88043,0,29.94616-14.81159,31.23126-32.91309L394.785,248.5195a516.55677,516.55677,0,0,0-.39594-65.82617L391.62877,149.458c-1.51233-18.09125.662-47.34729,4.82056-65.02326l9.67926-41.14752A319.706,319.706,0,0,1,679.93578,353.665,320.40507,320.40507,0,0,1,490.356,652.34641Z" style="fill:#0072c6"/></svg>