<svg xmlns="http://www.w3.org/2000/svg" xmlns:xlink="http://www.w3.org/1999/xlink" viewBox="0 0 1024 1024"><defs><style>.a{isolation:isolate;}.b{fill:#55bceb;}.c{fill:url(#a);}.d{fill:#0072c6;}.e,.f{opacity:0.3;}.f{fill:#4caff9;mix-blend-mode:screen;}.g{fill:#fff;}</style><linearGradient id="a" x1="512" y1="96.86" x2="512" y2="927.13" gradientUnits="userSpaceOnUse"><stop offset="0" stop-color="#00b4ff"/><stop offset="1" stop-color="#004892"/></linearGradient></defs><g class="a"><rect class="b" x="96.86" y="96.86" width="830.27" height="830.27"/><rect class="c" x="96.86" y="96.86" width="830.27" height="830.27"/><path class="d" d="M357,0H667c102.8,0,154.2,0,209.53,17.5a217.47,217.47,0,0,1,130,130C1024,202.81,1024,254.21,1024,357V667c0,102.8,0,154.2-17.49,209.53a217.47,217.47,0,0,1-130,130C821.19,1024,769.79,1024,667,1024H357c-102.8,0-154.2,0-209.53-17.5a217.43,217.43,0,0,1-130-130C0,821.19,0,769.79,0,667V357c0-102.8,0-154.2,17.5-209.53a217.43,217.43,0,0,1,130-130C202.81,0,254.21,0,357,0h0"/><g class="e"><path class="f" d="M357,0H667c102.8,0,154.2,0,209.53,17.5a217.47,217.47,0,0,1,130,130C1024,202.81,1024,254.21,1024,357V667c0,102.8,0,154.2-17.49,209.53a217.47,217.47,0,0,1-130,130C821.19,1024,769.79,1024,667,1024H357c-102.8,0-154.2,0-209.53-17.5a217.43,217.43,0,0,1-130-130C0,821.19,0,769.79,0,667V357c0-102.8,0-154.2,17.5-209.53a217.43,217.43,0,0,1,130-130C202.81,0,254.21,0,357,0h0"/></g><path class="g" d="M955.83,503.21C951.44,281,784.42,100.11,570.58,71.91l-.17,0q-13.87-1.83-28-2.79l-.68,0c-3-.2-5.9-.36-8.86-.5l-1.1,0q-4.43-.2-8.88-.3h-.61c-2.89-.07-5.78-.1-8.68-.11h-1.42q-4.47,0-8.95.09-4.77.09-9.51.29l-1.11.05c-3,.13-6.06.29-9.08.49l-1.34.08q-4.55.3-9.06.7l-1.06.09q-4.71.42-9.39.94l-.2,0q-9.91,1.1-19.7,2.64h-.1q-4.86.76-9.67,1.63l-.27,0C221.83,113.16,63.8,299.69,68.17,520.79,72.57,743,239.54,923.85,453.35,952.08l.31,0c3.08.4,6.17.78,9.27,1.12H463q9.21,1,18.52,1.64l.86.06q4.33.28,8.7.48l1.29.06c2.9.12,5.8.23,8.71.3h.85q4.15.09,8.34.11h1.57q3.95,0,7.91-.08H521c3.06-.06,6.12-.16,9.17-.28l1.33,0c3-.13,5.93-.3,8.89-.48l1.55-.1c3-.2,5.93-.43,8.88-.68l1.26-.12q4.62-.4,9.21-.91l.42-.05q9.78-1.1,19.42-2.6l.31,0c3.17-.5,6.34-1,9.49-1.6l.47-.08c3.16-.57,6.32-1.17,9.46-1.81l.08,0h0C807,905.12,960.14,720.92,955.83,503.21ZM672.74,872.49A390.32,390.32,0,0,1,611,894.07l.23-1.19c4.18-22,17.56-55.37,29.73-74.17l67.71-104.63c12.16-18.8,19.77-52.35,16.9-74.54L695.29,404.82c-2.87-22.2-18.95-40.36-35.74-40.36S629,382.77,629,405.16V659.55a40.71,40.71,0,0,1-81.41,0V588.32c0-22.38-16-40.7-35.62-40.7s-36.93,18.28-38.51,40.6l-4.38,61.26c-1.59,22.32-1.38,58.85.49,81.16l3.4,41c1.86,22.31-.82,58.4-5.94,80.18l-11.94,50.74a394.48,394.48,0,0,1-227.61-664A393.16,393.16,0,0,1,413,129.92l-.23,1.21c-4.19,22-17.57,55.37-29.74,74.16L315.33,309.93c-12.16,18.79-19.77,52.34-16.9,74.54l30.28,234.72c2.87,22.19,18.94,40.36,35.74,40.36S395,641.24,395,618.85V364.46a40.7,40.7,0,0,1,81.4,0v71.22c0,22.39,16,40.7,35.62,40.7s36.93-18.27,38.51-40.59l4.38-61.26c1.59-22.33,1.38-58.86-.48-81.17l-3.41-41c-1.86-22.31.82-58.39,6-80.18l11.93-50.74A394.23,394.23,0,0,1,906.52,504.19a395.08,395.08,0,0,1-233.78,368.3Z"/></g></svg>