<?xml version="1.0" encoding="utf-8"?>
<!-- Generator: Adobe Illustrator 26.0.1, SVG Export Plug-In . SVG Version: 6.00 Build 0)  -->
<svg version="1.1" id="Layer_1" xmlns="http://www.w3.org/2000/svg" xmlns:xlink="http://www.w3.org/1999/xlink" x="0px" y="0px"
	 viewBox="0 0 720 720" style="enable-background:new 0 0 720 720;" xml:space="preserve">
<style type="text/css">
	.st0{fill:#FFFFFF;}
	.st1{fill:#0072C6;}
</style>
<circle class="st0" cx="360" cy="360" r="341.4"/>
<path class="st1" d="M719.9,352.9C716.4,172.6,580.9,26,407.5,3.1l-0.1,0c-7.5-1-15.1-1.7-22.7-2.3c-0.2,0-0.4,0-0.6,0
	c-2.4-0.2-4.8-0.3-7.2-0.4c-0.3,0-0.6,0-0.9,0c-2.4-0.1-4.8-0.2-7.2-0.2c-0.2,0-0.3,0-0.5,0C366,0,363.6,0,361.3,0
	c-0.2,0-0.5,0-0.7,0c-0.2,0-0.3,0-0.5,0c-2.4,0-4.8,0-7.3,0.1c-2.6,0.1-5.1,0.1-7.7,0.2c-0.3,0-0.6,0-0.9,0
	c-2.5,0.1-4.9,0.2-7.4,0.4c-0.4,0-0.7,0-1.1,0.1c-2.5,0.2-4.9,0.4-7.4,0.6c-0.3,0-0.6,0.1-0.9,0.1c-2.5,0.2-5.1,0.5-7.6,0.8
	c-0.1,0-0.1,0-0.2,0c-5.4,0.6-10.7,1.3-16,2.1l-0.1,0c-2.6,0.4-5.2,0.9-7.8,1.3l-0.2,0C124.7,36.6-3.5,187.8,0.1,367.1
	c3.6,180.2,139,326.9,312.4,349.8l0.3,0c2.5,0.3,5,0.6,7.5,0.9l0,0c5,0.5,10,1,15,1.3c0.2,0,0.5,0,0.7,0c2.3,0.2,4.7,0.3,7.1,0.4
	c0.3,0,0.7,0,1,0c2.3,0.1,4.7,0.2,7.1,0.2c0.2,0,0.5,0,0.7,0c2.2,0,4.5,0.1,6.8,0.1c0.3,0,0.6,0,0.9,0c0.1,0,0.3,0,0.4,0
	c2.1,0,4.3,0,6.4-0.1c0.3,0,0.6,0,0.9,0c0.1,0,0.1,0,0.2,0c2.5-0.1,5-0.1,7.4-0.2c0.4,0,0.7,0,1.1,0c2.4-0.1,4.8-0.2,7.2-0.4
	c0.4,0,0.8-0.1,1.3-0.1c2.4-0.2,4.8-0.3,7.2-0.6c0.3,0,0.7-0.1,1-0.1c2.5-0.2,5-0.5,7.5-0.7c0.1,0,0.2,0,0.3,0
	c5.3-0.6,10.5-1.3,15.8-2.1c0.1,0,0.2,0,0.2,0c2.6-0.4,5.1-0.8,7.7-1.3c0.1,0,0.3,0,0.4-0.1c2.6-0.5,5.1-1,7.7-1.5l0.1,0l0,0
	C599.2,678.8,723.4,529.4,719.9,352.9z M490.4,652.3c-16.2,7.2-32.9,13.1-50.1,17.5l0.2-1c3.4-17.8,14.2-44.9,24.1-60.1l54.9-84.9
	c9.9-15.2,16-42.5,13.7-60.4l-24.6-190.3c-2.3-18-15.4-32.7-29-32.7c-13.6,0-24.8,14.9-24.8,33v206.3c0,18.2-14.8,33-33,33
	c-18.2,0-33-14.8-33-33v-57.8c0-18.1-13-33-28.9-33c-15.9,0-29.9,14.8-31.2,32.9l-3.6,49.7c-1.3,21.9-1.1,43.9,0.4,65.8l2.8,33.2
	c1.5,18.1-0.7,47.4-4.8,65l-9.7,41.1C158.9,654.3,43,522.9,40.1,366.3C37,218.1,136.2,87.3,279.7,50.2l-0.2,1
	c-3.4,17.8-14.2,44.9-24.1,60.1l-54.9,84.9c-9.9,15.2-16,42.4-13.7,60.4l24.6,190.3c2.3,18,15.4,32.7,29,32.7
	c13.6,0,24.8-14.8,24.8-33V240.4c0-18.2,14.8-33,33-33c18.2,0,33,14.8,33,33v57.8c0,18.2,13,33,28.9,33c15.9,0,29.9-14.8,31.2-32.9
	l3.6-49.7c1.3-21.9,1.1-43.9-0.4-65.8l-2.8-33.2c-1.5-18.1,0.7-47.3,4.8-65l9.7-41.1c155,22.5,270.9,153.8,273.8,310.4
	C682.4,482.3,607.8,599.9,490.4,652.3z"/>
</svg>
