<svg xmlns="http://www.w3.org/2000/svg" viewBox="0 0 1024 1024"><defs><style>.a,.b{fill:#009639;}.b,.c{fill-rule:evenodd;}.c{fill:#fff;}</style></defs><path class="a" d="M357,0H667c102.8,0,154.2,0,209.53,17.5a217.47,217.47,0,0,1,130,130C1024,202.81,1024,254.21,1024,357V667c0,102.8,0,154.2-17.49,209.53a217.47,217.47,0,0,1-130,130C821.19,1024,769.79,1024,667,1024H357c-102.8,0-154.2,0-209.53-17.5a217.43,217.43,0,0,1-130-130C0,821.19,0,769.79,0,667V357c0-102.8,0-154.2,17.5-209.53a217.43,217.43,0,0,1,130-130C202.81,0,254.21,0,357,0h0"/><path class="b" d="M955.92,512c0,245.2-198.72,443.92-443.92,443.92S68.08,757.2,68.08,512,266.8,68.08,512,68.08,955.92,266.8,955.92,512"/><path class="c" d="M454.85,512,341.53,398.69c-62.48-62.59-164-62.59-226.51,0a160.23,160.23,0,0,0,0,226.62l113.31,113.2Z"/><path class="c" d="M909,398.69c-62.6-62.59-164-62.59-226.51,0L569.15,512,795.67,738.51,909,625.31a160.23,160.23,0,0,0,0-226.62"/><path class="c" d="M624.76,342.09a160.09,160.09,0,0,0,0-226.51c-62.49-62.59-164-62.59-226.63,0s-62.59,164,0,226.51,164.14,62.48,226.63,0"/><path class="c" d="M512.44,568.6,285.93,795.22,399.24,908.53c62.6,62.59,164,62.59,226.51,0l113.32-113.2Z"/></svg>