<?xml version="1.0" encoding="utf-8"?>
<!-- Generator: Adobe Illustrator 26.0.1, SVG Export Plug-In . SVG Version: 6.00 Build 0)  -->
<svg version="1.1" id="Layer_1" xmlns="http://www.w3.org/2000/svg" xmlns:xlink="http://www.w3.org/1999/xlink" x="0px" y="0px"
	 viewBox="0 0 1024 1024" style="enable-background:new 0 0 1024 1024;" xml:space="preserve">
<style type="text/css">
	.st0{fill-rule:evenodd;clip-rule:evenodd;fill:#009639;}
	.st1{fill-rule:evenodd;clip-rule:evenodd;fill:#FFFFFF;}
</style>
<g id="favicon-master">
	<g id="Group-12">
		<path id="Fill-2" class="st0" d="M1024,512c0,282.8-229.2,512-512,512S0,794.8,0,512S229.2,0,512,0S1024,229.2,1024,512"/>
		<path id="Fill-4" class="st1" d="M460.5,512L358.4,409.9c-56.3-56.4-147.8-56.4-204.1,0c-56.4,56.4-56.4,147.8,0,204.2l102.1,102
			L460.5,512z"/>
		<path id="Fill-6" class="st1" d="M869.7,409.9c-56.4-56.4-147.8-56.4-204.1,0L563.5,512l204.1,204.1l102.1-102
			C926.1,557.7,926.1,466.3,869.7,409.9"/>
		<path id="Fill-8" class="st1" d="M613.6,358.9c56.4-56.4,56.4-147.7,0-204.1c-56.3-56.4-147.8-56.4-204.2,0
			c-56.4,56.4-56.4,147.8,0,204.1C465.9,415.2,557.3,415.2,613.6,358.9"/>
		<path id="Fill-10" class="st1" d="M512.4,563L308.3,767.2l102.1,102.1c56.4,56.4,147.8,56.4,204.1,0l102.1-102L512.4,563z"/>
	</g>
</g>
</svg>
