<?xml version="1.0" encoding="utf-8"?>
<!-- Generator: Adobe Illustrator 26.0.1, SVG Export Plug-In . SVG Version: 6.00 Build 0)  -->
<svg version="1.1" id="Layer_1" xmlns="http://www.w3.org/2000/svg" xmlns:xlink="http://www.w3.org/1999/xlink" x="0px" y="0px"
	 viewBox="0 0 1024 1024" style="enable-background:new 0 0 1024 1024;" xml:space="preserve">
<style type="text/css">
	.st0{fill:#009639;}
	.st1{fill-rule:evenodd;clip-rule:evenodd;fill:#009639;}
	.st2{fill-rule:evenodd;clip-rule:evenodd;fill:#FFFFFF;}
</style>
<path class="st0" d="M357,0h310c102.8,0,154.2,0,209.53,17.5c60.42,21.99,108.01,69.58,130,130C1024,202.81,1024,254.21,1024,357
	v310c0,102.8,0,154.2-17.49,209.53c-21.99,60.42-69.58,108.01-130,130C821.19,1024,769.79,1024,667,1024H357
	c-102.8,0-154.2,0-209.53-17.5c-60.42-21.98-108.02-69.58-130-130C0,821.19,0,769.79,0,667V357c0-102.8,0-154.2,17.5-209.53
	c21.98-60.42,69.58-108.02,130-130C202.81,0,254.21,0,357,0L357,0"/>
<g>
	<path class="st1" d="M871.99,512c0,198.84-161.15,359.99-359.99,359.99S152.01,710.84,152.01,512S313.16,152.01,512,152.01
		S871.99,313.16,871.99,512"/>
	<path class="st2" d="M465.66,512l-91.9-91.89c-50.67-50.76-132.99-50.76-183.69,0c-50.75,50.74-50.76,133.01-0.02,183.76
		c0.01,0.01,0.01,0.01,0.02,0.02l91.89,91.8L465.66,512z"/>
	<path class="st2" d="M833.94,420.11c-50.76-50.76-132.99-50.76-183.69,0L558.35,512l183.69,183.69l91.9-91.8
		c50.75-50.74,50.76-133.01,0.02-183.76C833.96,420.12,833.95,420.12,833.94,420.11"/>
	<path class="st2" d="M603.44,374.21c50.72-50.67,50.76-132.87,0.09-183.6c-0.03-0.03-0.06-0.06-0.09-0.09
		c-50.68-50.76-132.99-50.76-183.78,0s-50.76,132.99,0,183.69S552.77,424.88,603.44,374.21"/>
	<path class="st2" d="M512.36,557.9L328.67,741.67l91.89,91.89c50.76,50.76,132.99,50.76,183.69,0l91.9-91.8L512.36,557.9z"/>
</g>
</svg>
