<svg id="Layer_1" data-name="Layer 1" xmlns="http://www.w3.org/2000/svg" viewBox="0 0 1023.99962 1023.99962"><path d="M.00019,511.9995A512.00008,512.00008,0,1,1,149.96107,874.038,510.3937,510.3937,0,0,1,.00019,511.9995Z" transform="translate(-0.00019 -0.00019)" style="fill:red"/><circle cx="511.99962" cy="516.54547" r="360" style="fill:red"/><circle cx="511.99967" cy="516.54554" r="253.1251" style="fill:red"/><circle cx="511.99967" cy="516.54554" r="315.0265" style="fill:red"/><path d="M312.82479,748.23436q-41.58258-16.76367-65.55524-47.95122-23.97807-31.18509-26.99368-74.44148l-.33545-5.02929h82.48934l.67041,4.02343a67.96231,67.96231,0,0,0,18.10744,35.87894q14.414,15.09086,38.05912,23.3052,23.6404,8.22076,53.81939,8.21534,30.509,0,52.813-8.38282,22.29639-8.37739,34.37015-23.97511,12.07179-15.5933,12.07179-36.38236v-.336q0-27.16116-20.28713-42.92094-20.29182-15.7573-67.232-25.81935l-51.97466-10.73048q-71.09337-14.75244-106.63243-48.45415-35.54668-33.70023-35.544-87.68661v-.33545q.33029-42.91848,23.30471-74.94441,22.96434-32.01782,63.54352-49.96294,40.56883-17.934,92.54892-17.93947,52.63989,0,92.21347,17.43654,39.56322,17.43973,62.20221,48.62163,22.6333,31.18509,24.981,72.42927l.336,5.70069H507.31131l-.6709-4.35938q-3.01758-21.12527-15.75978-36.04691-12.74787-14.91648-33.53226-22.96975-20.795-8.04712-47.95122-8.04737-28.16678,0-48.78911,8.21534-20.62209,8.22075-31.8555,22.96926a54.89353,54.89353,0,0,0-11.23341,34.20316v.335q0,25.48759,20.62258,41.41264,20.62209,15.93021,64.21393,24.98147l51.97466,10.73q75.77785,15.76543,110.32091,48.11919,34.5322,32.36286,34.53812,89.02693v.33594q0,44.93858-22.6343,78.13-22.63332,33.19632-65.05231,51.30376Q469.07929,765.001,410.06805,765,354.40172,765,312.82479,748.23436Z" transform="translate(-0.00019 -0.00019)" style="fill:#fff"/><path d="M666.5888,336.79451a45.53615,45.53615,0,0,1,0-64.54938Q679.99649,259.00221,699.45016,259q19.78125,0,33.1973,13.24513a45.5385,45.5385,0,0,1,0,64.54938q-13.41654,13.41581-33.1973,13.4131Q679.99846,350.20761,666.5888,336.79451ZM657.87,401.17641h83.4952V756.61718H657.87Z" transform="translate(-0.00019 -0.00019)" style="fill:#fff"/></svg>