<svg id="Layer_1" data-name="Layer 1" xmlns="http://www.w3.org/2000/svg" viewBox="0 0 1023.99962 1023.99962"><path d="M.00019,511.9995A512.00008,512.00008,0,1,1,149.96107,874.038,510.3937,510.3937,0,0,1,.00019,511.9995Z" transform="translate(-0.00019 -0.00019)" style="fill:red"/><circle cx="511.99981" cy="511.99981" r="327.09292" style="fill:red"/><path d="M307.77591,741.97372q-41.58258-16.76367-65.55524-47.95122Q218.2426,662.83741,215.227,619.581l-.33545-5.0293h82.48934l.67041,4.02344a67.96235,67.96235,0,0,0,18.10744,35.87894q14.414,15.09084,38.05912,23.3052,23.6404,8.22075,53.81939,8.21534,30.509,0,52.813-8.38282,22.29639-8.37739,34.37015-23.97512,12.07179-15.59328,12.07179-36.38236v-.33594q0-27.16116-20.28713-42.92094-20.29182-15.75732-67.232-25.81936l-51.97466-10.73048Q296.705,522.67518,261.166,488.97347q-35.54668-33.70023-35.544-87.68661v-.33545q.33029-42.91847,23.30471-74.94441,22.96433-32.0178,63.54352-49.96293Q353.03909,258.11,405.01917,258.1046q52.63989,0,92.21347,17.43654,39.56322,17.43973,62.20221,48.62162,22.63331,31.18509,24.981,72.42927l.33595,5.70069H502.26243l-.6709-4.35938q-3.01758-21.12526-15.75978-36.04691Q473.08388,346.97,452.29949,338.91668q-20.795-8.04711-47.95122-8.04737-28.16677,0-48.78911,8.21534-20.62209,8.22076-31.8555,22.96926a54.89357,54.89357,0,0,0-11.23341,34.20316v.335q0,25.48761,20.62258,41.41264,20.62209,15.93023,64.21393,24.98147l51.97466,10.73q75.77785,15.76545,110.32091,48.11919,34.5322,32.36287,34.53811,89.02694v.33594q0,44.93857-22.6343,78.13-22.6333,33.19632-65.0523,51.30376-42.42343,18.10842-101.43467,18.10744Q349.35284,758.73936,307.77591,741.97372Z" transform="translate(-0.00019 -0.00019)" style="fill:#fff"/><path d="M661.53992,330.53386a45.53614,45.53614,0,0,1,0-64.54937q13.40769-13.24291,32.86136-13.24513,19.78125,0,33.1973,13.24513a45.53849,45.53849,0,0,1,0,64.54937Q714.182,343.94968,694.40128,343.947,674.94958,343.947,661.53992,330.53386Zm-8.71876,64.3819h83.4952V750.35654h-83.4952Z" transform="translate(-0.00019 -0.00019)" style="fill:#fff"/></svg>