<svg id="Layer_1" data-name="Layer 1" xmlns="http://www.w3.org/2000/svg" viewBox="0 0 1023.99962 1023.99962"><path d="M0,511.99931A512.00008,512.00008,0,1,1,149.96088,874.0378,510.3937,510.3937,0,0,1,0,511.99931Z" style="fill:red"/><path d="M306.59747,739.90215q-41.208-16.61268-64.96478-47.51933-23.7621-30.9042-26.75055-73.771l-.33243-4.984h81.74636l.66437,3.9872a67.3502,67.3502,0,0,0,17.94434,35.55578q14.28421,14.95491,37.71632,23.09529,23.42748,8.14671,53.33464,8.14134,30.23423,0,52.33735-8.30731,22.09557-8.30194,34.06058-23.75918,11.96305-15.45283,11.96306-36.05466v-.33292q0-26.91651-20.10441-42.53434-20.109-15.61539-66.62644-25.58681L366.07936,537.1984q-70.453-14.61955-105.672-48.01772-35.22652-33.39669-35.22384-86.89681v-.33243q.32731-42.53191,23.09481-74.26938,22.75749-31.72942,62.97118-49.51292,40.20344-17.77253,91.71532-17.77789,52.16577,0,91.3829,17.27949,39.20689,17.28265,61.642,48.18369,22.42946,30.9042,24.756,71.77689l.33292,5.64935H499.33224l-.66486-4.32012q-2.9904-20.935-15.61783-35.72223-12.633-14.78212-33.23023-22.76286-20.60769-7.97465-47.51932-7.97489-27.91308,0-48.34967,8.14135-20.43635,8.14671-31.56857,22.76237a54.39911,54.39911,0,0,0-11.13223,33.89509v.33194q0,25.258,20.43683,41.03964,20.43635,15.78674,63.63555,24.75646l51.50652,10.63334q75.09533,15.62344,109.32725,47.68578,34.22117,32.07138,34.227,88.22507v.33292q0,44.5338-22.43043,77.42624-22.42945,32.89731-64.46638,50.84166-42.04133,17.94532-100.521,17.94434Q347.79991,756.51677,306.59747,739.90215Z" style="fill:#fff"/><path d="M657.17512,332.16814a45.126,45.126,0,0,1,0-63.968q13.28691-13.12363,32.56537-13.12583,19.60308,0,32.8983,13.12583a45.12835,45.12835,0,0,1,0,63.968q-13.29571,13.295-32.8983,13.29229Q670.464,345.46043,657.17512,332.16814Zm-8.64023,63.802H731.278V748.20946H648.53489Z" style="fill:#fff"/></svg>